{"glyphs":{"0":{"ha":863,"x_min":92,"x_max":867,"o":"m 306 -7 q 146 59 201 -7 q 92 250 92 124 q 92 273 92 250 q 120 462 92 355 q 186 653 148 569 q 276 811 224 738 q 388 939 327 884 q 660 1055 519 1055 q 852 909 808 1055 q 867 817 867 861 q 863 716 867 772 q 835 568 859 659 q 772 393 811 477 q 683 236 734 309 q 572 109 633 163 q 306 -7 443 -7 m 732 853 q 646 966 732 966 q 467 842 565 966 q 307 552 375 726 q 224 218 235 372 q 243 118 220 154 q 304 81 265 81 q 378 101 343 81 q 447 157 412 121 q 515 240 482 192 q 579 343 549 288 q 636 461 610 399 q 682 586 662 523 q 732 840 732 744 l 732 853 z "},"1":{"ha":564,"x_min":96,"x_max":568,"o":"m 155 11 q 115 -6 134 -6 q 96 12 96 -6 q 104 45 96 26 q 250 394 214 300 q 407 867 385 760 q 264 793 353 810 q 228 789 243 789 q 202 794 213 789 q 185 806 192 799 q 172 838 172 821 q 183 864 172 854 q 219 885 194 874 q 268 913 243 896 q 315 949 292 930 l 361 987 q 464 1057 439 1057 q 506 1048 488 1057 q 538 1027 524 1040 q 567 965 568 998 q 554 879 566 931 q 524 764 543 827 q 479 630 505 701 q 422 486 453 559 q 155 11 258 92 z "},"2":{"ha":728,"x_min":14,"x_max":739,"o":"m 600 171 q 621 132 621 171 q 609 69 621 94 q 577 28 597 45 q 467 -7 536 -7 q 359 13 420 -7 q 267 41 299 32 q 208 50 235 50 q 164 44 181 50 q 134 31 148 39 q 107 14 120 22 q 70 -5 80 -5 q 51 0 60 -5 q 33 14 41 5 q 14 46 14 35 q 27 87 14 58 q 77 170 39 117 q 161 274 115 222 q 259 375 208 325 q 455 570 410 523 q 534 665 500 618 q 610 847 610 766 q 548 958 610 933 q 499 966 529 966 q 438 948 469 966 q 387 905 408 931 q 343 789 343 851 q 376 718 343 732 q 389 701 389 712 q 366 656 389 676 q 290 618 321 618 q 240 629 259 618 q 208 660 221 641 q 182 742 182 698 q 193 822 182 787 q 225 891 204 857 q 274 954 245 924 q 339 1006 303 984 q 495 1055 418 1055 q 615 1035 571 1055 q 688 982 660 1015 q 739 823 739 920 q 586 504 739 665 q 422 353 505 419 l 294 249 q 149 106 189 162 q 235 132 201 130 q 290 133 269 134 q 335 130 311 132 q 435 125 397 125 q 499 132 472 125 q 544 148 527 139 q 573 164 562 157 q 600 171 585 171 z "},"3":{"ha":746,"x_min":57,"x_max":764,"o":"m 315 404 q 288 424 288 404 q 321 505 288 471 q 364 525 332 515 q 445 563 395 534 q 536 635 495 593 q 627 852 627 730 q 601 936 627 905 q 534 966 574 966 q 459 948 493 966 q 401 905 426 931 q 347 789 347 849 q 380 718 347 732 q 393 701 393 712 q 370 656 393 676 q 295 618 326 618 q 245 627 264 618 q 213 654 227 637 q 186 734 186 689 q 199 816 186 780 q 233 886 211 852 q 287 951 255 920 q 357 1005 318 981 q 518 1055 439 1055 q 642 1035 597 1055 q 713 982 686 1015 q 764 823 764 922 q 617 524 764 663 q 513 448 563 473 q 593 351 571 430 q 600 295 600 327 q 588 227 600 264 q 555 156 576 191 q 504 93 534 122 q 435 41 473 63 q 258 -7 353 -7 q 104 45 159 -7 q 57 152 57 89 q 88 243 57 201 q 185 290 125 290 q 233 276 218 290 q 245 236 258 251 q 223 210 233 222 q 208 186 214 198 q 196 144 196 163 q 199 114 196 125 q 210 94 203 102 q 264 74 228 74 q 336 97 301 74 q 397 156 371 120 q 454 321 454 233 q 380 410 454 410 l 315 404 z "},"4":{"ha":735,"x_min":78,"x_max":724,"o":"m 704 689 q 613 431 704 615 q 653 433 640 433 q 679 425 667 433 q 701 406 691 417 q 724 363 724 378 q 718 342 724 347 q 692 339 711 336 q 628 344 659 344 l 587 344 q 569 343 578 344 q 451 133 490 199 q 312 -6 368 -6 q 284 19 284 -6 q 309 85 284 45 q 366 201 336 137 l 425 333 q 262 322 300 322 q 164 330 190 322 q 125 350 139 337 q 100 380 111 363 q 79 438 78 416 q 95 490 80 460 l 184 655 q 307 1031 292 862 q 345 1055 310 1055 q 408 1036 383 1055 q 454 960 454 1000 q 441 877 454 920 q 409 787 429 834 q 362 690 389 740 q 308 593 336 640 q 201 427 234 475 q 288 412 227 412 q 460 418 376 412 l 491 496 q 545 661 536 610 q 567 748 561 718 q 585 777 573 777 q 667 748 628 777 q 704 689 704 720 z "},"5":{"ha":751,"x_min":47,"x_max":841,"o":"m 328 659 q 457 701 402 701 q 552 688 513 701 q 620 648 591 676 q 683 471 683 589 q 626 251 683 363 q 474 69 569 140 q 256 -7 372 -7 q 100 50 160 -7 q 47 178 47 102 q 82 274 47 232 q 168 317 118 317 q 215 308 202 317 q 227 275 237 292 l 209 245 q 179 158 179 199 q 260 74 179 74 q 392 142 327 74 q 490 298 451 203 q 527 471 527 390 q 458 591 527 572 q 417 596 439 596 q 372 584 395 596 q 327 555 349 572 q 285 517 304 538 l 248 481 q 226 473 238 473 q 186 491 201 473 q 160 547 157 524 q 186 616 161 565 q 296 854 273 795 q 326 940 319 913 q 339 982 334 967 q 354 1010 345 998 q 394 1041 373 1041 q 438 1036 416 1041 q 489 1025 460 1031 q 615 1008 567 1008 q 686 1012 663 1008 q 727 1021 709 1015 q 758 1032 745 1026 l 781 1043 q 821 1055 805 1055 q 841 1008 841 1053 q 823 946 841 974 q 793 908 804 919 q 768 890 782 897 q 704 877 741 877 q 637 881 666 877 q 578 894 609 886 q 449 936 509 910 q 369 732 434 857 l 328 659 z "},"6":{"ha":770,"x_min":94,"x_max":796,"o":"m 146 90 q 132 111 146 90 q 106 185 119 132 q 94 316 94 238 q 116 492 94 395 q 176 673 138 589 q 264 828 214 758 q 374 949 315 899 q 620 1055 496 1055 q 754 1002 707 1055 q 796 888 796 956 q 760 764 796 819 q 672 702 724 710 q 602 722 631 696 q 577 775 577 745 q 594 807 577 799 q 688 915 688 853 q 674 952 688 937 q 627 968 660 968 q 559 950 594 968 q 489 900 524 932 q 422 826 455 869 q 362 732 390 783 q 275 515 304 631 q 437 618 340 593 q 507 627 470 627 q 579 613 545 627 q 642 570 614 598 q 700 395 700 506 q 639 184 700 281 q 495 45 585 98 q 336 -7 410 -7 q 218 20 262 -7 q 146 90 174 47 m 314 436 q 298 412 314 436 q 262 325 281 388 q 243 217 243 261 q 247 153 243 173 q 260 115 251 133 q 324 75 281 75 q 431 127 376 75 q 548 339 517 208 q 557 414 557 381 q 552 469 557 448 q 537 505 547 490 q 472 539 515 539 q 388 511 429 539 q 314 436 346 484 z "},"7":{"ha":658,"x_min":144,"x_max":766,"o":"m 153 61 q 150 139 144 85 q 188 274 156 193 q 266 435 220 355 q 366 590 312 515 l 471 732 l 566 852 q 634 944 609 907 q 387 864 508 889 q 323 857 349 857 q 276 861 297 857 q 239 873 255 865 q 186 922 208 889 q 170 988 170 943 q 192 1041 170 1040 q 224 1035 207 1042 q 265 1019 241 1027 q 389 995 329 995 q 491 1002 450 995 q 564 1018 532 1009 l 623 1034 q 666 1041 648 1041 q 702 1030 684 1041 q 734 1004 720 1019 q 758 945 766 968 q 724 884 749 922 q 666 800 700 847 q 509 579 550 641 q 429 452 468 518 q 359 318 390 386 q 291 47 294 169 q 286 10 291 19 q 215 0 271 -20 q 153 61 172 16 z "},"8":{"ha":728,"x_min":66,"x_max":765,"o":"m 498 467 q 574 245 574 342 q 487 61 574 134 q 292 -7 404 -7 q 113 65 174 -7 q 66 191 66 120 q 212 414 66 320 q 311 463 258 443 q 216 732 216 598 q 305 962 216 868 q 518 1055 391 1054 q 703 986 635 1057 q 765 819 765 922 q 500 469 765 592 l 498 467 m 448 545 q 615 802 615 633 q 575 935 615 892 q 481 968 538 974 q 389 918 428 964 q 347 802 347 869 q 370 688 347 739 q 410 606 392 637 l 448 545 m 363 393 q 206 205 206 339 q 276 80 206 113 q 327 69 300 69 q 377 79 355 69 q 418 106 399 88 q 458 197 458 144 q 437 281 458 243 q 399 343 416 319 l 363 393 z "},"9":{"ha":770,"x_min":69,"x_max":768,"o":"m 110 28 q 99 38 110 28 q 79 73 89 47 q 69 123 69 98 q 78 171 69 149 q 102 209 87 193 q 182 245 136 245 q 227 233 215 245 q 237 195 248 211 q 205 126 207 154 q 208 88 204 98 q 220 72 212 78 q 252 60 233 60 q 429 170 344 60 q 564 462 513 279 q 461 395 519 420 q 354 370 402 370 q 273 381 307 370 q 212 419 239 393 q 151 593 151 477 q 278 925 151 789 q 452 1039 355 1008 q 553 1055 499 1055 q 649 1033 607 1055 q 718 977 691 1012 q 768 806 768 911 q 768 793 768 800 q 767 781 768 787 q 593 214 747 444 q 369 12 495 68 q 250 -16 305 -16 q 162 -4 194 -16 q 110 28 130 8 m 536 960 q 423 905 480 960 q 310 681 340 825 q 300 600 300 635 q 305 543 300 565 q 319 503 309 520 q 374 465 338 465 q 441 479 410 465 q 499 519 471 494 q 549 581 526 545 q 589 659 572 616 q 625 854 625 749 q 536 960 625 960 z "},"\u0000":{"ha":0,"x_min":0,"x_max":0,"o":""},"\r":{"ha":0,"x_min":0,"x_max":0,"o":""},"\u0001":{"ha":0,"x_min":0,"x_max":0,"o":""},"\u0002":{"ha":0,"x_min":0,"x_max":0,"o":""},"\u0003":{"ha":0,"x_min":0,"x_max":0,"o":""},"\u0004":{"ha":0,"x_min":0,"x_max":0,"o":""},"\u0005":{"ha":0,"x_min":0,"x_max":0,"o":""},"\u0006":{"ha":0,"x_min":0,"x_max":0,"o":""},"\u0007":{"ha":0,"x_min":0,"x_max":0,"o":""},"\b":{"ha":0,"x_min":0,"x_max":0,"o":""},"\t":{"ha":0,"x_min":0,"x_max":0,"o":""},"\u0015":{"ha":0,"x_min":0,"x_max":0,"o":""},"\u0016":{"ha":0,"x_min":0,"x_max":0,"o":""},"\u0017":{"ha":0,"x_min":0,"x_max":0,"o":""},"\u0018":{"ha":0,"x_min":0,"x_max":0,"o":""},"\u0019":{"ha":0,"x_min":0,"x_max":0,"o":""}," ":{"ha":427,"x_min":0,"x_max":0,"o":""},"!":{"ha":580,"x_min":110,"x_max":635,"o":"m 256 262 q 222 356 222 262 q 291 690 222 486 q 429 979 352 873 q 513 1048 471 1037 q 553 1054 534 1054 q 586 1051 572 1054 q 611 1043 600 1048 q 635 1015 635 1032 q 621 979 635 998 q 578 914 608 960 q 508 793 548 868 q 320 370 412 614 q 304 326 311 346 q 291 292 298 306 q 256 262 277 262 m 143 23 q 135 31 143 23 q 119 57 127 38 q 110 102 110 77 q 120 148 110 127 q 144 180 130 168 q 200 201 171 201 q 251 197 230 201 q 289 184 271 193 q 332 122 332 163 q 298 33 332 71 q 234 -5 267 -2 q 179 0 200 -9 q 143 23 158 8 z "},"\"":{"ha":607,"x_min":192,"x_max":716,"o":"m 512 784 q 497 792 503 784 q 486 812 490 800 q 477 876 477 840 q 482 944 477 911 q 496 1010 487 977 q 590 1138 530 1119 q 629 1144 610 1144 q 663 1141 648 1144 q 690 1133 678 1138 q 716 1100 716 1120 q 707 1074 716 1084 q 687 1053 697 1065 q 661 1020 676 1040 q 602 923 627 973 l 566 852 q 512 784 534 784 m 227 784 q 212 792 218 784 q 201 812 205 800 q 192 876 192 840 q 197 944 192 911 q 212 1010 202 977 q 305 1138 245 1119 q 345 1144 326 1144 q 378 1141 363 1144 q 406 1133 393 1138 q 431 1100 431 1120 q 422 1074 431 1084 q 402 1053 412 1065 q 376 1020 391 1040 q 317 923 342 973 l 281 852 q 227 784 249 784 z "},"#":{"ha":1008,"x_min":73,"x_max":990,"o":"m 499 -7 q 477 14 477 -7 q 486 50 477 28 q 505 100 495 72 l 563 284 l 398 284 l 323 72 q 264 0 303 20 q 228 -7 250 -7 q 205 14 205 -7 q 215 50 205 28 q 233 100 224 72 l 292 284 l 113 284 q 73 313 73 284 q 95 363 73 341 q 162 403 134 404 l 330 403 l 378 555 l 201 555 q 161 585 161 555 q 183 635 161 612 q 250 674 222 675 l 416 674 l 513 978 q 557 1036 529 1017 q 621 1055 585 1055 q 656 1025 656 1055 q 647 981 656 1008 l 536 674 l 688 674 l 785 978 q 828 1036 800 1017 q 892 1055 856 1055 q 928 1025 928 1055 q 918 981 928 1008 l 808 674 l 960 674 q 990 647 990 674 q 969 596 990 618 q 897 555 930 555 l 766 555 l 711 403 l 871 403 q 902 376 902 403 q 881 325 902 347 q 808 284 842 284 l 669 284 l 594 72 q 499 -7 564 -7 m 601 403 l 650 555 l 494 555 l 440 403 l 601 403 z "},"$":{"ha":758,"x_min":79,"x_max":808,"o":"m 701 1223 q 767 1242 729 1242 q 804 1217 804 1242 q 788 1180 804 1204 q 699 1023 747 1120 q 808 806 808 958 q 759 642 808 719 q 618 546 698 546 q 564 560 584 546 q 532 603 532 585 q 546 635 532 622 l 584 671 q 684 850 680 764 q 657 932 685 903 q 582 961 630 961 q 493 939 533 961 q 423 880 452 917 q 360 690 360 800 q 410 546 360 627 q 456 477 431 511 q 502 405 481 442 q 552 253 552 318 q 530 143 552 187 q 472 67 508 100 q 292 -6 396 -1 q 237 -138 246 -104 q 216 -178 229 -172 q 189 -184 204 -184 q 161 -178 174 -184 q 146 -164 148 -173 q 146 -137 144 -155 q 155 -96 149 -119 q 187 9 164 -56 q 84 119 106 40 q 79 166 79 140 q 89 217 79 192 q 113 260 99 243 q 164 298 140 292 q 218 264 218 313 l 212 212 q 267 100 212 130 q 312 90 286 90 q 359 99 338 90 q 395 123 380 108 q 422 193 422 153 q 406 265 422 233 q 365 329 390 297 q 312 394 340 361 q 258 467 283 428 q 201 657 201 558 q 254 852 201 757 q 476 1040 332 993 q 556 1055 522 1055 q 606 1053 590 1055 l 628 1112 q 701 1223 659 1196 z "},"%":{"ha":1217,"x_min":104,"x_max":1118,"o":"m 304 75 q 248 16 274 35 q 186 -3 221 -3 q 151 21 151 -3 q 169 67 151 41 q 197 105 188 93 q 239 157 207 118 q 908 980 872 939 q 1036 1057 965 1057 q 1069 1035 1069 1057 q 1004 920 1069 1005 l 879 764 l 465 263 l 304 75 m 431 594 q 414 582 431 594 q 361 556 398 570 q 284 543 324 543 q 212 554 245 543 q 155 587 179 565 q 104 730 104 635 q 192 947 104 844 q 403 1055 283 1055 q 562 950 523 1055 q 576 871 576 914 q 565 791 576 829 q 536 717 555 753 q 490 649 517 681 q 431 594 463 618 m 282 617 q 357 668 317 617 q 437 848 414 741 q 444 901 444 880 q 442 936 444 922 q 435 959 440 949 q 403 980 424 980 q 364 967 382 980 q 329 933 347 955 q 294 882 311 911 q 263 821 277 853 q 235 683 235 749 q 282 617 235 617 m 661 96 q 647 174 647 132 q 657 255 647 217 q 688 330 668 294 q 734 397 707 366 q 795 453 762 429 q 945 505 867 505 q 1105 401 1065 505 q 1118 322 1118 365 q 1108 241 1118 279 q 1078 168 1097 203 q 1033 100 1059 132 q 973 45 1006 68 q 827 -7 903 -7 q 661 96 699 -7 m 825 68 q 899 119 860 68 q 979 298 957 192 q 986 352 986 331 q 984 386 986 373 q 978 410 983 399 q 945 431 966 431 q 907 418 924 431 q 871 384 889 406 q 836 333 853 361 q 806 271 819 304 q 777 134 777 199 q 825 68 777 68 z "},"&":{"ha":783,"x_min":47,"x_max":790,"o":"m 686 890 q 590 961 686 961 q 382 856 480 961 q 301 720 325 793 q 289 656 289 685 q 295 610 289 628 q 312 581 302 592 q 361 562 333 555 q 419 575 394 575 q 460 569 445 575 q 486 553 475 562 q 505 516 505 534 q 481 480 505 481 q 411 460 452 478 q 332 415 370 443 q 264 353 294 388 q 197 196 197 276 q 262 85 197 113 q 316 76 284 76 q 378 90 348 76 q 431 125 408 104 q 480 222 479 171 q 427 302 481 286 q 405 312 413 307 q 400 328 396 317 q 415 351 404 340 q 478 382 444 382 q 525 376 494 382 q 610 363 583 363 q 697 371 665 363 q 750 384 729 378 q 786 367 786 394 q 771 317 786 340 q 731 277 756 294 q 598 243 677 241 q 600 222 600 233 q 575 144 600 184 q 507 69 550 103 q 286 -7 410 -7 q 98 62 162 -7 q 47 191 47 117 q 169 454 47 339 q 248 508 210 493 q 151 627 175 538 q 143 693 143 655 q 158 775 143 731 q 200 861 173 820 q 266 937 228 901 q 351 998 304 972 q 566 1055 454 1055 q 741 987 680 1055 q 790 854 790 932 q 720 690 790 771 q 590 610 652 610 q 526 640 555 610 q 500 688 500 667 q 512 715 500 709 q 671 843 631 779 q 686 890 686 867 z "},"'":{"ha":322,"x_min":192,"x_max":431,"o":"m 227 784 q 212 792 218 784 q 201 812 205 800 q 192 876 192 840 q 197 944 192 911 q 212 1010 202 977 q 305 1138 245 1119 q 345 1144 326 1144 q 378 1141 363 1144 q 406 1133 393 1138 q 431 1100 431 1120 q 422 1074 431 1084 q 402 1053 412 1065 q 376 1020 391 1040 q 317 923 342 973 l 281 852 q 227 784 249 784 z "},"(":{"ha":665,"x_min":152,"x_max":838,"o":"m 810 1236 q 838 1215 838 1236 q 808 1177 838 1201 l 753 1135 q 700 1092 728 1116 q 543 911 602 998 q 442 747 483 824 q 370 579 401 669 q 301 167 301 381 q 349 -122 301 5 q 455 -279 393 -237 q 468 -297 468 -287 q 464 -314 468 -307 q 453 -328 460 -322 q 413 -342 437 -342 q 358 -322 389 -342 q 297 -266 326 -302 q 241 -181 267 -231 q 195 -73 214 -132 q 152 175 152 54 q 173 401 152 296 q 231 600 195 506 q 314 777 267 694 q 414 928 361 859 q 621 1144 511 1057 q 810 1236 739 1236 z "},")":{"ha":665,"x_min":-138,"x_max":549,"o":"m -109 -342 q -138 -320 -138 -342 q -107 -283 -138 -307 l -52 -240 q 1 -197 -27 -221 q 258 148 153 -54 q 399 728 399 414 q 351 1016 399 888 q 245 1173 309 1130 q 233 1191 233 1181 q 237 1209 233 1201 q 248 1223 241 1217 q 288 1236 264 1236 q 343 1216 311 1236 q 404 1161 374 1196 q 460 1076 433 1125 q 506 968 486 1027 q 549 720 549 841 q 527 493 549 598 q 470 295 506 389 q 387 118 434 201 q 287 -34 339 35 q 79 -250 190 -162 q -109 -342 -39 -342 z "},"*":{"ha":720,"x_min":189,"x_max":692,"o":"m 661 772 q 474 727 563 777 l 509 694 q 587 586 587 618 q 539 528 587 547 q 513 524 527 524 q 493 534 499 524 l 452 605 q 400 686 428 645 q 334 640 365 667 l 278 590 q 235 553 254 567 q 203 548 217 539 q 189 575 189 557 q 200 613 189 593 q 231 652 212 632 q 323 734 267 693 q 214 857 235 793 q 243 940 197 909 q 271 943 266 956 q 287 913 276 930 q 312 878 298 896 q 376 802 346 833 l 376 815 q 410 1000 376 921 q 430 1033 418 1022 q 505 1056 454 1056 q 576 1032 556 1056 q 583 1011 583 1024 q 572 987 583 999 l 549 959 q 445 790 493 888 l 480 816 q 619 881 549 866 q 673 861 650 887 q 692 805 692 839 q 661 772 692 771 z "},"+":{"ha":858,"x_min":96,"x_max":784,"o":"m 419 165 q 387 203 387 165 l 387 464 l 143 464 q 96 497 96 464 q 111 536 96 520 q 165 562 140 564 l 387 562 l 387 784 q 402 826 386 810 q 452 853 429 853 q 486 806 486 853 l 486 562 l 746 562 q 784 530 784 562 q 769 491 784 507 q 710 464 741 464 l 486 464 l 486 239 q 469 193 486 208 q 419 165 443 165 z "},",":{"ha":435,"x_min":-2,"x_max":261,"o":"m 117 -155 q 103 -165 117 -155 q 64 -186 90 -175 q 18 -197 38 -197 q -2 -182 -2 -197 q 12 -152 -2 -168 l 45 -118 q 107 -5 107 -54 q 79 84 107 38 q 63 113 70 100 q 66 147 57 125 q 101 184 75 168 q 157 199 128 199 q 205 191 186 199 q 236 168 224 183 q 261 95 261 139 q 249 17 261 52 q 216 -50 236 -18 q 170 -109 195 -81 q 117 -155 144 -136 z "},"-":{"ha":628,"x_min":116,"x_max":534,"o":"m 155 366 q 116 396 116 366 q 136 447 116 423 q 191 488 171 490 l 504 488 q 534 461 534 488 q 514 409 534 433 q 454 366 479 366 l 155 366 z "},".":{"ha":375,"x_min":33,"x_max":255,"o":"m 66 23 q 58 31 66 23 q 42 57 51 38 q 33 102 33 77 q 43 148 33 127 q 68 180 53 168 q 124 201 94 201 q 174 197 153 201 q 213 184 195 193 q 255 122 255 163 q 222 33 255 71 q 157 -5 191 -2 q 102 0 123 -9 q 66 23 81 8 z "},"/":{"ha":564,"x_min":-109,"x_max":802,"o":"m 36 -164 q 25 -183 36 -164 q -12 -219 14 -201 q -73 -236 -37 -236 q -109 -212 -109 -236 q -92 -166 -109 -191 l -39 -75 l 546 974 l 612 1088 q 658 1166 640 1136 q 769 1236 703 1236 q 802 1210 802 1236 q 751 1099 802 1177 q 715 1042 739 1082 q 36 -164 58 -127 z "},":":{"ha":435,"x_min":43,"x_max":374,"o":"m 264 435 q 221 442 242 433 q 184 465 200 450 q 152 533 152 497 q 162 590 152 570 q 186 622 172 610 q 242 644 213 644 q 293 640 272 644 q 331 627 313 635 q 374 564 374 605 q 340 475 374 513 q 264 435 310 440 m 76 23 q 69 31 76 23 q 52 57 61 38 q 43 102 43 77 q 53 148 43 127 q 78 180 63 168 q 134 201 104 201 q 184 197 163 201 q 222 184 205 193 q 265 122 265 163 q 232 33 265 71 q 167 -5 201 -2 q 113 0 134 -9 q 76 23 92 8 z "},";":{"ha":435,"x_min":-2,"x_max":377,"o":"m 269 435 q 224 442 245 433 q 189 465 203 450 q 155 533 155 497 q 165 590 155 570 q 190 622 175 610 q 246 644 216 644 q 296 640 275 644 q 335 627 317 635 q 377 564 377 605 q 344 475 377 513 q 269 435 313 440 m 117 -155 q 103 -165 117 -155 q 64 -186 90 -175 q 18 -197 38 -197 q -2 -182 -2 -197 q 12 -152 -2 -168 l 45 -118 q 107 -5 107 -54 q 79 84 107 38 q 63 113 70 100 q 66 147 57 125 q 101 184 75 168 q 157 199 128 199 q 205 191 186 199 q 236 168 224 183 q 261 95 261 139 q 249 17 261 52 q 216 -50 236 -18 q 170 -109 195 -81 q 117 -155 144 -136 z "},"<":{"ha":885,"x_min":92,"x_max":788,"o":"m 758 798 q 788 759 788 798 q 751 694 788 715 l 279 419 l 764 138 q 787 110 787 124 q 783 86 787 95 q 770 72 778 78 q 732 58 753 58 q 694 67 710 58 l 146 369 q 92 420 92 401 q 133 460 92 438 l 734 791 q 758 798 747 798 z "},"=":{"ha":858,"x_min":100,"x_max":802,"o":"m 764 700 q 802 668 802 700 q 787 629 802 644 q 728 602 759 602 l 161 602 q 114 635 114 602 q 129 673 114 658 q 183 700 157 701 l 764 700 m 750 429 q 788 397 788 429 q 773 358 788 373 q 714 330 745 330 l 147 330 q 100 363 100 330 q 115 401 100 387 q 170 429 144 430 l 750 429 z "},">":{"ha":842,"x_min":101,"x_max":798,"o":"m 131 60 q 101 99 101 60 q 138 164 101 142 l 610 439 l 125 720 q 102 748 102 734 q 106 771 102 763 q 119 787 111 780 q 157 800 136 800 q 195 791 179 800 l 743 489 q 798 438 798 456 q 756 398 798 420 l 155 66 q 131 60 142 60 z "},"?":{"ha":718,"x_min":109,"x_max":751,"o":"m 305 296 q 300 288 305 296 q 286 272 295 281 q 263 263 276 263 q 238 283 250 263 q 227 343 227 303 q 245 424 227 384 q 291 499 262 464 q 356 566 319 534 l 505 686 q 634 879 634 788 q 609 950 634 925 q 549 975 584 975 q 490 963 513 975 q 450 931 466 950 q 420 852 420 894 q 430 803 420 823 q 439 775 439 782 q 433 755 439 768 q 413 732 426 743 q 353 708 382 708 q 310 718 323 708 q 286 743 296 728 q 269 813 269 772 q 288 898 269 854 q 340 977 306 941 q 541 1055 418 1055 q 693 997 633 1055 q 751 851 751 939 q 612 590 751 697 l 527 526 q 355 370 412 441 q 327 330 339 349 q 305 296 315 311 m 140 176 q 155 189 140 176 q 200 201 170 201 q 250 197 229 201 q 289 184 271 193 q 331 122 331 163 q 298 33 331 71 q 218 -7 262 -7 l 214 -7 q 138 26 170 -7 q 109 92 109 57 q 140 176 109 151 z "},"@":{"ha":1257,"x_min":68,"x_max":1232,"o":"m 827 211 q 860 179 827 179 q 961 220 904 179 q 1100 419 1059 291 q 1118 505 1118 476 l 1118 541 q 1025 762 1118 680 q 773 843 933 843 q 457 760 593 843 q 218 410 271 646 q 201 264 201 337 q 222 126 201 191 q 286 12 242 61 q 560 -96 380 -96 q 799 -52 675 -96 q 824 -65 824 -43 q 677 -160 824 -123 q 515 -180 599 -180 q 347 -154 432 -180 q 200 -73 262 -127 q 68 245 68 41 q 172 605 68 439 q 434 853 271 761 q 781 945 599 945 q 1120 837 1002 945 q 1232 558 1232 735 l 1232 544 q 1162 311 1232 426 q 926 111 1074 160 q 845 95 880 95 q 788 101 810 95 q 750 121 766 107 q 715 205 715 149 q 721 253 715 226 q 568 102 649 140 q 510 88 539 88 q 454 100 480 88 q 408 134 428 112 q 366 248 366 181 q 380 367 366 315 q 420 465 395 419 q 478 548 445 511 q 549 612 511 585 q 705 667 628 667 q 823 588 783 667 q 886 665 857 658 q 905 667 894 667 q 932 662 916 667 q 959 647 948 656 q 972 601 985 626 q 866 368 887 427 q 827 211 827 257 m 779 492 q 698 586 764 586 q 611 536 656 586 q 517 336 542 458 q 509 258 509 297 q 553 182 509 182 q 751 427 639 182 q 779 492 767 461 m 748 347 q 748 347 748 347 l 748 347 z "},"A":{"ha":855,"x_min":-118,"x_max":908,"o":"m 505 154 q 557 435 505 245 q 307 425 393 431 q 258 334 280 377 l 216 250 q 66 34 133 86 q -41 -7 16 -7 q -107 22 -85 -7 q -117 44 -115 33 q -112 58 -118 54 q 15 146 -34 87 q 100 277 58 200 l 177 414 l 134 408 q 94 421 94 401 q 118 460 94 441 q 201 502 161 492 l 231 509 q 400 766 342 692 q 508 888 459 839 q 610 974 556 937 q 841 1055 727 1055 q 888 1040 876 1055 q 901 992 908 1018 q 876 920 893 967 q 744 553 768 624 q 764 554 755 554 l 779 554 q 860 539 854 554 q 861 522 861 534 q 853 493 861 509 q 828 465 846 477 q 707 437 792 441 q 655 216 661 277 q 659 134 648 155 q 689 113 669 113 q 720 116 708 113 q 742 125 732 120 l 760 133 q 773 137 766 137 q 785 128 781 137 q 790 104 790 119 q 778 68 790 89 q 745 31 765 47 q 637 -7 697 -7 q 515 75 546 -7 q 505 125 505 103 l 505 154 m 369 532 q 593 551 490 548 q 633 666 612 609 l 675 774 q 718 872 697 826 l 758 956 q 479 712 616 919 q 422 623 450 669 l 369 532 z "},"B":{"ha":766,"x_min":62,"x_max":833,"o":"m 76 100 q 63 192 62 138 q 78 322 64 246 q 121 485 92 398 q 300 841 186 686 q 341 867 319 867 q 383 858 362 867 q 419 836 404 848 q 445 783 458 803 q 288 506 349 629 q 559 604 442 517 q 688 833 688 698 q 597 949 688 924 q 531 957 569 957 q 451 949 492 957 q 372 928 410 941 q 235 854 297 900 q 202 842 217 842 q 170 849 187 842 q 138 869 152 857 q 153 962 85 913 q 444 1051 252 1031 q 539 1055 479 1055 q 662 1035 600 1055 q 763 982 725 1015 q 833 808 833 920 q 753 610 833 708 q 566 464 681 520 q 649 396 621 439 q 675 301 676 352 q 655 209 673 251 q 605 132 636 166 q 531 72 573 98 q 444 28 490 45 q 252 -7 349 -7 q 76 100 116 -7 m 240 396 q 186 173 189 268 q 209 102 184 127 q 275 77 233 77 q 361 96 317 77 q 444 145 406 114 q 532 308 529 217 q 457 420 534 391 q 408 432 434 429 q 318 416 376 431 q 240 396 261 401 z "},"C":{"ha":741,"x_min":66,"x_max":843,"o":"m 66 285 l 67 304 q 170 688 75 507 q 390 954 257 852 q 646 1055 522 1055 q 796 989 741 1055 q 843 849 843 932 q 770 654 843 750 q 681 574 728 598 q 639 562 659 562 q 604 570 620 562 q 575 590 587 578 q 550 637 550 616 q 561 667 550 659 q 712 831 672 747 q 728 895 728 864 q 665 961 728 961 q 464 854 568 961 q 301 608 367 756 q 229 328 233 455 l 228 302 q 292 102 228 149 q 348 85 315 85 q 408 93 380 85 q 465 115 437 101 q 583 197 511 139 q 619 193 605 214 q 631 152 631 175 q 621 99 631 113 q 585 66 610 85 q 523 31 559 47 q 355 -7 437 -7 q 223 13 273 -7 q 138 71 173 33 q 66 285 66 149 z "},"D":{"ha":876,"x_min":46,"x_max":890,"o":"m 56 160 q 82 282 62 204 q 134 448 102 359 q 302 808 205 650 q 337 833 316 829 q 390 837 367 837 q 430 832 412 837 q 458 819 448 827 q 465 783 479 802 q 251 331 342 597 q 210 190 216 229 q 200 135 203 150 q 197 110 197 121 q 225 87 197 87 q 289 101 254 87 q 365 138 324 114 q 449 197 406 162 q 535 274 493 231 q 614 368 577 317 q 680 473 652 418 q 741 714 741 595 q 609 930 741 877 q 513 949 563 949 q 429 942 463 949 q 362 924 394 936 q 254 863 298 901 q 226 856 242 856 q 191 865 210 856 q 157 889 172 875 q 130 953 123 922 q 260 1028 138 996 q 468 1055 363 1055 q 656 1026 572 1055 q 792 949 740 998 q 890 706 890 859 q 750 316 890 504 q 445 52 622 142 q 234 -7 330 -7 q 104 37 159 -7 q 56 160 46 84 z "},"E":{"ha":708,"x_min":56,"x_max":812,"o":"m 707 904 q 640 961 707 961 q 404 841 510 961 q 317 688 342 770 q 304 618 304 648 q 312 569 304 587 q 330 540 319 551 q 383 521 353 515 q 442 534 416 534 q 483 528 467 534 q 507 512 498 522 q 527 475 527 493 q 504 439 527 441 q 430 420 469 436 q 352 377 391 404 q 282 319 313 351 q 212 169 212 244 q 229 115 212 133 q 297 83 258 83 q 374 98 336 83 q 442 135 412 113 q 532 220 488 168 q 570 245 553 245 q 594 226 586 245 q 603 185 603 207 q 586 119 603 140 q 544 76 569 98 q 483 37 518 55 q 301 -7 398 -7 q 77 100 138 -7 q 56 182 56 140 q 68 260 56 224 q 100 327 81 296 q 144 383 120 358 q 193 426 169 408 q 270 467 239 463 q 167 586 193 498 q 159 655 159 614 q 174 745 159 696 q 218 839 190 794 q 286 924 247 884 q 373 992 326 963 q 589 1055 475 1055 q 766 996 707 1055 q 812 874 812 948 q 742 704 812 790 q 665 634 699 652 q 611 614 631 616 q 575 619 592 612 q 547 636 559 625 q 519 682 519 661 q 536 720 519 707 l 597 764 q 707 904 707 844 z "},"F":{"ha":720,"x_min":42,"x_max":863,"o":"m 649 444 q 608 447 629 445 q 557 449 587 448 q 419 444 494 450 q 363 300 402 385 q 286 156 324 215 q 121 0 205 30 q 96 -5 109 -5 q 73 0 83 -5 q 56 11 63 4 q 42 39 42 24 q 52 62 42 55 q 250 414 149 132 q 235 410 243 412 q 222 406 228 408 q 210 404 217 404 q 194 409 203 404 q 179 419 186 413 q 164 446 164 433 q 176 470 164 458 q 205 491 188 481 q 288 526 238 510 l 324 640 q 448 918 389 840 q 366 922 392 922 q 250 900 286 922 q 202 851 216 878 q 187 815 188 825 q 175 791 185 796 q 150 786 165 786 q 120 797 136 786 q 94 823 104 807 q 77 898 73 857 q 105 970 82 940 q 159 1019 127 1000 q 280 1055 216 1055 q 402 1048 345 1055 q 516 1034 459 1042 q 709 1013 667 1013 q 770 1018 750 1013 q 804 1032 790 1023 q 824 1045 819 1042 q 843 1048 830 1048 q 861 1017 863 1048 q 846 964 858 986 q 814 928 833 942 q 712 899 774 899 q 562 907 650 899 q 519 787 540 861 l 457 564 q 554 574 521 574 q 610 567 588 574 q 648 548 631 560 q 687 483 688 522 q 649 444 686 444 z "},"G":{"ha":831,"x_min":70,"x_max":848,"o":"m 70 284 l 71 304 q 174 688 78 507 q 395 954 259 851 q 651 1055 526 1055 q 800 989 746 1055 q 848 849 848 932 q 775 654 848 750 q 686 574 733 598 q 644 562 663 562 q 608 570 625 562 q 581 590 592 578 q 555 637 555 616 q 566 667 555 659 q 718 831 677 747 q 732 895 732 864 q 670 961 732 961 q 465 849 571 961 q 298 589 367 745 q 225 294 229 428 q 293 102 218 151 q 357 85 319 85 q 429 103 395 85 q 488 149 463 121 q 543 276 541 210 q 507 345 544 326 q 475 356 492 352 q 447 366 458 360 q 441 388 435 372 q 461 420 446 404 q 547 464 500 464 q 594 457 563 464 q 673 444 652 444 q 705 445 693 444 q 729 449 717 446 q 781 464 757 455 q 821 446 821 477 q 808 387 821 414 q 773 339 795 359 q 654 297 725 296 q 623 183 661 253 q 426 10 554 58 q 324 -7 380 -7 q 220 13 267 -7 q 138 71 172 33 q 70 284 70 148 z "},"H":{"ha":929,"x_min":-50,"x_max":979,"o":"m 682 498 q 518 506 598 506 q 353 496 439 506 q 122 65 245 195 q 28 0 77 17 q 3 -5 16 -5 q -19 0 -9 -5 q -35 11 -29 4 q -50 40 -50 24 q -39 62 -50 55 q 189 465 68 140 q 179 462 184 463 q 168 458 174 460 q 151 463 161 456 q 134 479 142 469 q 130 515 117 503 q 220 555 153 536 q 315 954 311 836 q 263 939 287 952 l 212 909 q 156 928 191 898 q 126 982 122 956 q 235 1046 131 1021 q 292 1055 271 1055 q 334 1054 313 1055 q 372 1048 355 1053 q 455 990 439 1032 q 462 944 462 971 q 456 881 462 918 q 441 799 451 845 q 383 585 419 699 q 689 602 531 602 l 718 602 l 755 713 q 832 998 818 901 q 889 1055 841 1055 q 941 1039 920 1055 q 977 979 979 1011 q 966 907 976 947 q 939 817 956 867 q 902 711 923 768 l 859 596 l 876 595 q 895 592 886 593 q 911 589 904 591 q 925 570 925 583 q 917 542 925 557 q 895 515 909 528 q 815 482 861 484 q 719 215 732 264 q 705 149 705 166 q 734 112 705 112 q 779 121 762 112 l 803 133 q 817 136 810 136 q 831 122 831 136 q 762 21 831 62 q 666 -6 715 -6 q 570 56 597 -6 q 560 96 560 77 q 574 185 560 140 q 604 277 587 230 l 682 498 z "},"I":{"ha":455,"x_min":-16,"x_max":485,"o":"m -5 62 q 231 506 112 149 q 328 882 300 714 q 335 954 335 928 q 283 939 307 952 l 233 909 q 177 928 212 898 q 145 978 142 958 q 168 1012 148 999 q 214 1035 188 1025 q 308 1055 270 1055 q 374 1049 345 1055 q 427 1029 403 1043 q 482 940 481 998 q 414 597 485 839 q 149 58 301 214 q 63 0 108 16 q 38 -5 51 -5 q 16 0 26 -5 q -1 11 5 4 q -16 39 -16 24 q -5 62 -16 55 z "},"J":{"ha":546,"x_min":-238,"x_max":589,"o":"m -238 -347 q -212 -317 -238 -327 q 165 130 -23 -244 q 397 747 313 423 q 431 932 431 876 q 421 954 431 954 q 195 817 332 954 q 164 803 181 803 q 132 810 148 803 q 103 827 116 817 q 73 876 73 851 q 88 922 73 901 q 130 962 104 943 q 191 999 157 982 q 262 1028 224 1015 q 383 1055 340 1055 q 457 1049 425 1055 q 518 1032 489 1044 q 589 945 589 1002 q 525 620 589 843 q 347 158 457 384 q 12 -298 189 -159 q -183 -380 -91 -380 q -233 -361 -218 -380 q -238 -347 -238 -355 z "},"K":{"ha":856,"x_min":-63,"x_max":901,"o":"m 835 100 q 847 85 847 100 q 837 55 847 70 q 808 26 827 40 q 709 -6 762 -6 q 624 9 656 -6 q 564 51 591 25 q 513 111 536 77 q 469 182 490 145 l 429 255 q 311 410 359 388 q 16 0 174 41 q -6 -3 6 -3 q -30 1 -19 -3 q -47 12 -40 5 q -63 40 -63 25 q -52 62 -63 54 q 184 506 65 149 q 281 882 254 714 q 288 954 288 928 q 236 939 260 952 q 195 916 212 926 q 168 905 178 905 q 144 911 157 905 q 121 928 132 918 q 98 970 98 952 q 109 1001 98 989 q 137 1022 120 1013 q 175 1037 154 1031 q 215 1047 195 1044 q 279 1055 252 1055 q 336 1046 307 1055 q 388 1021 366 1038 q 435 936 435 987 q 370 594 435 828 q 323 442 349 518 q 522 598 487 569 q 599 667 557 627 q 673 751 641 708 q 742 942 742 846 q 724 1004 742 977 q 718 1021 718 1013 q 725 1036 718 1029 q 741 1047 731 1042 q 786 1055 758 1055 q 835 1043 813 1055 q 872 1013 857 1031 q 901 923 901 975 q 880 823 901 871 q 824 732 859 774 q 744 650 789 689 q 650 576 699 612 l 551 506 q 460 438 502 472 q 575 303 509 399 l 627 225 q 718 112 684 139 q 775 85 753 85 q 812 93 798 85 q 835 100 827 100 z "},"L":{"ha":719,"x_min":-28,"x_max":782,"o":"m 610 963 q 426 741 519 963 l 313 456 q 108 98 206 184 q 438 164 249 148 q 491 167 465 167 q 546 158 517 167 q 597 133 576 150 q 644 30 644 96 q 617 -7 644 -7 q 588 1 602 -7 q 556 15 574 8 q 514 28 538 22 q 402 42 460 42 q 292 34 345 42 q 193 18 239 26 l 105 1 q 44 -7 65 -7 q 13 2 24 -7 q -8 26 1 12 q -28 77 -28 57 q -14 117 -28 109 q 118 359 45 149 q 211 621 186 555 q 265 751 235 688 q 330 870 295 814 q 407 967 365 926 q 606 1057 497 1057 q 734 991 682 1057 q 782 851 782 930 q 702 628 782 743 q 601 530 655 561 q 553 516 574 516 q 515 525 532 516 q 487 545 499 533 q 462 593 462 572 q 473 621 462 614 q 612 743 555 672 q 673 891 673 820 q 610 963 673 963 z "},"M":{"ha":1294,"x_min":-147,"x_max":1308,"o":"m 1219 137 q 1236 113 1236 137 q 1227 73 1236 89 q 1207 45 1219 58 q 1178 20 1196 32 q 1091 -7 1137 -7 q 1018 4 1045 -7 q 972 38 991 16 q 930 168 930 85 q 964 383 930 256 q 1029 601 998 510 q 1094 773 1061 691 l 1155 928 q 901 549 1055 838 l 736 239 q 549 -7 605 -7 q 473 41 494 -7 q 455 195 455 86 q 472 404 455 304 q 516 600 490 504 q 635 935 562 768 q 477 756 564 895 q 384 595 411 646 l 209 273 q 33 27 100 74 q -71 -7 -15 -7 q -139 23 -118 -7 q -147 45 -147 35 q -141 58 -147 56 q -82 82 -99 69 q -47 107 -64 94 q 2 164 -31 121 q 73 268 35 207 q 152 404 111 328 l 238 562 q 488 932 357 793 q 578 1008 534 981 q 682 1051 623 1040 q 712 1055 699 1055 q 744 1050 726 1055 q 774 1038 761 1046 q 791 983 804 1017 q 770 922 786 963 l 734 825 q 593 181 606 471 q 666 316 629 243 l 743 467 l 823 621 q 1170 1017 1010 967 q 1225 1028 1203 1028 q 1261 1022 1248 1028 q 1284 1008 1274 1017 q 1300 963 1308 986 q 1280 905 1293 941 l 1182 618 l 1147 506 q 1078 206 1088 311 q 1087 137 1074 162 q 1126 113 1101 113 q 1164 116 1150 113 q 1188 125 1178 120 l 1206 133 q 1219 137 1213 137 z "},"N":{"ha":983,"x_min":26,"x_max":1076,"o":"m 726 70 l 727 47 q 714 12 727 24 q 679 -1 701 -1 q 630 17 657 -1 q 572 79 603 35 q 512 197 542 122 q 463 357 482 272 q 423 709 423 525 q 433 883 423 800 l 425 871 q 201 330 298 690 q 137 13 155 161 q 104 -7 134 -7 q 34 42 56 -7 q 26 92 26 60 q 38 185 26 123 q 71 320 50 246 q 122 477 92 395 q 188 640 152 559 q 264 794 223 721 q 349 924 305 867 q 529 1051 445 1047 q 587 1037 575 1054 q 590 972 601 1018 q 570 814 570 892 q 574 683 570 736 q 585 575 578 629 q 601 469 591 522 q 623 368 611 416 q 676 201 649 262 q 724 313 698 257 l 825 536 q 909 838 909 724 q 865 968 909 945 q 851 985 854 972 q 856 1011 849 998 q 875 1034 863 1024 q 935 1056 902 1056 q 996 1042 968 1056 q 1042 1005 1023 1028 q 1076 901 1076 961 q 1056 777 1076 841 q 1002 643 1035 713 q 930 502 970 574 l 852 359 q 731 102 759 190 q 726 70 726 88 z "},"O":{"ha":910,"x_min":76,"x_max":930,"o":"m 80 309 q 105 480 83 391 q 168 654 128 570 q 261 810 207 737 q 379 938 315 884 q 669 1055 517 1055 q 910 887 854 1055 q 928 742 930 828 q 902 566 926 655 q 837 393 878 476 q 741 236 795 309 q 621 110 686 163 q 346 -7 484 -7 q 150 74 222 -7 q 80 309 76 157 m 301 570 q 245 409 267 491 q 222 270 224 327 q 229 181 220 212 q 253 127 237 149 q 337 81 286 81 q 439 115 388 81 q 539 203 491 148 q 632 332 588 259 q 709 483 675 404 q 779 860 805 711 q 667 963 762 963 q 473 845 580 963 q 301 570 373 735 z "},"P":{"ha":769,"x_min":-49,"x_max":861,"o":"m 198 165 q 173 127 198 165 q 99 42 148 90 q 5 -5 51 -5 q -29 6 -18 -5 q -49 39 -49 24 q -39 62 -49 55 q 189 496 64 136 l 229 610 q 346 852 298 806 q 381 865 363 865 q 413 860 399 865 q 437 845 427 854 q 460 798 460 825 q 450 768 460 787 q 429 719 441 749 l 342 479 q 614 616 507 509 q 715 821 715 715 q 625 951 715 920 q 554 962 595 962 q 472 952 514 962 q 389 926 430 942 q 255 848 307 892 q 225 835 241 835 q 195 842 209 835 q 170 859 180 848 q 144 908 144 883 q 162 952 144 932 q 209 988 180 972 q 276 1016 238 1004 q 354 1038 314 1029 q 516 1055 435 1055 q 663 1035 596 1055 q 773 981 730 1015 q 861 808 861 913 l 861 798 q 764 572 854 669 q 559 438 684 487 q 345 393 446 393 l 327 393 q 310 395 318 393 q 198 165 249 241 z "},"Q":{"ha":910,"x_min":106,"x_max":1002,"o":"m 309 -7 l 227 -14 q 188 6 198 -14 q 187 38 178 26 q 220 58 197 49 q 277 79 243 68 q 354 110 311 90 q 446 171 397 130 q 543 267 496 212 q 633 387 591 321 q 708 524 676 453 q 778 816 778 680 q 663 966 778 966 q 479 875 576 966 q 324 660 387 790 q 259 412 259 528 q 274 319 259 351 q 330 235 294 278 q 332 223 332 231 q 325 203 332 215 q 307 180 318 191 q 248 155 277 155 q 194 173 219 155 q 149 221 168 191 q 106 371 106 287 q 127 538 106 455 q 183 698 147 622 q 271 839 220 774 q 384 952 322 905 q 663 1055 515 1055 q 899 884 841 1055 q 920 748 920 825 q 900 601 920 671 q 846 465 880 531 q 767 337 812 398 q 674 225 723 276 q 483 75 576 122 q 606 18 541 57 l 707 -43 q 836 -111 790 -95 q 906 -126 882 -126 q 940 -121 930 -126 q 958 -111 950 -117 l 971 -100 q 984 -96 977 -96 q 1002 -122 1002 -96 q 992 -168 1002 -149 q 964 -203 983 -188 q 860 -240 923 -240 q 748 -223 797 -240 q 658 -180 699 -205 q 579 -123 616 -154 q 500 -67 541 -93 q 309 -7 406 -7 z "},"R":{"ha":865,"x_min":-39,"x_max":869,"o":"m 726 821 q 548 956 726 956 q 321 888 436 956 q 270 851 288 868 q 234 835 251 835 q 201 843 217 835 q 174 865 186 852 q 183 960 129 914 q 453 1050 264 1030 q 549 1055 491 1055 q 672 1034 608 1055 q 781 977 737 1013 q 869 791 869 904 q 747 548 869 658 q 497 410 642 452 q 571 317 536 378 l 625 220 q 753 76 696 87 q 793 77 772 73 q 821 82 814 82 q 830 71 827 81 q 824 43 832 60 q 798 13 816 27 q 704 -17 755 -21 q 622 4 653 -14 q 565 47 590 21 q 521 106 541 74 q 486 173 502 139 l 455 239 q 429 295 441 272 q 408 338 416 319 q 388 373 399 357 q 329 418 365 408 q 39 0 186 52 q 15 -5 27 -5 q -8 0 2 -5 q -25 11 -18 4 q -39 39 -39 24 q -29 62 -39 55 q 197 494 73 136 l 237 608 q 355 852 307 806 q 391 865 372 865 q 422 860 409 865 q 446 845 436 854 q 469 804 469 825 q 460 766 469 783 q 439 720 451 749 q 388 581 406 633 l 353 483 q 609 596 498 502 q 726 821 726 695 z "},"S":{"ha":659,"x_min":32,"x_max":762,"o":"m 171 264 l 165 212 q 220 100 165 130 q 265 90 239 90 q 313 99 292 90 q 347 123 334 108 q 376 193 376 153 q 359 266 376 233 q 319 331 343 298 l 264 397 q 176 541 199 476 q 154 660 154 606 q 167 763 154 714 q 204 855 180 811 q 261 935 228 899 q 335 998 294 972 q 503 1055 420 1055 q 633 1032 587 1055 q 709 974 680 1009 q 762 813 762 907 q 712 648 762 726 q 610 559 667 578 q 577 553 598 553 q 541 559 555 553 q 515 576 526 566 q 492 628 492 600 q 503 653 492 647 q 593 734 555 681 q 636 849 634 791 q 609 933 638 906 q 530 961 579 961 q 442 939 481 961 q 374 880 403 917 q 313 690 313 800 q 363 537 313 618 q 409 469 385 503 q 456 400 434 435 q 505 253 505 318 q 482 143 505 188 q 420 65 458 98 q 230 -7 336 -7 q 75 53 130 -7 q 32 157 32 101 q 66 260 32 218 q 117 298 93 292 q 171 264 171 313 z "},"T":{"ha":655,"x_min":86,"x_max":877,"o":"m 827 927 q 817 920 827 927 q 781 906 807 913 q 711 899 755 899 q 597 905 667 899 q 564 802 581 861 l 486 536 q 178 0 342 58 q 149 -5 167 -5 q 120 0 131 -5 q 101 11 109 4 q 86 35 86 23 q 92 52 86 47 l 110 62 q 289 401 208 126 l 338 567 q 460 918 404 790 q 379 922 407 922 q 264 900 299 922 q 215 851 229 878 q 201 815 201 825 q 189 791 199 796 q 164 786 178 786 q 134 797 149 786 q 108 823 118 807 q 91 898 86 857 q 118 970 96 940 q 172 1019 141 1000 q 294 1055 230 1055 q 415 1048 358 1055 q 530 1034 473 1042 q 722 1013 681 1013 q 784 1018 764 1013 q 818 1032 804 1023 q 838 1045 832 1042 q 857 1048 844 1048 q 874 1017 877 1048 q 859 964 871 986 q 827 927 847 942 z "},"U":{"ha":867,"x_min":28,"x_max":972,"o":"m 699 178 q 747 113 699 113 q 799 125 776 113 q 829 137 823 137 q 844 122 844 137 q 780 22 844 62 q 697 -7 736 -7 q 634 2 658 -7 q 592 31 610 12 q 555 153 555 72 q 578 300 555 216 q 613 420 602 385 l 543 313 q 173 -7 323 -7 q 38 79 71 -7 q 28 127 28 106 l 28 153 q 123 467 28 239 l 264 795 q 305 916 305 892 q 297 950 305 939 q 279 968 289 962 l 260 982 q 252 998 252 987 q 263 1020 252 1009 q 292 1039 274 1031 q 361 1055 327 1055 q 414 1047 395 1055 q 445 1029 433 1040 q 469 976 469 1007 q 457 901 469 944 q 426 808 445 859 q 381 701 406 758 l 278 475 q 180 189 180 258 l 180 178 q 229 114 180 114 q 461 338 318 114 q 547 479 504 405 l 629 631 q 834 1023 807 975 q 873 1047 848 1047 q 915 1040 898 1047 q 944 1021 932 1033 q 958 967 972 994 q 802 574 894 844 q 699 178 699 277 z "},"V":{"ha":816,"x_min":47,"x_max":970,"o":"m 110 64 q 103 79 110 64 q 87 126 95 94 q 80 196 80 159 q 93 292 80 232 q 127 417 105 351 q 177 553 149 484 q 239 688 206 622 q 371 925 305 825 l 363 925 q 214 888 283 925 q 181 876 197 876 q 118 907 149 876 q 202 1031 47 982 q 319 1055 275 1055 q 391 1041 363 1055 q 437 1008 418 1027 q 479 949 467 978 q 492 898 492 920 q 478 839 492 876 q 445 760 465 802 l 399 670 q 350 572 374 623 q 301 469 326 520 q 258 368 277 417 q 216 183 216 259 q 225 107 216 137 q 298 206 255 155 l 393 313 q 608 549 558 490 q 785 806 724 685 q 810 893 810 854 q 770 1002 810 966 q 767 1037 756 1017 q 788 1067 777 1057 q 848 1091 814 1091 q 904 1078 881 1091 q 941 1043 927 1064 q 970 940 970 1002 q 944 810 970 879 q 876 676 918 742 q 780 550 833 611 q 669 433 726 488 l 465 239 q 340 111 372 146 q 264 24 281 45 q 233 -1 247 3 q 197 -5 220 -5 q 150 15 174 -5 q 110 64 125 35 z "},"W":{"ha":1308,"x_min":31,"x_max":1352,"o":"m 240 14 q 192 -5 227 -5 q 134 14 158 -5 q 95 61 111 33 q 64 175 64 118 q 76 292 64 232 q 111 417 89 351 q 161 553 132 484 q 222 688 190 622 q 355 925 289 825 l 347 925 q 197 888 267 925 q 165 876 180 876 q 102 907 132 876 q 186 1031 31 982 q 303 1055 258 1055 q 374 1041 347 1055 q 420 1008 401 1027 q 463 949 450 978 q 475 898 475 920 q 462 839 475 876 q 429 760 449 802 l 382 670 q 334 572 358 623 q 285 469 309 520 q 241 368 260 417 q 200 183 200 259 q 208 111 200 141 l 279 229 q 708 755 496 579 q 826 834 768 806 q 848 839 836 839 q 876 836 861 839 q 903 827 890 833 q 933 792 933 812 q 926 774 933 783 l 903 749 q 720 347 767 605 q 705 221 705 268 q 708 158 705 175 q 719 126 711 141 q 774 92 737 92 q 855 119 810 92 q 946 194 900 146 q 1035 306 991 241 q 1111 443 1078 370 q 1185 752 1185 605 q 1135 944 1185 865 q 1162 997 1122 964 q 1253 1031 1202 1031 q 1344 911 1320 1031 q 1352 808 1352 872 q 1337 668 1352 745 q 1293 518 1321 591 q 1226 378 1265 446 q 1143 253 1188 311 q 1046 147 1097 195 q 943 65 996 99 q 736 -7 833 -7 q 602 64 646 -7 q 564 219 564 125 q 624 522 564 375 q 514 392 568 459 q 329 143 381 218 l 240 14 z "},"X":{"ha":768,"x_min":-139,"x_max":961,"o":"m 583 -7 q 325 342 400 -7 q 149 119 248 226 q -40 -6 29 -6 q -96 7 -79 -6 q -96 62 -139 41 q -18 118 -71 73 q 87 216 36 163 q 292 479 212 345 q 258 714 266 599 q 250 856 250 829 q 253 924 250 900 q 271 973 256 948 q 307 1016 286 998 q 408 1055 352 1055 q 423 1048 419 1055 q 427 1031 427 1042 q 420 966 427 1013 q 406 806 406 874 q 415 618 406 707 l 541 792 q 827 1048 707 1021 q 844 1052 835 1050 q 867 1055 853 1055 q 898 1050 880 1055 q 930 1040 916 1046 q 949 1002 961 1023 q 938 994 947 998 q 914 981 929 989 q 828 924 869 957 q 539 609 718 844 l 444 479 q 593 130 504 205 q 634 113 614 113 q 666 116 654 113 q 688 125 678 120 l 705 133 q 719 137 712 137 q 733 122 733 137 q 672 22 733 64 q 583 -7 631 -7 z "},"Y":{"ha":806,"x_min":24,"x_max":968,"o":"m 176 178 q 224 114 176 114 q 457 338 314 114 q 543 479 500 405 l 625 631 q 830 1023 803 975 q 869 1047 844 1047 q 911 1040 894 1047 q 940 1021 928 1033 q 954 967 968 994 q 866 770 907 879 l 696 297 q 640 158 669 225 q 575 26 611 92 q 497 -100 538 -40 q 410 -211 456 -159 q 317 -300 365 -262 q 124 -380 216 -380 q 90 -372 106 -380 q 69 -349 73 -363 q 74 -328 66 -334 q 96 -317 82 -323 q 449 56 283 -248 q 539 242 498 145 q 600 406 587 368 l 532 302 q 169 -7 318 -7 q 34 81 68 -7 q 24 129 24 109 l 24 155 q 119 467 24 237 l 260 795 q 301 916 301 893 q 293 950 301 939 q 275 968 285 962 l 256 982 q 248 998 248 987 q 259 1020 248 1009 q 288 1039 270 1031 q 357 1055 323 1055 q 410 1047 391 1055 q 441 1029 429 1040 q 465 976 465 1007 q 453 901 465 944 q 421 808 441 859 q 377 701 402 758 l 274 475 q 176 189 176 258 l 176 178 z "},"Z":{"ha":696,"x_min":-17,"x_max":831,"o":"m 650 23 q 625 -7 650 -7 q 593 3 610 -7 q 423 50 541 50 q 202 22 306 50 l 150 8 q 64 -7 93 -7 q 23 3 35 -7 q 3 28 12 13 q -17 85 -17 61 q -9 129 -17 109 q 29 197 -1 150 q 103 301 60 244 q 199 420 146 357 l 308 547 l 528 791 l 689 965 l 598 930 q 355 863 422 863 q 252 876 288 863 q 195 921 216 889 q 176 1022 176 946 q 194 1054 176 1053 q 226 1048 212 1055 q 260 1032 240 1041 q 380 1008 313 1008 q 499 1016 448 1008 q 591 1031 550 1023 l 663 1047 q 715 1055 694 1055 q 755 1041 735 1055 q 792 1010 776 1028 q 831 944 831 968 q 806 881 831 920 q 738 793 781 842 q 640 686 695 743 q 283 316 338 377 q 113 97 159 179 q 416 178 241 154 q 492 184 465 184 q 538 181 519 184 q 573 169 557 178 q 633 104 606 151 q 650 23 650 71 z "},"[":{"ha":551,"x_min":-2,"x_max":728,"o":"m 287 -195 q 107 -236 287 -236 q 24 -225 42 -236 q 2 -204 7 -215 q -2 -182 -2 -194 q 6 -141 -2 -163 q 30 -76 15 -119 l 442 1119 l 471 1196 q 572 1236 486 1236 q 721 1218 701 1236 q 728 1201 728 1211 q 720 1186 728 1192 q 699 1178 711 1181 q 671 1170 686 1174 q 637 1160 655 1166 q 585 1105 604 1145 q 555 1028 574 1082 l 453 739 q 186 -52 199 -19 q 163 -143 163 -118 q 201 -163 163 -163 q 279 -180 256 -163 q 287 -195 287 -186 z "},"\\":{"ha":645,"x_min":65,"x_max":528,"o":"m 528 -205 q 503 -236 528 -236 q 408 -159 428 -236 l 72 1168 q 65 1213 65 1196 q 85 1236 65 1236 q 150 1218 121 1236 q 187 1169 180 1200 q 521 -158 514 -126 q 528 -205 528 -189 z "},"]":{"ha":548,"x_min":-84,"x_max":646,"o":"m 357 1195 q 537 1236 357 1236 q 620 1226 602 1236 q 642 1205 637 1215 q 646 1183 646 1194 q 638 1141 646 1163 q 614 1076 629 1120 l 202 -118 l 174 -195 q 73 -236 158 -236 q -77 -217 -57 -236 q -84 -201 -84 -210 q -75 -186 -84 -191 q -51 -177 -65 -181 q -21 -170 -37 -174 q 14 -159 -4 -166 q 66 -105 47 -145 q 96 -28 77 -81 l 198 262 q 465 1052 452 1019 q 488 1143 488 1118 q 450 1163 488 1163 q 366 1181 392 1163 q 357 1195 357 1187 z "},"^":{"ha":751,"x_min":112,"x_max":730,"o":"m 205 495 q 181 481 195 481 q 156 486 168 481 q 134 496 144 490 q 120 524 112 513 l 397 1041 q 438 1055 406 1055 q 479 1041 471 1055 l 722 524 q 714 501 730 513 q 667 481 686 481 q 637 495 647 481 l 435 844 l 205 495 z "},"_":{"ha":737,"x_min":-223,"x_max":692,"o":"m -178 -236 q -223 -202 -223 -236 q -205 -157 -223 -176 q -144 -122 -172 -122 l 655 -119 q 692 -153 692 -119 q 674 -200 692 -180 q 608 -236 642 -236 l -178 -236 z "},"`":{"ha":304,"x_min":51,"x_max":245,"o":"m 209 1060 q 203 932 203 947 q 222 831 203 878 q 245 784 245 795 q 237 767 245 773 q 211 760 229 760 q 164 781 193 760 q 111 834 136 801 q 51 992 52 913 q 71 1051 51 1030 q 156 1090 108 1090 q 204 1074 191 1090 q 209 1060 209 1068 z "},"a":{"ha":752,"x_min":37,"x_max":755,"o":"m 568 180 q 612 118 568 118 q 663 127 643 118 q 690 137 683 137 q 704 122 704 137 q 643 22 704 64 q 511 0 578 -22 q 446 67 467 16 q 436 115 436 94 q 443 190 436 151 q 286 12 380 61 q 207 -7 249 -7 q 134 11 165 -7 q 81 58 103 28 q 41 218 37 122 q 113 455 45 339 q 269 632 174 564 q 445 702 363 702 q 577 627 527 702 q 660 702 624 702 q 718 688 699 702 q 745 640 755 661 q 570 206 574 292 q 568 180 568 194 m 192 178 q 244 96 192 96 q 342 164 284 96 q 494 433 428 264 q 529 538 515 486 q 490 606 526 585 q 454 614 478 614 q 398 596 430 614 q 335 548 366 578 q 279 476 305 517 q 233 385 253 434 q 192 178 192 281 z "},"b":{"ha":730,"x_min":55,"x_max":679,"o":"m 55 193 q 61 268 55 232 q 76 340 66 304 q 96 414 85 377 l 172 646 q 286 1086 262 928 q 341 1143 293 1143 q 389 1128 370 1143 q 424 1066 425 1099 q 415 993 423 1034 q 393 905 406 953 q 363 806 380 858 q 295 612 317 671 l 256 511 q 353 636 315 602 q 508 702 427 702 q 666 578 627 702 q 679 471 679 535 q 660 345 679 408 q 610 228 642 282 q 535 131 578 174 q 446 57 493 87 q 254 -7 347 -7 q 107 50 161 -7 q 55 193 55 107 m 245 81 q 374 138 309 81 q 509 387 475 225 q 521 497 521 439 q 508 577 521 554 q 468 600 495 600 q 412 578 441 600 q 351 521 383 557 q 288 439 319 486 q 232 343 257 393 q 177 158 177 234 q 245 81 177 81 z "},"c":{"ha":646,"x_min":41,"x_max":634,"o":"m 43 234 q 62 352 45 293 q 108 463 79 410 q 177 559 137 515 q 263 635 216 603 q 469 702 361 702 q 620 613 580 702 q 633 541 634 581 q 620 467 632 500 q 589 407 608 433 q 506 347 548 347 q 437 373 459 347 q 425 425 417 395 q 437 441 427 434 q 463 464 447 448 q 509 572 507 510 q 457 614 510 614 q 338 550 400 614 q 210 312 247 457 q 222 127 177 186 q 294 94 248 94 q 441 148 370 94 q 477 182 463 165 q 502 200 490 200 q 521 189 513 200 q 529 160 529 178 q 493 81 529 120 q 271 -7 401 -7 q 100 56 161 -7 q 43 234 41 119 z "},"d":{"ha":774,"x_min":57,"x_max":901,"o":"m 726 137 q 741 122 741 137 q 680 22 741 64 q 605 -7 640 -7 q 548 1 569 -7 q 510 27 527 9 q 472 139 472 68 q 477 184 472 153 q 383 65 422 100 q 228 -7 304 -7 q 71 102 108 -7 q 57 202 57 142 q 75 324 57 262 q 125 441 94 386 q 198 545 157 497 q 286 628 240 593 q 465 702 385 702 q 593 637 545 702 q 771 1114 711 1041 q 824 1143 796 1143 q 894 1117 870 1143 q 901 1099 901 1108 q 890 1067 901 1090 q 859 990 880 1043 q 774 757 798 831 q 690 496 711 568 l 652 371 q 604 158 604 203 q 637 113 604 113 q 686 121 668 113 l 712 133 q 726 137 720 137 m 260 95 q 420 231 330 95 q 552 538 515 372 q 513 606 549 585 q 476 614 501 614 q 419 596 452 614 q 355 547 386 578 q 297 476 324 517 q 251 389 271 435 q 208 192 208 288 q 260 95 208 95 z "},"e":{"ha":655,"x_min":47,"x_max":631,"o":"m 52 237 q 71 350 54 296 q 117 455 88 404 q 183 550 145 505 q 267 629 222 595 q 463 702 363 702 q 617 606 578 702 q 630 529 631 574 q 613 447 629 485 q 568 379 597 410 q 499 323 539 348 q 413 282 460 299 q 207 247 317 248 q 203 218 204 237 q 208 176 203 199 q 224 134 212 153 q 294 94 248 94 q 448 140 373 94 q 491 172 474 155 q 519 189 507 189 q 541 174 532 189 q 550 141 550 159 q 530 79 550 105 q 275 -7 444 -7 q 115 53 176 -7 q 52 237 47 121 m 448 612 q 311 514 376 612 q 221 315 255 430 q 418 404 334 326 q 494 545 494 477 q 448 612 494 612 z "},"f":{"ha":547,"x_min":-28,"x_max":747,"o":"m -28 -149 q -6 -93 -28 -135 q 40 16 15 -50 q 89 153 66 81 q 136 305 112 224 l 189 484 l 118 465 q 75 493 92 465 q 71 511 71 500 q 87 535 71 521 q 127 561 103 549 q 224 598 174 585 l 231 617 q 266 735 249 674 q 301 855 282 797 q 343 966 319 913 q 399 1058 367 1019 q 576 1143 469 1143 q 701 1101 654 1143 q 747 987 747 1059 q 704 858 747 913 q 624 812 668 812 q 549 863 569 812 q 544 884 544 876 q 564 911 544 899 q 616 987 602 940 q 621 1017 621 1002 q 578 1072 621 1072 q 468 937 518 1072 q 438 846 453 896 l 374 630 q 464 640 436 640 q 514 633 492 640 q 553 615 536 627 q 593 550 593 589 q 555 511 593 511 l 469 515 q 339 509 399 515 l 283 312 q 194 21 229 112 q 127 -133 160 -70 q 35 -191 97 -191 q -28 -149 -28 -191 z "},"g":{"ha":732,"x_min":52,"x_max":749,"o":"m 446 148 q 218 -7 343 -7 q 65 114 104 -7 q 52 216 52 155 q 69 337 52 276 q 116 452 86 397 q 186 552 146 506 q 273 631 227 597 q 464 702 369 702 q 600 613 559 702 q 614 631 608 622 q 629 648 621 640 q 660 666 647 666 q 688 661 673 666 q 716 648 703 656 q 741 612 749 629 q 679 453 704 531 l 578 133 q 277 -338 460 -231 q 194 -371 229 -366 q 143 -371 159 -375 q 115 -359 127 -367 q 89 -329 89 -342 q 120 -300 89 -305 q 186 -274 152 -294 q 252 -226 221 -254 q 446 148 380 -107 m 243 383 q 234 359 243 383 q 215 283 225 334 q 205 199 205 232 q 207 150 205 167 q 215 120 209 133 q 255 92 229 92 q 307 110 281 92 q 361 161 333 129 q 418 238 390 194 q 473 333 447 282 q 553 548 530 446 q 530 587 549 567 q 460 624 491 624 q 397 605 429 624 q 338 552 366 585 q 286 476 310 519 q 243 383 261 432 z "},"h":{"ha":771,"x_min":-1,"x_max":716,"o":"m 538 574 q 405 460 501 574 l 349 391 l 240 249 q 178 125 201 174 l 142 46 q 117 5 127 17 q 89 -7 106 -7 q 54 0 71 -7 q 25 16 37 6 q -1 64 -1 38 q 14 104 -1 74 l 41 159 q 271 821 168 420 q 326 1086 309 968 q 381 1143 333 1143 q 433 1128 412 1143 q 471 1066 472 1099 q 461 991 469 1033 q 440 902 453 950 q 411 800 427 853 q 345 603 366 663 q 262 389 278 420 q 289 422 273 401 q 441 616 412 585 q 491 665 471 648 q 600 702 534 702 q 686 666 653 702 q 716 590 716 631 q 707 516 716 549 q 684 450 698 484 q 652 380 669 416 l 618 309 q 571 149 571 201 q 601 112 571 112 q 653 124 629 112 q 683 136 676 136 q 697 122 697 136 q 636 21 697 62 q 559 -7 594 -7 q 502 0 525 -7 q 462 24 479 7 q 422 132 422 60 q 472 324 422 208 l 545 480 q 566 549 566 524 q 538 574 566 574 z "},"i":{"ha":397,"x_min":38,"x_max":448,"o":"m 415 861 q 408 853 415 861 q 381 835 400 845 q 341 823 362 825 q 301 829 320 821 q 269 854 283 838 q 240 923 240 888 q 251 975 240 958 q 279 1003 262 992 q 341 1024 312 1024 q 386 1020 370 1024 q 415 1006 401 1016 q 448 952 448 984 q 439 898 448 920 q 415 861 430 877 m 276 127 q 294 104 294 127 q 266 41 294 73 q 157 -7 225 -7 q 49 57 78 -7 q 38 111 38 79 q 49 182 38 143 q 77 264 60 221 q 113 351 94 307 l 149 437 q 189 563 189 532 q 182 603 189 593 q 168 618 176 613 l 155 628 q 148 645 148 633 q 157 667 148 656 q 181 686 166 678 q 252 702 212 702 q 352 650 352 702 q 320 510 352 589 q 266 384 288 432 l 225 290 q 180 142 180 187 q 210 112 180 112 q 254 119 239 112 q 276 127 269 127 z "},"j":{"ha":391,"x_min":-240,"x_max":411,"o":"m 378 861 q 370 853 378 861 q 344 835 363 845 q 304 823 325 825 q 264 829 283 821 q 232 854 245 838 q 203 923 203 888 q 214 975 203 958 q 242 1003 225 992 q 303 1024 275 1024 q 348 1020 332 1024 q 378 1006 364 1016 q 411 952 411 984 q 402 898 411 920 q 378 861 393 877 m 244 702 q 337 650 337 702 q 262 261 337 508 q 49 -194 178 -17 q -164 -373 -53 -332 q -192 -378 -175 -378 q -225 -367 -210 -378 q -240 -343 -240 -357 q -222 -312 -240 -317 q -12 -68 -121 -279 q 138 341 84 119 q 174 572 174 482 q 153 618 174 604 l 140 628 q 133 645 133 633 q 143 667 133 656 q 168 686 153 678 q 244 702 201 702 z "},"k":{"ha":691,"x_min":-1,"x_max":701,"o":"m 498 -6 q 252 286 344 -6 q 193 165 216 220 l 152 73 q 119 14 134 35 q 85 -7 104 -7 q 50 0 66 -7 q 23 16 35 6 q -1 64 -1 38 q 14 104 -1 74 l 41 159 q 271 821 168 420 q 326 1086 309 968 q 381 1143 333 1143 q 429 1128 410 1143 q 464 1066 465 1099 q 455 990 463 1032 q 434 898 447 948 q 405 794 421 848 q 339 592 361 652 l 275 416 q 256 371 263 385 q 492 512 414 433 q 540 601 540 559 q 526 631 540 622 q 507 646 512 641 q 506 664 502 651 q 532 690 511 677 q 583 702 553 702 q 632 696 612 702 q 667 680 652 691 q 701 612 701 656 q 682 533 701 569 q 625 463 664 496 q 380 336 549 397 q 457 178 401 246 q 555 113 511 113 q 596 121 579 113 l 621 133 q 635 137 628 137 q 652 117 652 137 q 646 86 652 99 q 628 58 640 73 q 600 28 617 43 q 498 -6 555 -6 z "},"l":{"ha":388,"x_min":44,"x_max":447,"o":"m 82 27 q 74 36 82 27 q 55 72 65 45 q 44 136 44 100 q 61 233 44 172 q 103 372 77 294 l 160 541 q 300 1086 281 894 q 356 1143 307 1143 q 408 1128 387 1143 q 446 1062 447 1099 q 433 973 444 1025 q 403 858 421 920 q 361 727 385 796 l 267 452 q 186 149 186 217 q 216 112 186 112 q 268 124 245 112 q 298 136 292 136 q 313 122 313 136 q 251 21 313 62 q 175 -7 210 -7 q 120 1 141 -7 q 82 27 99 9 z "},"m":{"ha":1132,"x_min":1,"x_max":1078,"o":"m 560 574 q 416 460 521 574 q 303 326 338 371 l 242 249 q 180 125 203 174 l 144 46 q 119 5 130 17 q 91 -7 109 -7 q 56 0 73 -7 q 27 16 39 6 q 1 64 1 38 q 16 104 1 74 l 42 159 q 71 221 54 183 l 109 314 q 189 572 189 514 q 168 618 189 604 l 155 628 q 148 645 148 633 q 157 667 148 656 q 181 686 166 678 q 242 702 212 702 q 291 695 273 702 q 321 677 309 688 q 347 627 347 653 q 340 575 347 602 q 323 523 334 549 q 302 471 313 496 q 268 399 275 412 q 264 389 262 386 q 414 579 389 550 q 495 662 466 640 q 596 702 549 702 q 673 672 644 702 q 701 593 701 642 q 680 493 701 551 q 650 412 658 435 l 750 544 l 806 610 q 894 684 856 667 q 956 702 932 702 q 1003 693 980 702 q 1043 668 1027 684 q 1078 580 1078 635 q 1053 471 1078 527 q 1010 380 1029 416 q 975 309 992 345 q 926 149 926 201 q 956 112 926 112 q 1007 124 984 112 q 1038 136 1031 136 q 1052 122 1052 136 q 990 21 1052 62 q 915 -7 949 -7 q 859 1 880 -7 q 821 27 838 9 q 783 125 783 66 q 798 234 783 184 q 833 330 813 283 q 874 415 854 376 q 906 477 895 454 q 928 547 928 525 q 900 574 928 574 q 768 452 863 574 q 669 317 696 358 l 622 249 q 562 125 583 174 l 527 46 q 505 5 514 17 q 478 -7 495 -7 q 445 -1 461 -7 q 418 13 429 4 q 391 55 391 33 q 406 115 391 77 q 442 201 420 153 l 537 401 q 588 544 588 513 q 560 574 588 574 m 627 382 q 628 383 628 382 l 629 385 q 627 382 627 383 z "},"n":{"ha":779,"x_min":1,"x_max":725,"o":"m 538 574 q 478 533 517 574 q 411 460 439 493 l 353 391 l 242 249 q 180 125 203 174 l 144 46 q 119 5 130 17 q 91 -7 109 -7 q 56 0 73 -7 q 27 16 39 6 q 1 64 1 38 q 16 104 1 74 l 42 159 q 71 221 54 183 l 109 314 q 189 572 189 514 q 168 618 189 604 l 155 628 q 148 645 148 633 q 157 667 148 656 q 181 686 166 678 q 242 702 212 702 q 290 695 273 702 q 319 677 307 688 q 344 627 344 653 q 337 575 344 602 q 321 523 331 549 q 300 470 311 496 q 281 425 290 444 l 267 396 q 264 389 262 385 q 363 524 340 494 l 411 581 q 493 661 463 642 q 588 702 553 702 q 646 693 623 702 q 688 668 670 684 q 725 580 725 633 q 701 468 725 526 q 658 373 676 410 q 624 300 640 337 q 573 135 573 186 q 610 112 573 112 q 662 124 638 112 q 692 136 685 136 q 706 122 706 136 q 644 21 706 62 q 568 -7 603 -7 q 511 1 534 -7 q 471 24 488 8 q 431 125 431 60 q 480 321 431 203 q 531 432 516 402 l 554 480 q 575 549 575 524 q 538 574 575 574 z "},"o":{"ha":714,"x_min":49,"x_max":682,"o":"m 111 46 q 97 60 111 46 q 66 115 83 73 q 50 214 50 157 q 63 329 49 271 q 105 441 78 387 q 169 543 132 496 q 252 626 207 591 q 458 702 351 702 q 647 579 597 702 q 651 364 682 490 q 547 151 623 248 q 369 14 471 54 q 268 -7 317 -7 q 179 6 218 -7 q 111 46 140 19 m 241 375 q 231 350 241 375 q 209 272 220 325 q 197 172 197 219 q 212 98 198 125 q 257 71 226 71 q 318 93 288 71 q 377 149 349 114 q 431 231 406 184 q 475 327 456 277 q 515 521 516 436 q 484 616 515 595 q 450 624 472 624 q 399 604 428 624 q 342 550 371 584 q 288 471 314 516 q 241 375 261 425 z "},"p":{"ha":765,"x_min":-96,"x_max":713,"o":"m 170 64 q 141 -43 169 54 q 94 -197 113 -140 q 23 -355 51 -324 q -31 -380 1 -380 q -90 -342 -70 -380 q -96 -318 -96 -331 q -76 -260 -96 -304 q 67 180 -22 -149 q 115 357 103 311 l 136 442 q 161 556 157 526 q 157 599 165 587 q 140 618 150 612 q 123 629 131 625 q 116 647 115 634 q 127 670 117 659 q 152 688 137 680 q 213 702 182 702 q 262 694 244 702 q 291 674 279 687 q 313 623 315 648 q 298 533 306 570 q 544 702 416 702 q 699 582 660 702 q 713 479 713 540 q 694 358 713 419 q 645 243 676 298 q 572 143 614 189 q 485 64 531 98 q 300 -7 387 -7 q 170 64 214 -7 m 275 354 q 263 330 275 354 q 235 258 250 306 q 220 172 220 211 q 237 107 220 132 q 287 81 254 81 q 353 99 320 81 q 417 148 386 117 q 474 219 448 178 q 521 307 501 260 q 564 497 564 407 q 551 573 564 546 q 511 600 538 600 q 455 579 484 600 q 394 525 426 559 q 331 446 362 490 q 275 354 300 401 z "},"q":{"ha":741,"x_min":57,"x_max":759,"o":"m 604 612 q 684 652 652 652 q 722 638 703 652 q 753 591 759 611 q 747 574 751 584 l 738 551 q 718 501 728 524 q 690 442 707 479 q 545 78 576 170 q 500 -64 514 -14 q 469 -227 469 -177 q 477 -320 469 -297 q 483 -352 485 -342 q 473 -368 480 -361 q 435 -380 458 -380 q 394 -372 412 -380 q 362 -346 376 -363 q 334 -231 331 -306 q 427 81 335 -132 l 471 183 q 378 64 416 99 q 223 -7 299 -7 q 70 114 107 -7 q 57 216 57 155 q 75 337 57 276 q 124 452 93 397 q 196 552 155 506 q 283 631 237 597 q 468 702 380 702 q 604 612 555 702 m 256 95 q 416 231 326 95 q 547 538 510 372 q 509 606 545 585 q 472 614 496 614 q 414 596 447 614 q 351 547 381 578 q 294 476 321 517 q 248 389 268 435 q 206 193 206 290 q 256 95 206 95 m 598 606 q 596 604 597 606 l 598 606 z "},"r":{"ha":566,"x_min":20,"x_max":628,"o":"m 51 16 q 44 21 51 16 q 29 39 37 26 q 20 61 21 52 q 24 83 20 70 q 36 115 28 96 q 174 572 174 456 q 152 618 172 605 l 138 628 q 132 645 132 633 q 140 667 132 656 q 163 686 149 678 q 223 702 193 702 q 272 695 254 702 q 301 677 289 688 q 327 625 327 652 q 321 570 328 598 q 306 516 315 543 q 288 465 297 489 q 277 429 279 441 q 273 399 271 406 q 292 427 289 414 l 319 477 q 491 688 407 636 q 550 702 515 702 q 605 678 584 702 q 627 625 626 654 q 623 576 628 595 q 608 540 618 557 q 553 502 585 502 q 537 508 545 502 l 522 521 q 479 541 500 541 q 429 513 458 541 q 368 444 399 486 q 193 126 260 302 l 163 47 q 142 6 151 18 q 116 -7 134 -7 q 82 0 99 -7 q 51 16 64 6 z "},"s":{"ha":588,"x_min":16,"x_max":589,"o":"m 16 119 q 25 158 16 140 q 48 189 35 176 q 108 215 77 215 q 135 187 135 215 q 182 89 135 117 q 217 79 199 79 q 248 83 235 79 q 272 96 261 87 q 296 142 296 115 q 284 192 296 170 q 254 240 272 215 l 215 294 q 134 494 134 403 q 198 632 134 570 q 386 702 271 702 q 543 652 486 702 q 589 561 589 612 q 548 475 589 507 q 475 454 511 447 q 450 471 458 458 q 446 501 441 484 q 452 536 452 518 q 445 570 452 555 q 427 597 438 586 q 377 619 403 619 q 334 613 351 619 q 304 597 317 608 q 277 537 277 572 q 290 475 277 501 q 320 424 302 450 q 359 372 338 398 q 397 316 380 345 q 440 196 440 248 q 418 109 440 144 q 362 49 397 74 q 197 -6 288 -6 q 58 36 109 -6 q 16 119 16 71 z "},"t":{"ha":498,"x_min":43,"x_max":547,"o":"m 409 178 q 429 151 429 178 q 415 108 429 129 q 342 33 397 68 q 216 -7 279 -7 q 78 91 107 -7 q 182 583 43 207 q 97 610 104 589 q 95 623 95 616 q 101 640 95 630 q 118 658 108 649 q 166 677 142 677 l 220 677 q 324 873 293 849 q 357 884 339 884 q 388 879 376 884 q 410 865 400 874 q 431 820 431 845 q 423 789 431 806 l 373 680 l 389 680 q 457 680 431 680 q 496 681 457 680 q 528 682 509 682 q 547 667 547 682 q 336 578 547 578 l 330 578 l 284 458 q 206 162 206 247 q 217 125 206 138 q 258 112 228 112 q 312 122 288 112 q 355 145 336 132 q 386 168 373 157 q 409 178 399 178 z "},"u":{"ha":768,"x_min":33,"x_max":768,"o":"m 682 134 q 697 118 697 134 q 639 19 697 59 q 547 -7 600 -7 q 480 14 503 -7 q 439 103 439 50 q 495 309 439 170 q 349 121 391 168 q 275 49 307 75 q 153 -7 208 -7 q 41 66 68 -7 q 33 117 33 88 q 42 181 33 146 q 68 256 52 217 q 102 335 83 294 l 138 416 q 191 602 209 573 q 160 628 182 615 q 152 645 152 633 q 162 667 152 656 q 187 686 172 678 q 254 702 220 702 q 304 695 287 702 q 332 677 321 688 q 355 627 355 654 q 346 567 355 600 q 323 494 337 533 q 292 412 309 454 q 229 267 245 302 l 203 215 q 182 149 182 168 q 189 122 182 130 q 211 115 195 115 q 248 130 227 115 q 294 170 269 144 q 346 228 319 195 q 399 296 373 260 q 473 407 450 365 q 627 673 617 661 q 671 702 648 702 q 711 697 694 702 q 740 682 728 692 q 758 640 768 661 q 580 206 593 295 q 576 164 576 176 q 608 113 576 113 q 656 123 637 113 q 682 134 675 134 z "},"v":{"ha":709,"x_min":41,"x_max":692,"o":"m 52 66 q 41 119 41 88 q 51 186 41 149 q 75 262 60 223 q 109 340 90 300 l 143 419 q 193 602 210 574 q 161 628 184 615 q 154 645 154 633 q 164 667 154 656 q 190 686 174 678 q 256 702 222 702 q 306 695 289 702 q 335 677 323 688 q 357 623 357 654 q 345 551 357 591 q 314 467 332 511 q 274 376 296 422 l 234 288 q 191 157 191 189 q 235 95 191 95 q 448 229 349 95 q 530 399 505 307 q 542 478 542 442 q 539 537 542 513 q 532 579 537 561 q 502 635 523 612 q 515 677 488 653 q 600 702 545 702 q 659 670 633 702 q 692 561 692 632 q 671 422 692 490 q 613 291 650 354 q 527 174 576 229 q 419 80 477 120 q 172 -7 296 -7 q 52 66 83 -7 z "},"w":{"ha":1043,"x_min":48,"x_max":1023,"o":"m 274 78 q 227 37 274 78 q 129 -4 181 -4 q 56 50 76 -4 q 48 85 48 69 q 62 171 48 130 q 90 248 76 212 l 149 402 q 191 534 184 496 q 189 584 199 571 q 167 607 180 597 q 143 625 155 617 q 132 645 132 633 q 142 667 132 656 q 168 686 152 678 q 236 702 201 702 q 291 695 271 702 q 323 677 311 688 q 349 623 349 654 q 338 552 349 591 q 312 469 328 513 q 276 377 296 425 l 239 283 q 185 114 195 170 q 354 270 249 136 q 557 606 469 417 q 582 636 567 629 q 644 646 606 648 q 705 610 703 644 q 693 563 706 589 q 673 521 681 538 l 646 467 q 567 205 567 306 q 605 110 567 136 q 638 102 616 102 q 691 118 661 102 q 749 161 722 134 q 801 226 777 189 q 843 305 825 263 q 880 463 880 394 q 836 635 880 580 q 845 677 821 653 q 924 702 870 702 q 1013 628 989 702 q 1023 545 1023 600 q 1003 421 1023 489 q 950 290 983 353 q 872 173 916 227 q 781 79 829 119 q 589 -7 677 -7 q 438 189 438 -7 q 446 276 438 233 q 274 78 366 159 z "},"x":{"ha":649,"x_min":-33,"x_max":724,"o":"m 78 15 q 33 -6 49 -6 q 6 -2 17 -6 q -13 9 -4 3 q -33 40 -33 26 q -18 66 -33 54 q 23 99 -18 66 q 207 298 134 191 q 153 573 148 463 q 199 667 155 627 q 286 702 240 702 q 304 692 300 702 q 308 665 308 683 q 307 627 308 647 q 306 585 305 607 q 309 537 307 563 q 322 429 316 468 l 345 467 q 525 661 422 589 q 625 702 583 702 q 684 691 663 702 q 711 650 724 671 q 703 644 709 646 l 686 636 q 412 407 578 589 q 352 334 378 369 l 376 255 q 480 113 420 113 q 524 121 507 113 l 548 132 q 562 135 555 135 q 576 121 576 135 q 515 20 576 61 q 423 -7 475 -7 q 243 199 323 -7 q 78 15 157 73 z "},"y":{"ha":764,"x_min":39,"x_max":774,"o":"m 47 66 q 39 117 39 88 q 49 181 39 146 q 75 256 59 217 q 109 335 90 294 l 145 416 q 197 602 216 573 q 167 628 189 615 q 159 645 159 633 q 169 667 159 656 q 194 686 178 678 q 260 702 227 702 q 311 695 294 702 q 339 677 328 688 q 361 627 361 654 q 353 567 361 600 q 330 494 344 533 q 298 412 315 454 q 235 267 252 302 l 210 215 q 189 149 189 168 q 195 122 189 130 q 217 115 201 115 q 253 127 233 115 q 294 159 272 139 q 341 207 317 180 q 388 262 365 233 q 477 391 448 337 q 633 673 624 661 q 678 702 655 702 q 718 697 701 702 q 747 682 734 692 q 763 638 774 663 q 738 571 753 614 q 571 105 609 197 q 504 -43 532 13 q 437 -156 475 -99 q 355 -260 399 -213 q 170 -373 256 -366 q 117 -363 136 -376 q 83 -325 83 -343 q 114 -299 83 -307 q 177 -271 144 -292 q 241 -221 210 -250 q 380 -35 330 -136 q 448 132 422 53 l 500 293 q 457 237 481 269 l 408 172 q 302 58 345 92 q 159 -7 222 -7 q 47 66 75 -7 z "},"z":{"ha":597,"x_min":-15,"x_max":627,"o":"m 156 109 q 366 147 270 147 q 466 111 431 147 q 498 23 498 79 q 490 2 498 10 q 468 -7 481 -7 q 439 1 454 -7 q 405 17 425 8 q 123 7 277 75 q 89 -6 103 -2 q 57 -1 75 -9 q 24 20 39 7 q -3 88 -15 54 q 34 161 8 121 q 94 240 60 201 q 168 317 128 279 q 317 453 271 414 q 447 565 423 543 q 478 600 470 587 q 321 562 418 572 q 279 559 296 559 q 180 585 210 559 q 151 660 151 610 q 159 691 151 680 q 180 702 168 702 q 211 695 192 702 q 258 679 231 688 q 386 656 331 656 q 463 661 441 656 q 501 673 484 667 l 532 685 q 561 690 547 690 q 586 681 575 690 q 607 659 597 672 q 627 604 627 630 q 599 539 627 577 q 526 460 570 502 q 427 374 481 418 l 319 286 q 156 109 195 180 m 147 91 q 149 92 149 92 q 147 91 147 92 z "},"{":{"ha":590,"x_min":71,"x_max":765,"o":"m 204 -236 q 71 -117 71 -236 q 136 130 71 -37 l 170 218 q 205 366 205 310 q 144 476 205 463 q 135 492 135 479 q 138 518 135 506 q 148 541 142 530 q 186 567 163 566 q 376 772 306 574 q 409 880 396 829 q 432 974 409 880 q 524 1183 469 1123 q 644 1236 572 1236 q 760 1220 745 1236 q 765 1206 765 1214 q 704 1168 765 1168 q 646 1138 670 1168 q 602 1061 621 1108 q 568 955 583 1013 l 540 840 q 260 496 456 503 q 342 351 342 463 q 300 172 342 275 q 218 -111 218 -28 q 258 -170 218 -170 q 308 -199 308 -170 q 204 -236 308 -236 z "},"|":{"ha":426,"x_min":173,"x_max":299,"o":"m 299 675 l 298 357 l 298 -132 q 269 -209 298 -178 q 207 -236 241 -236 q 174 -181 176 -236 q 173 -144 173 -164 l 173 1133 q 200 1205 173 1173 q 262 1236 227 1236 q 294 1204 287 1236 q 299 1130 299 1177 l 299 675 z "},"}":{"ha":590,"x_min":-89,"x_max":606,"o":"m -89 -205 q -28 -168 -89 -168 q 107 45 54 -168 l 136 161 q 416 505 220 498 q 334 650 334 538 q 377 829 334 726 q 458 1112 458 1029 q 418 1170 458 1170 q 368 1200 368 1170 q 472 1236 368 1236 q 606 1118 606 1236 q 541 871 606 1037 l 507 782 q 471 634 471 690 q 532 524 471 538 q 541 508 541 522 q 538 483 541 494 q 528 460 534 471 q 490 433 513 435 q 264 109 340 425 q 244 26 254 68 q 221 -54 234 -15 q 191 -125 208 -92 q 152 -183 174 -159 q 32 -236 103 -236 q -83 -220 -69 -236 q -89 -205 -89 -214 z "},"~":{"ha":867,"x_min":85,"x_max":839,"o":"m 122 355 q 113 355 122 355 q 95 365 104 355 q 86 399 85 374 q 99 452 87 424 q 130 507 111 481 q 174 557 149 534 q 228 598 199 581 q 339 636 290 636 q 419 624 389 636 q 472 594 450 612 q 513 554 495 576 q 548 515 531 533 q 621 473 588 473 q 677 485 654 473 q 717 517 699 497 q 762 582 746 549 q 787 621 778 615 q 808 627 797 627 q 829 617 819 627 q 838 583 839 608 q 825 530 836 558 q 794 475 814 501 q 750 425 775 448 q 696 384 724 401 q 583 346 633 346 q 504 358 533 346 q 451 388 474 370 q 410 428 428 406 q 376 467 393 449 q 303 509 336 509 q 248 497 270 509 q 209 465 227 484 q 178 422 191 446 l 151 378 q 122 355 139 355 z "},"":{"ha":408,"x_min":0,"x_max":0,"o":""},"":{"ha":580,"x_min":38,"x_max":532,"o":"m 319 720 q 427 800 349 795 q 502 768 471 800 q 532 701 532 736 q 522 646 532 666 q 497 614 512 626 q 441 592 471 592 q 391 596 412 592 q 353 609 370 600 q 310 671 310 631 q 319 720 310 698 m 227 387 q 298 484 264 449 q 349 518 333 518 q 372 509 366 518 q 378 487 378 500 q 368 449 378 473 q 327 336 358 424 q 266 138 296 249 q 218 -56 235 27 q 185 -275 196 -165 q 151 -314 182 -314 q 69 -265 102 -314 q 38 -171 38 -220 q 91 89 38 -69 q 227 387 144 248 z "},"":{"ha":677,"x_min":104,"x_max":671,"o":"m 540 728 q 494 770 540 770 q 383 706 441 770 q 267 468 300 614 q 258 371 258 423 q 285 284 258 318 q 359 250 313 250 q 445 274 406 250 q 528 341 485 298 q 550 351 538 351 q 571 336 562 351 q 581 302 581 321 q 551 235 581 260 q 344 149 454 149 l 332 149 q 286 34 294 63 q 267 -1 279 5 q 239 -7 254 -7 q 212 -2 224 -7 q 197 12 199 3 q 233 170 191 46 q 104 387 104 223 q 210 700 104 562 q 372 830 277 788 q 469 856 418 850 l 492 922 q 624 1059 538 1059 q 671 1034 671 1059 q 655 997 671 1021 q 568 845 620 945 q 661 684 661 806 q 621 559 661 617 q 538 503 582 503 q 480 529 505 503 q 460 581 456 555 q 471 597 461 590 q 496 620 481 604 q 540 728 540 667 z "},"":{"ha":924,"x_min":-33,"x_max":939,"o":"m 507 427 l 469 426 l 426 314 q 383 214 405 260 l 438 183 q 621 128 534 128 q 778 181 734 128 q 798 191 786 191 q 818 177 809 191 q 829 136 827 163 q 816 80 831 109 q 775 31 802 51 q 655 -7 723 -7 q 545 6 587 -7 q 468 38 503 18 q 400 80 432 57 l 336 125 q 168 0 274 28 q 107 -7 140 -7 q 47 3 75 -7 q 2 30 20 13 q -33 103 -33 63 q -19 172 -33 143 q 20 225 -5 201 q 153 277 75 277 q 250 264 198 277 q 277 338 263 299 l 304 417 q 236 406 264 412 q 198 408 209 400 q 182 426 188 415 q 177 449 177 437 q 183 466 177 461 q 204 477 189 471 q 239 488 219 483 q 335 508 281 500 q 574 975 454 857 q 763 1059 659 1059 q 902 996 857 1059 q 939 858 939 943 q 871 658 939 760 q 785 570 830 597 q 743 557 762 557 q 707 565 723 557 q 678 586 690 574 q 653 634 653 612 q 664 662 653 655 q 817 820 776 732 q 831 878 831 850 q 764 965 831 965 q 567 689 676 965 l 505 527 q 555 528 530 528 q 604 521 581 528 q 642 503 627 514 q 677 457 673 481 q 636 420 686 414 q 507 427 590 427 m 213 180 q 149 190 179 189 q 105 184 119 191 q 81 169 90 178 q 62 128 62 151 q 74 91 62 106 q 112 77 85 77 q 213 180 162 77 z "},"":{"ha":795,"x_min":63,"x_max":832,"o":"m 475 188 q 345 156 412 156 q 229 184 277 156 l 179 130 q 146 88 157 104 q 113 66 131 66 q 73 88 87 66 q 102 160 63 104 l 132 201 q 167 247 148 224 q 138 361 138 301 q 151 468 138 422 q 185 557 163 514 q 308 710 232 649 q 285 815 285 785 q 292 865 285 845 q 311 899 300 885 q 356 930 334 929 q 386 923 377 932 q 397 891 395 915 q 414 768 403 825 q 507 783 457 783 q 599 763 556 783 q 637 803 618 785 l 673 838 q 770 880 720 880 q 817 869 802 880 q 832 848 832 858 q 806 812 832 829 q 671 698 747 770 q 705 559 705 642 q 617 311 705 431 q 555 243 589 274 q 571 196 564 218 q 605 94 603 108 q 603 73 606 79 q 593 61 600 66 q 567 50 580 50 q 533 68 543 50 l 475 188 m 282 333 q 343 231 282 231 q 441 296 389 231 q 549 526 518 390 q 559 595 559 567 q 557 643 559 624 q 548 677 555 663 q 498 709 534 709 q 407 647 458 709 q 293 418 324 549 q 282 333 282 374 z "},"":{"ha":810,"x_min":78,"x_max":990,"o":"m 579 260 q 613 261 595 261 q 631 247 631 261 q 439 158 631 168 q 417 87 426 118 l 405 44 q 324 -6 392 -6 q 286 4 298 -6 q 277 38 273 14 q 306 158 281 80 q 129 187 141 163 q 125 202 125 194 q 131 219 125 210 q 148 237 138 229 q 199 257 172 257 l 263 257 q 337 258 300 257 q 355 348 353 312 q 176 377 189 353 q 172 392 172 384 q 179 409 172 399 q 195 427 185 418 q 245 447 219 447 l 304 447 q 370 448 336 447 q 278 774 360 600 q 202 905 233 871 q 157 938 172 938 q 135 935 143 938 q 123 929 127 932 q 99 922 111 922 q 83 929 88 922 q 78 946 78 936 q 90 976 78 956 q 121 1012 101 995 q 212 1052 168 1052 q 286 1029 256 1052 q 340 967 316 1006 q 384 876 365 928 q 418 765 404 824 q 457 524 447 649 l 536 670 q 772 989 652 878 q 860 1052 831 1044 q 905 1061 889 1061 q 937 1056 922 1061 q 964 1043 953 1050 q 989 1013 990 1027 q 985 992 988 999 q 976 980 982 986 q 960 966 969 974 q 928 939 950 959 q 858 871 905 918 q 757 760 810 823 q 549 449 628 606 q 580 449 566 449 l 632 450 q 662 451 645 451 q 679 437 679 451 q 575 359 679 382 q 506 349 543 352 q 490 307 498 330 q 473 259 490 307 q 534 260 503 259 q 579 260 534 260 z "},"":{"ha":406,"x_min":153,"x_max":279,"o":"m 279 1015 l 278 817 l 278 682 q 248 605 278 635 q 186 578 220 578 q 153 633 155 578 q 153 670 153 650 l 153 1133 q 180 1205 153 1173 q 242 1236 206 1236 q 273 1204 267 1236 q 279 1117 279 1177 l 279 1015 m 279 201 l 278 3 l 278 -132 q 248 -209 278 -178 q 186 -236 220 -236 q 153 -181 155 -236 q 153 -144 153 -164 l 153 319 q 180 391 153 359 q 242 422 206 422 q 273 391 267 422 q 279 303 279 363 l 279 201 z "},"":{"ha":811,"x_min":7,"x_max":838,"o":"m 440 79 q 467 -47 467 12 q 446 -151 467 -106 q 391 -229 426 -196 q 205 -298 315 -298 q 58 -248 114 -298 q 7 -140 7 -204 q 42 -37 7 -79 q 123 3 79 7 q 153 -34 160 1 q 146 -81 146 -52 q 151 -132 146 -110 q 165 -171 155 -154 q 224 -208 188 -208 q 280 -198 261 -208 q 311 -172 299 -188 q 330 -99 330 -142 q 315 -20 330 -56 q 278 50 300 15 q 230 123 256 85 q 181 202 203 160 q 129 400 129 300 q 197 570 129 494 q 366 665 267 647 q 319 839 319 766 q 341 965 319 911 q 403 1057 363 1019 q 608 1137 486 1137 q 787 1063 724 1137 q 838 916 838 1002 q 788 781 838 842 q 669 716 736 716 q 617 732 635 716 q 589 785 589 760 q 602 810 589 800 q 635 836 602 810 q 708 997 737 916 q 618 1057 686 1057 q 517 1002 557 1057 q 478 874 478 949 q 581 608 478 795 q 684 321 684 420 q 610 159 684 229 q 440 79 541 93 m 399 161 q 433 158 412 158 q 473 169 454 158 q 506 198 493 180 q 534 274 534 233 q 522 354 534 315 q 491 431 510 392 q 449 511 472 471 l 403 593 q 316 534 351 582 q 281 442 281 487 q 292 362 281 397 q 320 295 303 328 q 359 229 338 262 q 399 161 380 196 z "},"":{"ha":573,"x_min":55,"x_max":575,"o":"m 542 859 q 534 851 542 859 q 508 833 527 843 q 468 821 489 823 q 428 827 447 819 q 396 852 410 836 q 367 921 367 886 q 378 973 367 956 q 406 1001 389 990 q 468 1022 439 1022 q 512 1018 496 1022 q 543 1004 528 1014 q 575 950 575 982 q 566 896 575 918 q 542 859 557 875 m 230 859 q 222 851 230 859 q 196 833 215 843 q 156 821 177 823 q 116 827 135 819 q 84 852 98 836 q 55 921 55 886 q 66 973 55 956 q 94 1001 77 990 q 156 1022 127 1022 q 200 1018 184 1022 q 231 1004 216 1014 q 263 950 263 982 q 254 896 263 918 q 230 859 245 875 z "},"":{"ha":1211,"x_min":107,"x_max":1159,"o":"m 233 103 q 140 245 174 162 q 107 420 107 328 q 129 593 107 513 q 190 745 151 673 q 285 875 230 816 q 406 977 340 935 q 706 1068 547 1068 q 1032 945 906 1068 q 1159 619 1159 820 q 1076 303 1159 453 q 861 71 996 157 q 560 -20 720 -20 q 233 103 359 -20 m 224 434 q 247 298 224 362 q 312 187 269 234 q 554 87 403 87 q 801 162 685 87 q 977 354 911 234 q 1042 611 1042 476 q 955 861 1042 763 q 712 962 864 962 q 465 886 581 962 q 290 694 355 814 q 224 434 224 573 m 769 362 q 792 321 792 362 q 719 233 792 273 q 603 203 663 203 q 500 219 542 203 q 429 264 458 235 q 368 420 368 323 q 487 739 368 604 q 643 848 557 817 q 728 862 685 862 q 802 847 771 862 q 852 810 833 833 q 887 710 887 767 q 872 615 887 654 q 836 548 858 577 q 737 482 786 482 q 691 500 707 482 q 664 549 664 530 q 673 574 664 568 q 783 688 753 623 q 792 729 792 709 q 739 782 792 782 q 629 720 686 782 q 517 496 547 631 q 508 422 508 455 q 513 366 508 390 q 530 324 519 342 q 597 288 555 288 q 739 347 668 288 q 769 362 757 362 z "},"":{"ha":784,"x_min":148,"x_max":784,"o":"m 619 562 q 659 505 619 505 q 702 513 684 505 q 726 522 720 522 q 739 509 739 522 q 682 419 739 456 q 612 395 644 395 q 564 401 581 395 q 533 422 547 408 q 502 517 502 454 q 508 569 502 529 q 370 412 452 456 q 300 395 337 395 q 235 410 262 395 q 188 452 207 425 q 150 578 148 509 q 170 701 153 648 q 214 801 186 754 q 277 888 241 848 q 353 958 313 928 q 511 1019 437 1019 q 626 952 584 1019 q 699 1019 667 1019 q 750 1006 732 1019 q 774 964 784 983 q 620 582 625 657 l 619 562 m 328 493 q 463 613 385 493 q 576 867 538 730 q 542 933 573 911 q 512 941 531 941 q 468 924 493 941 q 417 880 442 908 q 368 815 391 852 q 327 736 345 778 q 288 569 288 646 q 328 493 288 493 z "},"":{"ha":920,"x_min":95,"x_max":856,"o":"m 839 717 q 856 696 856 717 q 812 612 856 646 l 589 439 l 770 237 q 781 214 781 225 q 775 194 781 202 q 761 180 770 186 q 720 167 741 167 q 660 189 682 167 l 471 387 q 441 442 441 420 q 458 483 441 464 q 511 522 476 501 l 815 708 q 839 717 829 717 m 493 717 q 510 696 510 717 q 466 612 510 646 l 243 439 l 424 237 q 435 214 435 225 q 430 194 435 202 q 415 180 424 186 q 374 167 395 167 q 314 189 336 167 l 125 387 q 95 442 95 420 q 113 483 95 464 q 165 522 130 501 l 469 708 q 493 717 483 717 z "},"":{"ha":1014,"x_min":107,"x_max":890,"o":"m 154 433 q 107 469 107 433 q 122 509 107 492 q 176 538 150 540 l 845 538 q 883 509 880 537 q 890 478 890 497 l 877 162 q 849 109 877 131 q 792 88 823 88 q 751 126 751 88 l 770 433 l 154 433 z "},"":{"ha":1158,"x_min":0,"x_max":0,"o":""},"":{"ha":1031,"x_min":129,"x_max":995,"o":"m 494 156 q 351 183 419 156 q 233 258 282 210 q 129 527 129 361 q 197 787 129 663 q 375 979 264 907 q 622 1054 490 1054 q 890 952 786 1054 q 995 684 995 850 q 926 423 995 547 q 749 231 861 304 q 494 156 633 156 m 492 245 q 604 261 552 245 q 701 307 656 277 q 782 377 745 336 q 845 465 819 417 q 900 677 900 565 q 827 883 900 804 q 627 965 753 965 q 342 834 461 965 q 224 534 224 705 q 297 327 224 407 q 492 245 371 245 m 467 445 q 453 423 467 445 q 417 383 439 401 q 365 364 395 364 q 334 381 334 364 q 355 430 334 394 q 390 512 375 467 q 415 599 404 558 q 438 672 427 640 q 467 723 449 705 q 525 756 500 756 q 549 743 549 756 q 552 740 549 741 q 551 729 554 738 q 520 620 532 666 q 661 699 634 629 q 669 736 669 718 q 663 766 669 755 q 649 785 658 777 q 518 787 604 823 q 482 769 499 779 l 452 750 q 439 747 447 747 q 423 751 432 747 q 406 762 414 755 q 388 792 388 778 q 405 822 388 807 q 450 850 422 837 q 573 881 517 881 q 664 872 629 881 q 723 846 699 863 q 775 739 775 809 q 729 633 775 684 q 611 561 682 581 q 635 525 624 546 l 659 484 q 705 431 687 435 q 730 424 722 427 q 739 413 739 421 q 732 397 739 406 q 715 381 725 388 q 664 366 690 366 q 621 377 638 366 q 590 408 603 389 q 569 450 578 427 l 552 495 q 512 566 530 550 q 467 445 494 489 m 586 579 q 587 579 586 579 q 586 579 586 579 z "},"":{"ha":545,"x_min":94,"x_max":581,"o":"m 94 833 q 113 881 94 859 q 186 921 151 921 l 543 928 q 581 900 581 929 q 557 848 581 873 q 493 802 517 802 q 440 803 469 802 q 378 803 412 803 q 307 804 344 804 l 233 807 q 122 811 151 809 q 94 833 94 814 z "},"":{"ha":564,"x_min":153,"x_max":602,"o":"m 333 604 q 153 772 153 604 q 153 785 153 779 q 176 886 153 837 q 235 972 199 936 q 429 1055 316 1055 q 589 962 552 1055 q 602 902 602 928 l 602 870 q 579 771 602 821 q 522 685 557 721 q 333 604 444 604 m 336 671 q 429 745 387 671 q 471 876 467 813 q 462 963 476 939 q 422 987 448 987 q 374 971 397 987 q 332 926 352 955 q 281 767 288 863 q 336 671 274 671 z "},"":{"ha":858,"x_min":95,"x_max":783,"o":"m 418 220 q 386 258 386 220 l 386 518 l 142 518 q 95 551 95 518 q 110 590 95 574 q 164 616 138 618 l 386 616 l 386 838 q 401 880 385 864 q 451 907 428 907 q 484 861 484 907 l 484 616 l 745 616 q 783 585 783 616 q 768 545 783 561 q 709 518 740 518 l 484 518 l 484 294 q 468 247 484 262 q 418 220 441 220 m 745 98 q 783 66 783 98 q 768 27 783 43 q 709 0 740 0 l 142 0 q 95 33 95 0 q 110 72 95 56 q 164 98 138 100 l 745 98 z "},"":{"ha":636,"x_min":101,"x_max":657,"o":"m 252 425 q 325 444 290 444 l 420 444 q 534 484 488 444 q 551 483 541 490 q 561 458 561 476 q 529 363 561 397 q 441 329 496 329 q 376 339 412 329 q 284 358 307 358 q 245 355 262 358 q 215 346 229 351 q 178 331 190 337 q 157 323 163 323 q 140 330 150 323 q 121 347 130 337 q 104 392 101 370 q 128 441 108 414 q 178 498 148 469 q 247 559 209 528 q 396 687 357 650 q 464 760 435 724 q 528 907 528 838 q 481 975 528 960 q 449 979 467 979 q 414 970 431 979 q 383 947 396 961 q 356 888 356 918 q 375 813 356 829 q 389 797 389 806 q 382 779 389 788 q 364 761 375 769 q 321 740 338 740 q 283 745 302 740 q 222 855 222 773 q 285 989 222 929 q 452 1055 353 1055 q 616 996 561 1055 q 657 885 657 951 q 633 769 657 819 q 570 680 608 720 q 485 608 532 640 l 393 547 q 310 488 348 517 q 252 425 273 458 z "},"":{"ha":598,"x_min":106,"x_max":656,"o":"m 477 667 q 547 551 547 625 q 469 399 547 469 q 273 326 387 326 q 149 370 197 326 q 106 464 106 411 q 123 525 106 502 q 193 568 157 568 q 245 556 230 568 q 253 528 260 543 q 239 495 246 513 q 231 448 231 477 q 276 393 231 393 q 368 448 327 393 q 408 559 408 500 q 376 617 408 607 q 361 620 368 620 l 309 614 q 290 634 290 614 q 323 703 290 675 q 355 719 334 712 q 407 742 376 725 q 463 782 437 758 q 520 907 520 836 q 501 967 520 947 q 458 986 482 986 q 417 978 433 986 q 389 956 401 969 q 362 897 362 927 q 375 853 362 861 q 388 837 388 846 q 381 819 388 829 q 363 802 374 810 q 315 781 337 781 q 280 788 293 781 q 259 807 267 795 q 242 865 242 831 q 259 933 242 899 q 305 995 276 968 q 458 1055 370 1055 q 612 1005 561 1055 q 656 891 656 961 q 594 745 656 810 q 477 667 545 694 z "},"":{"ha":448,"x_min":106,"x_max":451,"o":"m 191 772 q 146 761 165 762 q 121 768 127 760 q 122 800 106 786 l 153 830 q 292 1068 254 926 q 343 1090 299 1095 q 401 1054 379 1085 q 357 887 451 985 q 191 772 282 808 z "},"":{"ha":859,"x_min":-51,"x_max":828,"o":"m 226 -7 q 133 33 165 -7 q 77 -323 98 -104 q 21 -380 71 -380 q -20 -365 -3 -380 q -48 -298 -51 -336 q 127 382 -26 23 q 229 587 186 519 q 329 702 302 702 q 386 686 365 702 q 414 640 422 659 l 350 515 q 229 161 229 268 q 273 115 229 115 q 396 203 319 115 q 521 385 459 277 q 686 672 675 659 q 731 702 708 702 q 770 697 753 702 q 800 682 787 692 q 818 640 828 661 q 642 206 647 286 q 641 171 641 191 q 673 113 641 113 q 725 125 702 113 q 755 137 749 137 q 770 122 770 137 q 708 22 770 64 q 577 1 642 -24 q 511 73 532 19 q 501 132 501 100 q 514 239 501 189 l 473 184 q 226 -7 328 -7 z "},"":{"ha":1027,"x_min":39,"x_max":1179,"o":"m 758 51 q 682 -58 720 -24 q 614 -92 644 -92 q 584 -71 584 -92 q 591 -45 584 -60 q 734 305 654 55 q 812 573 791 494 q 868 793 855 738 l 886 867 q 930 1010 906 978 q 890 1016 911 1016 q 811 995 841 1012 q 760 942 781 979 q 722 843 739 905 q 690 720 705 782 l 665 608 q 414 10 567 173 q 210 -88 321 -88 q 80 -44 125 -88 q 39 59 39 -5 q 85 172 39 119 q 208 231 136 231 q 258 217 241 231 q 275 170 290 190 q 253 151 266 159 q 228 130 241 142 q 182 55 195 101 q 201 0 170 18 q 232 -5 210 -5 q 279 16 254 -5 q 327 75 305 38 q 369 162 349 113 q 405 269 388 212 q 439 384 422 325 l 472 500 q 320 589 379 520 q 262 728 262 656 q 286 852 262 800 q 354 949 311 905 q 459 1026 398 992 q 593 1082 519 1060 q 920 1129 743 1129 q 1158 1127 1078 1129 q 1179 1109 1179 1126 q 1157 1053 1179 1080 q 1076 1006 1115 1002 l 1069 1006 q 943 542 1036 826 l 883 365 q 758 51 816 177 m 968 962 l 968 968 q 968 962 968 965 z "},"":{"ha":491,"x_min":167,"x_max":389,"o":"m 279 359 q 236 366 257 357 q 199 389 215 374 q 167 457 167 421 q 177 514 167 494 q 201 546 186 534 q 257 568 228 568 q 308 564 287 568 q 346 551 328 559 q 389 488 389 529 q 355 399 389 437 q 279 359 325 364 z "},"":{"ha":419,"x_min":99,"x_max":328,"o":"m 225 -69 q 177 9 225 -12 q 185 37 177 24 q 211 50 193 50 q 252 33 230 50 q 290 -10 273 16 q 328 -119 328 -68 q 315 -204 328 -170 q 279 -262 301 -238 q 178 -312 235 -312 q 128 -294 146 -312 q 99 -232 99 -263 q 115 -206 99 -210 q 134 -202 123 -204 q 159 -192 144 -201 q 185 -168 173 -182 q 207 -138 198 -154 q 225 -69 225 -104 z "},"":{"ha":561,"x_min":171,"x_max":559,"o":"m 260 341 q 216 322 237 322 q 186 330 195 322 q 176 350 176 338 q 208 421 176 367 q 269 539 239 475 q 321 661 298 602 q 391 867 364 771 q 256 800 328 813 q 220 796 239 796 q 186 809 201 796 q 171 834 171 821 q 174 851 171 848 q 182 858 176 855 q 196 864 187 861 q 223 874 205 867 q 265 899 241 882 q 313 936 290 916 q 359 976 337 956 l 400 1013 q 453 1050 443 1050 q 551 998 525 1050 q 559 965 559 983 q 551 915 559 947 q 530 842 543 882 q 501 760 517 803 q 467 675 484 716 l 431 597 q 260 341 343 408 z "},"":{"ha":692,"x_min":144,"x_max":710,"o":"m 436 412 q 347 395 391 395 q 266 406 302 395 q 203 441 230 418 q 146 589 147 492 q 194 789 144 688 q 323 951 242 888 q 502 1019 408 1019 q 678 910 631 1019 q 683 721 710 834 q 591 534 659 619 q 436 412 524 448 m 338 471 q 438 536 386 471 q 547 766 517 631 q 554 863 559 825 q 543 914 549 901 q 503 943 529 943 q 453 926 477 943 q 406 881 429 909 q 360 815 382 853 q 321 736 338 778 q 284 556 283 642 q 338 471 286 471 z "},"":{"ha":924,"x_min":79,"x_max":840,"o":"m 441 159 q 425 179 425 159 q 469 263 425 230 l 691 435 l 511 638 q 499 662 499 650 q 505 682 499 673 q 519 696 511 690 q 560 709 539 709 q 621 686 598 709 l 809 488 q 840 434 840 456 q 822 393 840 412 q 770 353 804 374 l 465 168 q 441 159 452 159 m 96 159 q 79 179 79 159 q 123 263 79 230 l 345 435 l 165 638 q 153 662 153 650 q 159 682 153 673 q 174 696 165 690 q 214 709 193 709 q 275 686 252 709 l 463 488 q 494 434 494 456 q 476 393 494 412 q 424 353 458 374 l 119 168 q 96 159 106 159 z "},"":{"ha":1373,"x_min":144,"x_max":1262,"o":"m 425 71 q 374 11 399 28 q 312 -7 348 -7 q 277 18 277 -7 q 293 63 277 38 q 339 142 319 107 l 765 893 l 854 1044 q 969 1120 902 1120 q 1002 1094 1002 1120 q 951 983 1002 1061 q 911 919 937 962 l 425 71 m 1015 209 q 929 203 962 203 q 849 209 871 203 q 811 227 827 215 q 784 254 795 239 q 758 317 757 290 q 769 347 758 327 l 831 464 q 918 726 907 608 q 940 744 919 744 q 978 738 960 744 q 1010 722 995 732 q 1046 659 1046 694 q 1030 576 1046 623 q 989 477 1014 528 q 884 296 944 383 l 890 303 q 946 293 909 293 q 1006 294 983 293 l 1051 297 q 1109 468 1096 415 q 1125 530 1122 520 q 1146 548 1132 548 q 1179 542 1161 548 q 1213 526 1198 535 q 1246 481 1246 504 q 1195 308 1246 427 q 1234 287 1217 305 q 1262 239 1262 254 q 1233 215 1262 211 q 1152 218 1199 220 q 977 1 1056 39 q 948 -7 960 -7 q 928 2 935 -7 q 920 26 920 10 q 939 68 920 43 q 1015 209 975 117 m 233 341 q 189 322 210 322 q 159 330 168 322 q 149 350 149 338 q 180 421 149 367 q 241 539 212 475 q 294 661 271 602 q 363 867 337 771 q 229 800 301 813 q 193 796 212 796 q 159 809 174 796 q 144 834 144 821 q 146 851 144 848 q 155 858 149 855 q 169 864 160 861 q 196 874 178 867 q 238 899 214 882 q 286 936 262 916 q 332 976 310 956 l 373 1013 q 426 1050 416 1050 q 524 998 498 1050 q 532 965 532 983 q 524 915 532 947 q 503 842 516 882 q 474 760 490 803 q 439 675 457 716 l 404 597 q 233 341 316 408 z "},"":{"ha":1373,"x_min":144,"x_max":1288,"o":"m 425 71 q 374 11 399 28 q 312 -7 348 -7 q 277 18 277 -7 q 293 63 277 38 q 339 142 319 107 l 765 893 l 854 1044 q 969 1120 902 1120 q 1002 1094 1002 1120 q 951 983 1002 1061 q 911 919 937 962 l 425 71 m 883 92 q 956 112 921 112 l 1050 112 q 1164 151 1118 112 q 1182 151 1172 158 q 1192 125 1192 144 q 1159 31 1192 64 q 1072 -3 1127 -3 q 1006 7 1043 -3 q 915 26 937 26 q 876 22 892 26 q 846 14 860 19 q 809 -1 821 5 q 787 -9 794 -9 q 770 -2 781 -9 q 751 15 760 5 q 735 60 732 38 q 759 109 739 81 q 809 166 779 137 q 878 227 840 195 q 1027 355 987 318 q 1095 427 1066 392 q 1158 574 1158 506 q 1112 643 1158 627 q 1080 647 1098 647 q 1044 638 1062 647 q 1014 614 1027 629 q 987 556 987 585 q 1006 481 987 497 q 1019 465 1019 474 q 1013 446 1019 456 q 995 429 1006 437 q 951 408 968 408 q 914 413 932 408 q 853 523 853 441 q 916 656 853 597 q 1083 723 984 723 q 1246 663 1192 723 q 1288 553 1288 618 q 1263 437 1288 487 q 1201 348 1239 387 q 1116 276 1162 308 l 1024 214 q 941 156 979 185 q 883 92 903 126 m 233 341 q 189 322 210 322 q 159 330 168 322 q 149 350 149 338 q 180 421 149 367 q 241 539 212 475 q 294 661 271 602 q 363 867 337 771 q 229 800 301 813 q 193 796 212 796 q 159 809 174 796 q 144 834 144 821 q 146 851 144 848 q 155 858 149 855 q 169 864 160 861 q 196 874 178 867 q 238 899 214 882 q 286 936 262 916 q 332 976 310 956 l 373 1013 q 426 1050 416 1050 q 524 998 498 1050 q 532 965 532 983 q 524 915 532 947 q 503 842 516 882 q 474 760 490 803 q 439 675 457 716 l 404 597 q 233 341 316 408 z "},"":{"ha":1400,"x_min":54,"x_max":1289,"o":"m 492 71 q 441 11 467 28 q 380 -7 416 -7 q 345 18 345 -7 q 361 63 345 38 q 407 142 387 107 l 833 893 l 922 1044 q 1037 1120 970 1120 q 1069 1094 1069 1120 q 1019 983 1069 1061 q 979 919 1004 962 l 492 71 m 1070 210 q 987 203 1015 203 q 917 209 939 203 q 879 227 895 215 q 852 254 863 239 q 826 317 825 290 q 837 347 826 327 l 899 464 q 985 726 975 608 q 1005 744 987 744 q 1040 738 1024 744 q 1069 722 1055 732 q 1101 659 1101 695 q 1084 576 1101 623 q 1044 477 1068 528 q 938 296 998 383 q 987 288 954 288 q 1105 296 1031 288 q 1163 467 1149 413 q 1179 530 1176 520 q 1232 541 1190 558 q 1276 510 1265 528 q 1287 481 1287 492 q 1234 305 1287 424 q 1284 252 1267 292 q 1289 233 1289 242 q 1266 214 1289 211 q 1192 218 1223 220 q 1017 1 1097 39 q 988 -7 1001 -7 q 968 14 968 -7 q 990 64 968 35 q 1070 210 1029 117 m 426 667 q 495 551 495 625 q 418 399 495 469 q 221 326 336 326 q 98 370 146 326 q 54 464 54 411 q 72 525 54 502 q 142 568 105 568 q 194 556 178 568 q 202 528 209 543 q 187 495 195 513 q 180 448 180 477 q 224 393 180 393 q 317 448 275 393 q 356 559 356 500 q 325 617 356 607 q 309 620 317 620 l 257 614 q 238 634 238 614 q 271 703 238 675 q 303 719 282 712 q 355 742 325 725 q 411 782 386 758 q 469 907 469 836 q 450 967 469 947 q 406 986 431 986 q 366 978 382 986 q 337 956 349 969 q 311 897 311 927 q 323 853 311 861 q 336 837 336 846 q 330 819 336 829 q 312 802 323 810 q 263 781 286 781 q 229 788 241 781 q 208 807 216 795 q 191 865 191 831 q 208 933 191 899 q 254 995 224 968 q 407 1055 319 1055 q 560 1005 509 1055 q 605 891 605 961 q 543 745 605 810 q 426 667 494 694 z "},"":{"ha":718,"x_min":5,"x_max":647,"o":"m 451 498 q 456 505 451 498 q 471 522 461 513 q 493 530 480 530 q 518 510 507 530 q 529 450 529 490 q 511 370 529 410 q 465 295 494 330 q 400 228 437 260 l 251 108 q 122 -85 122 5 q 147 -157 122 -132 q 208 -182 172 -182 q 267 -169 243 -182 q 306 -138 290 -157 q 336 -58 336 -100 q 327 -9 336 -30 q 317 19 317 12 q 323 38 317 26 q 343 61 330 50 q 403 85 374 85 q 447 76 433 85 q 470 50 460 66 q 487 -20 487 22 q 469 -104 487 -61 q 416 -183 450 -148 q 216 -261 338 -261 q 63 -203 123 -261 q 5 -58 5 -146 q 144 203 5 96 l 229 267 q 401 423 345 352 q 429 464 417 444 q 451 498 441 483 m 616 617 q 601 605 616 617 q 556 592 586 592 q 506 596 527 592 q 467 609 486 600 q 425 671 425 631 q 458 760 425 722 q 538 800 494 800 l 543 800 q 618 768 586 800 q 647 701 647 736 q 616 617 647 642 z "},"":{"ha":855,"x_min":-118,"x_max":908,"o":"m 505 154 q 557 435 505 245 q 307 425 393 431 q 258 334 280 377 l 216 250 q 66 34 133 86 q -41 -7 16 -7 q -107 22 -85 -7 q -117 44 -115 33 q -112 58 -118 54 q 15 146 -34 87 q 100 277 58 200 l 177 414 l 134 408 q 94 421 94 401 q 118 460 94 441 q 201 502 161 492 l 231 509 q 400 766 342 692 q 508 888 459 839 q 610 974 556 937 q 841 1055 727 1055 q 888 1040 876 1055 q 901 992 908 1018 q 876 920 893 967 q 744 553 768 624 q 764 554 755 554 l 779 554 q 860 539 854 554 q 861 522 861 534 q 853 493 861 509 q 828 465 846 477 q 707 437 792 441 q 655 216 661 277 q 659 134 648 155 q 689 113 669 113 q 720 116 708 113 q 742 125 732 120 l 760 133 q 773 137 766 137 q 785 128 781 137 q 790 104 790 119 q 778 68 790 89 q 745 31 765 47 q 637 -7 697 -7 q 515 75 546 -7 q 505 125 505 103 l 505 154 m 369 532 q 593 551 490 548 q 633 666 612 609 l 675 774 q 718 872 697 826 l 758 956 q 479 712 616 919 q 422 623 450 669 l 369 532 m 858 1133 q 829 1107 858 1107 q 688 1152 759 1107 q 609 1258 611 1199 q 629 1316 609 1295 q 707 1356 665 1356 q 741 1326 734 1356 q 835 1165 762 1227 q 858 1133 858 1145 z "},"":{"ha":855,"x_min":-118,"x_max":985,"o":"m 505 154 q 557 435 505 245 q 307 425 393 431 q 258 334 280 377 l 216 250 q 66 34 133 86 q -41 -7 16 -7 q -107 22 -85 -7 q -117 44 -115 33 q -112 58 -118 54 q 15 146 -34 87 q 100 277 58 200 l 177 414 l 134 408 q 94 421 94 401 q 118 460 94 441 q 201 502 161 492 l 231 509 q 400 766 342 692 q 508 888 459 839 q 610 974 556 937 q 841 1055 727 1055 q 888 1040 876 1055 q 901 992 908 1018 q 876 920 893 967 q 744 553 768 624 q 764 554 755 554 l 779 554 q 860 539 854 554 q 861 522 861 534 q 853 493 861 509 q 828 465 846 477 q 707 437 792 441 q 655 216 661 277 q 659 134 648 155 q 689 113 669 113 q 720 116 708 113 q 742 125 732 120 l 760 133 q 773 137 766 137 q 785 128 781 137 q 790 104 790 119 q 778 68 790 89 q 745 31 765 47 q 637 -7 697 -7 q 515 75 546 -7 q 505 125 505 103 l 505 154 m 369 532 q 593 551 490 548 q 633 666 612 609 l 675 774 q 718 872 697 826 l 758 956 q 479 712 616 919 q 422 623 450 669 l 369 532 m 887 1156 q 870 1144 887 1156 q 814 1119 852 1133 q 752 1105 777 1105 q 721 1112 727 1104 q 723 1144 708 1130 l 754 1174 q 841 1295 818 1232 l 854 1333 q 905 1355 863 1360 q 963 1323 941 1351 q 979 1265 985 1296 q 947 1206 973 1234 q 887 1156 922 1178 z "},"":{"ha":855,"x_min":-118,"x_max":998,"o":"m 505 154 q 557 435 505 245 q 307 425 393 431 q 258 334 280 377 l 216 250 q 66 34 133 86 q -41 -7 16 -7 q -107 22 -85 -7 q -117 44 -115 33 q -112 58 -118 54 q 15 146 -34 87 q 100 277 58 200 l 177 414 l 134 408 q 94 421 94 401 q 118 460 94 441 q 201 502 161 492 l 231 509 q 400 766 342 692 q 508 888 459 839 q 610 974 556 937 q 841 1055 727 1055 q 888 1040 876 1055 q 901 992 908 1018 q 876 920 893 967 q 744 553 768 624 q 764 554 755 554 l 779 554 q 860 539 854 554 q 861 522 861 534 q 853 493 861 509 q 828 465 846 477 q 707 437 792 441 q 655 216 661 277 q 659 134 648 155 q 689 113 669 113 q 720 116 708 113 q 742 125 732 120 l 760 133 q 773 137 766 137 q 785 128 781 137 q 790 104 790 119 q 778 68 790 89 q 745 31 765 47 q 637 -7 697 -7 q 515 75 546 -7 q 505 125 505 103 l 505 154 m 369 532 q 593 551 490 548 q 633 666 612 609 l 675 774 q 718 872 697 826 l 758 956 q 479 712 616 919 q 422 623 450 669 l 369 532 m 799 1216 q 631 1113 711 1141 q 604 1107 619 1107 q 577 1112 588 1107 q 557 1122 566 1116 q 540 1152 540 1136 q 558 1174 540 1168 q 604 1192 576 1179 q 665 1226 631 1205 q 822 1351 741 1274 q 854 1347 831 1360 q 903 1305 899 1324 q 915 1264 906 1286 q 937 1221 924 1242 q 989 1144 959 1182 q 975 1118 998 1131 q 916 1107 952 1104 q 846 1137 880 1109 q 799 1216 812 1164 z "},"":{"ha":855,"x_min":-118,"x_max":1053,"o":"m 505 154 q 557 435 505 245 q 307 425 393 431 q 258 334 280 377 l 216 250 q 66 34 133 86 q -41 -7 16 -7 q -107 22 -85 -7 q -117 44 -115 33 q -112 58 -118 54 q 15 146 -34 87 q 100 277 58 200 l 177 414 l 134 408 q 94 421 94 401 q 118 460 94 441 q 201 502 161 492 l 231 509 q 400 766 342 692 q 508 888 459 839 q 610 974 556 937 q 841 1055 727 1055 q 888 1040 876 1055 q 901 992 908 1018 q 876 920 893 967 q 744 553 768 624 q 764 554 755 554 l 779 554 q 860 539 854 554 q 861 522 861 534 q 853 493 861 509 q 828 465 846 477 q 707 437 792 441 q 655 216 661 277 q 659 134 648 155 q 689 113 669 113 q 720 116 708 113 q 742 125 732 120 l 760 133 q 773 137 766 137 q 785 128 781 137 q 790 104 790 119 q 778 68 790 89 q 745 31 765 47 q 637 -7 697 -7 q 515 75 546 -7 q 505 125 505 103 l 505 154 m 369 532 q 593 551 490 548 q 633 666 612 609 l 675 774 q 718 872 697 826 l 758 956 q 479 712 616 919 q 422 623 450 669 l 369 532 m 553 1123 q 522 1159 520 1123 q 543 1226 524 1194 q 591 1283 562 1257 q 724 1343 656 1343 q 824 1291 781 1343 l 846 1267 q 890 1240 869 1240 q 927 1247 911 1240 q 954 1264 942 1254 q 992 1311 971 1278 q 1017 1334 1001 1334 q 1050 1292 1053 1334 q 979 1173 1046 1231 q 841 1114 911 1114 q 741 1165 783 1114 l 720 1190 q 676 1216 697 1216 q 642 1209 655 1216 q 617 1192 628 1202 q 584 1149 600 1176 q 553 1123 568 1123 z "},"":{"ha":855,"x_min":-118,"x_max":1046,"o":"m 505 154 q 557 435 505 245 q 307 425 393 431 q 258 334 280 377 l 216 250 q 66 34 133 86 q -41 -7 16 -7 q -107 22 -85 -7 q -117 44 -115 33 q -112 58 -118 54 q 15 146 -34 87 q 100 277 58 200 l 177 414 l 134 408 q 94 421 94 401 q 118 460 94 441 q 201 502 161 492 l 231 509 q 400 766 342 692 q 508 888 459 839 q 610 974 556 937 q 841 1055 727 1055 q 888 1040 876 1055 q 901 992 908 1018 q 876 920 893 967 q 744 553 768 624 q 764 554 755 554 l 779 554 q 860 539 854 554 q 861 522 861 534 q 853 493 861 509 q 828 465 846 477 q 707 437 792 441 q 655 216 661 277 q 659 134 648 155 q 689 113 669 113 q 720 116 708 113 q 742 125 732 120 l 760 133 q 773 137 766 137 q 785 128 781 137 q 790 104 790 119 q 778 68 790 89 q 745 31 765 47 q 637 -7 697 -7 q 515 75 546 -7 q 505 125 505 103 l 505 154 m 369 532 q 593 551 490 548 q 633 666 612 609 l 675 774 q 718 872 697 826 l 758 956 q 479 712 616 919 q 422 623 450 669 l 369 532 m 1013 1164 q 1005 1156 1013 1164 q 979 1138 998 1148 q 939 1126 960 1128 q 899 1133 918 1124 q 867 1157 880 1141 q 838 1226 838 1192 q 849 1278 838 1261 q 877 1306 860 1295 q 938 1327 909 1327 q 983 1323 967 1327 q 1013 1310 999 1319 q 1046 1255 1046 1287 q 1037 1201 1046 1223 q 1013 1164 1027 1180 m 701 1164 q 693 1156 701 1164 q 667 1138 686 1148 q 627 1126 648 1128 q 587 1133 606 1124 q 555 1157 568 1141 q 526 1226 526 1192 q 537 1278 526 1261 q 565 1306 548 1295 q 626 1327 597 1327 q 671 1323 655 1327 q 701 1310 687 1319 q 734 1255 734 1287 q 725 1201 734 1223 q 701 1164 715 1180 z "},"":{"ha":855,"x_min":-118,"x_max":981,"o":"m 505 154 q 557 435 505 245 q 307 425 393 431 q 258 334 280 377 l 216 250 q 66 34 133 86 q -41 -7 16 -7 q -107 22 -85 -7 q -117 44 -115 33 q -112 58 -118 54 q 15 146 -34 87 q 100 277 58 200 l 177 414 l 134 408 q 94 421 94 401 q 118 460 94 441 q 201 502 161 492 l 231 509 q 400 766 342 692 q 508 888 459 839 q 610 974 556 937 q 841 1055 727 1055 q 888 1040 876 1055 q 901 992 908 1018 q 876 920 893 967 q 744 553 768 624 q 764 554 755 554 l 779 554 q 860 539 854 554 q 861 522 861 534 q 853 493 861 509 q 828 465 846 477 q 707 437 792 441 q 655 216 661 277 q 659 134 648 155 q 689 113 669 113 q 720 116 708 113 q 742 125 732 120 l 760 133 q 773 137 766 137 q 785 128 781 137 q 790 104 790 119 q 778 68 790 89 q 745 31 765 47 q 637 -7 697 -7 q 515 75 546 -7 q 505 125 505 103 l 505 154 m 369 532 q 593 551 490 548 q 633 666 612 609 l 675 774 q 718 872 697 826 l 758 956 q 479 712 616 919 q 422 623 450 669 l 369 532 m 922 1069 q 907 1055 922 1069 q 853 1024 893 1041 q 771 1006 813 1006 q 700 1014 730 1006 q 650 1038 671 1022 q 605 1139 605 1073 q 666 1278 605 1219 q 829 1342 732 1342 q 970 1267 935 1342 q 981 1205 981 1242 q 966 1133 981 1169 q 922 1069 950 1097 m 749 1073 q 774 1067 758 1067 q 807 1080 790 1067 q 837 1114 825 1093 q 863 1210 863 1157 q 815 1281 863 1281 q 752 1240 781 1281 q 722 1136 722 1196 q 749 1073 722 1091 z "},"":{"ha":1221,"x_min":-106,"x_max":1325,"o":"m 1220 904 q 1152 961 1220 961 q 917 841 1023 961 q 829 688 854 770 q 817 618 817 648 q 824 569 817 587 q 842 540 831 551 q 896 521 865 515 q 955 534 929 534 q 995 528 980 534 q 1020 512 1010 522 q 1040 475 1040 493 q 1017 439 1040 441 q 943 420 981 436 q 865 377 904 404 q 795 319 825 351 q 725 169 725 244 q 742 115 725 133 q 887 98 791 60 q 1044 220 972 132 q 1082 245 1066 245 q 1107 226 1099 245 q 1116 185 1116 207 q 1099 119 1116 140 q 1056 76 1082 98 q 996 37 1031 55 q 814 -7 911 -7 q 590 100 650 -7 q 568 180 568 140 q 578 252 568 220 q 605 313 589 285 q 684 409 635 366 l 671 409 q 315 398 505 409 l 222 239 q 152 127 180 166 l 110 69 q -29 -7 52 -7 q -95 22 -73 -7 q -104 44 -103 33 q -100 58 -106 54 q -45 83 -61 72 l -20 102 q 45 186 8 128 l 165 384 l 146 381 q 106 394 106 374 q 130 433 106 414 q 222 477 174 465 l 250 519 q 279 562 264 541 l 368 699 q 674 1022 538 952 q 805 1053 733 1053 q 918 1009 876 1053 q 1086 1055 1006 1055 q 1210 1038 1166 1055 q 1278 996 1253 1021 q 1325 874 1325 948 q 1255 704 1325 790 q 1178 634 1212 652 q 1124 614 1143 616 q 1088 619 1105 612 q 1059 636 1072 625 q 1031 682 1031 661 q 1049 720 1031 707 l 1110 764 q 1220 904 1220 844 m 802 926 q 768 929 788 929 q 521 720 677 929 q 383 513 452 629 l 378 505 q 568 524 507 524 q 655 524 629 524 l 709 526 q 671 647 671 577 q 747 864 671 758 q 802 926 772 897 z "},"":{"ha":741,"x_min":63,"x_max":843,"o":"m 264 -69 q 216 9 264 -12 l 216 16 q 102 123 141 49 q 67 303 63 197 q 99 507 71 410 q 170 687 126 604 q 270 838 214 770 q 390 954 327 906 q 646 1055 522 1055 q 796 989 741 1055 q 843 849 843 932 q 770 654 843 750 q 681 574 728 598 q 639 562 659 562 q 604 570 620 562 q 575 590 587 578 q 550 637 550 616 q 561 667 550 659 q 712 831 672 747 q 728 895 728 864 q 665 961 728 961 q 464 854 568 961 q 301 608 367 756 q 229 328 233 455 l 228 302 q 292 102 228 149 q 348 85 315 85 q 408 93 380 85 q 465 115 437 101 q 583 197 511 139 q 619 193 605 214 q 631 152 631 175 q 621 99 631 113 q 585 66 610 85 q 523 31 559 47 q 336 -7 437 -7 q 332 -6 334 -7 q 328 -6 330 -6 q 368 -118 368 -66 q 354 -204 368 -170 q 319 -262 340 -238 q 217 -312 275 -312 q 168 -294 185 -312 q 138 -232 138 -263 q 155 -206 138 -210 q 173 -202 163 -204 q 198 -192 184 -201 q 225 -168 212 -182 q 246 -138 237 -154 q 264 -69 264 -104 z "},"":{"ha":708,"x_min":56,"x_max":812,"o":"m 707 904 q 640 961 707 961 q 404 841 510 961 q 317 688 342 770 q 304 618 304 648 q 312 569 304 587 q 330 540 319 551 q 383 521 353 515 q 442 534 416 534 q 483 528 467 534 q 507 512 498 522 q 527 475 527 493 q 504 439 527 441 q 430 420 469 436 q 352 377 391 404 q 282 319 313 351 q 212 169 212 244 q 229 115 212 133 q 297 83 258 83 q 374 98 336 83 q 442 135 412 113 q 532 220 488 168 q 570 245 553 245 q 594 226 586 245 q 603 185 603 207 q 586 119 603 140 q 544 76 569 98 q 483 37 518 55 q 301 -7 398 -7 q 77 100 138 -7 q 56 182 56 140 q 68 260 56 224 q 100 327 81 296 q 144 383 120 358 q 193 426 169 408 q 270 467 239 463 q 167 586 193 498 q 159 655 159 614 q 174 745 159 696 q 218 839 190 794 q 286 924 247 884 q 373 992 326 963 q 589 1055 475 1055 q 766 996 707 1055 q 812 874 812 948 q 742 704 812 790 q 665 634 699 652 q 611 614 631 616 q 575 619 592 612 q 547 636 559 625 q 519 682 519 661 q 536 720 519 707 l 597 764 q 707 904 707 844 m 706 1133 q 677 1107 706 1107 q 536 1152 607 1107 q 457 1258 459 1199 q 477 1316 457 1295 q 555 1356 513 1356 q 589 1326 582 1356 q 683 1165 610 1227 q 706 1133 706 1145 z "},"":{"ha":708,"x_min":56,"x_max":833,"o":"m 707 904 q 640 961 707 961 q 404 841 510 961 q 317 688 342 770 q 304 618 304 648 q 312 569 304 587 q 330 540 319 551 q 383 521 353 515 q 442 534 416 534 q 483 528 467 534 q 507 512 498 522 q 527 475 527 493 q 504 439 527 441 q 430 420 469 436 q 352 377 391 404 q 282 319 313 351 q 212 169 212 244 q 229 115 212 133 q 297 83 258 83 q 374 98 336 83 q 442 135 412 113 q 532 220 488 168 q 570 245 553 245 q 594 226 586 245 q 603 185 603 207 q 586 119 603 140 q 544 76 569 98 q 483 37 518 55 q 301 -7 398 -7 q 77 100 138 -7 q 56 182 56 140 q 68 260 56 224 q 100 327 81 296 q 144 383 120 358 q 193 426 169 408 q 270 467 239 463 q 167 586 193 498 q 159 655 159 614 q 174 745 159 696 q 218 839 190 794 q 286 924 247 884 q 373 992 326 963 q 589 1055 475 1055 q 766 996 707 1055 q 812 874 812 948 q 742 704 812 790 q 665 634 699 652 q 611 614 631 616 q 575 619 592 612 q 547 636 559 625 q 519 682 519 661 q 536 720 519 707 l 597 764 q 707 904 707 844 m 735 1156 q 718 1144 735 1156 q 663 1119 701 1133 q 600 1105 625 1105 q 569 1112 575 1104 q 571 1144 556 1130 l 602 1174 q 689 1295 666 1232 l 702 1333 q 753 1355 711 1360 q 811 1323 789 1351 q 827 1265 833 1296 q 795 1206 821 1234 q 735 1156 770 1178 z "},"":{"ha":708,"x_min":56,"x_max":846,"o":"m 707 904 q 640 961 707 961 q 404 841 510 961 q 317 688 342 770 q 304 618 304 648 q 312 569 304 587 q 330 540 319 551 q 383 521 353 515 q 442 534 416 534 q 483 528 467 534 q 507 512 498 522 q 527 475 527 493 q 504 439 527 441 q 430 420 469 436 q 352 377 391 404 q 282 319 313 351 q 212 169 212 244 q 229 115 212 133 q 297 83 258 83 q 374 98 336 83 q 442 135 412 113 q 532 220 488 168 q 570 245 553 245 q 594 226 586 245 q 603 185 603 207 q 586 119 603 140 q 544 76 569 98 q 483 37 518 55 q 301 -7 398 -7 q 77 100 138 -7 q 56 182 56 140 q 68 260 56 224 q 100 327 81 296 q 144 383 120 358 q 193 426 169 408 q 270 467 239 463 q 167 586 193 498 q 159 655 159 614 q 174 745 159 696 q 218 839 190 794 q 286 924 247 884 q 373 992 326 963 q 589 1055 475 1055 q 766 996 707 1055 q 812 874 812 948 q 742 704 812 790 q 665 634 699 652 q 611 614 631 616 q 575 619 592 612 q 547 636 559 625 q 519 682 519 661 q 536 720 519 707 l 597 764 q 707 904 707 844 m 647 1216 q 479 1113 559 1141 q 452 1107 467 1107 q 425 1112 436 1107 q 406 1122 414 1116 q 388 1152 388 1136 q 406 1174 388 1168 q 452 1192 425 1179 q 513 1226 479 1205 q 670 1351 589 1274 q 703 1347 679 1360 q 751 1305 747 1324 q 763 1264 754 1286 q 785 1221 772 1242 q 838 1144 807 1182 q 823 1118 846 1131 q 764 1107 800 1104 q 694 1137 728 1109 q 647 1216 661 1164 z "},"":{"ha":708,"x_min":56,"x_max":894,"o":"m 707 904 q 640 961 707 961 q 404 841 510 961 q 317 688 342 770 q 304 618 304 648 q 312 569 304 587 q 330 540 319 551 q 383 521 353 515 q 442 534 416 534 q 483 528 467 534 q 507 512 498 522 q 527 475 527 493 q 504 439 527 441 q 430 420 469 436 q 352 377 391 404 q 282 319 313 351 q 212 169 212 244 q 229 115 212 133 q 297 83 258 83 q 374 98 336 83 q 442 135 412 113 q 532 220 488 168 q 570 245 553 245 q 594 226 586 245 q 603 185 603 207 q 586 119 603 140 q 544 76 569 98 q 483 37 518 55 q 301 -7 398 -7 q 77 100 138 -7 q 56 182 56 140 q 68 260 56 224 q 100 327 81 296 q 144 383 120 358 q 193 426 169 408 q 270 467 239 463 q 167 586 193 498 q 159 655 159 614 q 174 745 159 696 q 218 839 190 794 q 286 924 247 884 q 373 992 326 963 q 589 1055 475 1055 q 766 996 707 1055 q 812 874 812 948 q 742 704 812 790 q 665 634 699 652 q 611 614 631 616 q 575 619 592 612 q 547 636 559 625 q 519 682 519 661 q 536 720 519 707 l 597 764 q 707 904 707 844 m 861 1164 q 853 1156 861 1164 q 827 1138 846 1148 q 787 1126 808 1128 q 747 1133 766 1124 q 715 1157 728 1141 q 686 1226 686 1192 q 697 1278 686 1261 q 725 1306 708 1295 q 786 1327 758 1327 q 831 1323 815 1327 q 861 1310 847 1319 q 894 1255 894 1287 q 885 1201 894 1223 q 861 1164 876 1180 m 549 1164 q 541 1156 549 1164 q 515 1138 534 1148 q 475 1126 496 1128 q 435 1133 454 1124 q 403 1157 416 1141 q 374 1226 374 1192 q 385 1278 374 1261 q 413 1306 396 1295 q 474 1327 446 1327 q 519 1323 503 1327 q 549 1310 535 1319 q 582 1255 582 1287 q 573 1201 582 1223 q 549 1164 564 1180 z "},"":{"ha":455,"x_min":-16,"x_max":518,"o":"m -5 62 q 231 506 112 149 q 328 882 300 714 q 335 954 335 928 q 283 939 307 952 l 233 909 q 177 928 212 898 q 145 978 142 958 q 168 1012 148 999 q 214 1035 188 1025 q 308 1055 270 1055 q 374 1049 345 1055 q 427 1029 403 1043 q 482 940 481 998 q 414 597 485 839 q 149 58 301 214 q 63 0 108 16 q 38 -5 51 -5 q 16 0 26 -5 q -1 11 5 4 q -16 39 -16 24 q -5 62 -16 55 m 518 1133 q 490 1107 518 1107 q 349 1152 419 1107 q 269 1258 271 1199 q 290 1316 269 1295 q 368 1356 326 1356 q 401 1326 394 1356 q 495 1165 422 1227 q 518 1133 518 1145 z "},"":{"ha":455,"x_min":-16,"x_max":646,"o":"m -5 62 q 231 506 112 149 q 328 882 300 714 q 335 954 335 928 q 283 939 307 952 l 233 909 q 177 928 212 898 q 145 978 142 958 q 168 1012 148 999 q 214 1035 188 1025 q 308 1055 270 1055 q 374 1049 345 1055 q 427 1029 403 1043 q 482 940 481 998 q 414 597 485 839 q 149 58 301 214 q 63 0 108 16 q 38 -5 51 -5 q 16 0 26 -5 q -1 11 5 4 q -16 39 -16 24 q -5 62 -16 55 m 547 1156 q 530 1144 547 1156 q 475 1119 513 1133 q 412 1105 437 1105 q 381 1112 387 1104 q 383 1144 368 1130 l 414 1174 q 501 1295 478 1232 l 514 1333 q 565 1355 523 1360 q 623 1323 601 1351 q 640 1265 646 1296 q 608 1206 633 1234 q 547 1156 582 1178 z "},"":{"ha":455,"x_min":-16,"x_max":659,"o":"m -5 62 q 231 506 112 149 q 328 882 300 714 q 335 954 335 928 q 283 939 307 952 l 233 909 q 177 928 212 898 q 145 978 142 958 q 168 1012 148 999 q 214 1035 188 1025 q 308 1055 270 1055 q 374 1049 345 1055 q 427 1029 403 1043 q 482 940 481 998 q 414 597 485 839 q 149 58 301 214 q 63 0 108 16 q 38 -5 51 -5 q 16 0 26 -5 q -1 11 5 4 q -16 39 -16 24 q -5 62 -16 55 m 459 1216 q 292 1113 371 1141 q 264 1107 279 1107 q 237 1112 248 1107 q 218 1122 226 1116 q 200 1152 200 1136 q 218 1174 200 1168 q 264 1192 237 1179 q 325 1226 291 1205 q 482 1351 401 1274 q 515 1347 491 1360 q 563 1305 559 1324 q 575 1264 566 1286 q 597 1221 585 1242 q 650 1144 619 1182 q 635 1118 659 1131 q 576 1107 612 1104 q 507 1137 541 1109 q 459 1216 473 1164 z "},"":{"ha":455,"x_min":-16,"x_max":706,"o":"m -5 62 q 231 506 112 149 q 328 882 300 714 q 335 954 335 928 q 283 939 307 952 l 233 909 q 177 928 212 898 q 145 978 142 958 q 168 1012 148 999 q 214 1035 188 1025 q 308 1055 270 1055 q 374 1049 345 1055 q 427 1029 403 1043 q 482 940 481 998 q 414 597 485 839 q 149 58 301 214 q 63 0 108 16 q 38 -5 51 -5 q 16 0 26 -5 q -1 11 5 4 q -16 39 -16 24 q -5 62 -16 55 m 673 1164 q 665 1156 673 1164 q 639 1138 658 1148 q 599 1126 620 1128 q 559 1133 578 1124 q 527 1157 541 1141 q 498 1226 498 1192 q 509 1278 498 1261 q 537 1306 520 1295 q 598 1327 570 1327 q 643 1323 627 1327 q 673 1310 659 1319 q 706 1255 706 1287 q 697 1201 706 1223 q 673 1164 688 1180 m 361 1164 q 353 1156 361 1164 q 327 1138 346 1148 q 287 1126 308 1128 q 247 1133 266 1124 q 215 1157 229 1141 q 186 1226 186 1192 q 197 1278 186 1261 q 225 1306 208 1295 q 287 1327 258 1327 q 331 1323 315 1327 q 361 1310 347 1319 q 394 1255 394 1287 q 385 1201 394 1223 q 361 1164 376 1180 z "},"":{"ha":876,"x_min":38,"x_max":890,"o":"m 534 633 q 564 606 564 633 q 545 554 564 578 q 485 511 510 511 l 323 517 q 206 170 233 309 q 200 135 203 150 q 197 110 197 121 q 225 87 197 87 q 289 101 254 87 q 365 138 324 114 q 449 197 406 162 q 535 274 493 231 q 614 368 577 317 q 680 473 652 418 q 741 714 741 595 q 609 930 741 877 q 513 949 563 949 q 429 942 463 949 q 362 924 394 936 q 254 863 298 901 q 226 856 242 856 q 191 865 210 856 q 157 889 172 875 q 130 953 123 922 q 260 1028 138 996 q 468 1055 363 1055 q 656 1026 572 1055 q 792 949 740 998 q 890 706 890 859 q 750 316 890 504 q 445 52 622 142 q 234 -7 330 -7 q 104 37 159 -7 q 55 150 46 84 q 161 522 79 313 l 77 525 q 38 551 38 525 q 58 596 38 575 q 113 633 93 635 l 210 633 q 321 827 294 814 q 377 837 342 837 q 430 832 412 837 q 458 819 448 827 q 465 783 479 802 q 378 633 420 716 l 534 633 z "},"":{"ha":983,"x_min":26,"x_max":1113,"o":"m 726 70 l 727 47 q 714 12 727 24 q 679 -1 701 -1 q 630 17 657 -1 q 572 79 603 35 q 512 197 542 122 q 463 357 482 272 q 423 709 423 525 q 433 883 423 800 l 425 871 q 201 330 298 690 q 137 13 155 161 q 104 -7 134 -7 q 34 42 56 -7 q 26 92 26 60 q 38 185 26 123 q 71 320 50 246 q 122 477 92 395 q 188 640 152 559 q 264 794 223 721 q 349 924 305 867 q 529 1051 445 1047 q 587 1037 575 1054 q 590 972 601 1018 q 570 814 570 892 q 574 683 570 736 q 585 575 578 629 q 601 469 591 522 q 623 368 611 416 q 676 201 649 262 q 724 313 698 257 l 825 536 q 909 838 909 724 q 865 968 909 945 q 851 985 854 972 q 856 1011 849 998 q 875 1034 863 1024 q 935 1056 902 1056 q 996 1042 968 1056 q 1042 1005 1023 1028 q 1076 901 1076 961 q 1056 777 1076 841 q 1002 643 1035 713 q 930 502 970 574 l 852 359 q 731 102 759 190 q 726 70 726 88 m 614 1123 q 583 1159 581 1123 q 603 1226 585 1194 q 651 1283 622 1257 q 784 1343 716 1343 q 884 1291 841 1343 l 906 1267 q 951 1240 930 1240 q 987 1247 972 1240 q 1015 1264 1002 1254 q 1053 1311 1031 1278 q 1078 1334 1061 1334 q 1110 1292 1113 1334 q 1039 1173 1106 1231 q 901 1114 971 1114 q 802 1165 844 1114 l 781 1190 q 736 1216 758 1216 q 702 1209 715 1216 q 677 1192 688 1202 q 645 1149 661 1176 q 614 1123 629 1123 z "},"":{"ha":910,"x_min":76,"x_max":930,"o":"m 80 309 q 105 480 83 391 q 168 654 128 570 q 261 810 207 737 q 379 938 315 884 q 669 1055 517 1055 q 910 887 854 1055 q 928 742 930 828 q 902 566 926 655 q 837 393 878 476 q 741 236 795 309 q 621 110 686 163 q 346 -7 484 -7 q 150 74 222 -7 q 80 309 76 157 m 301 570 q 245 409 267 491 q 222 270 224 327 q 229 181 220 212 q 253 127 237 149 q 337 81 286 81 q 439 115 388 81 q 539 203 491 148 q 632 332 588 259 q 709 483 675 404 q 779 860 805 711 q 667 963 762 963 q 473 845 580 963 q 301 570 373 735 m 827 1133 q 799 1107 827 1107 q 658 1152 728 1107 q 578 1258 581 1199 q 599 1316 578 1295 q 677 1356 635 1356 q 710 1326 703 1356 q 804 1165 731 1227 q 827 1133 827 1145 z "},"":{"ha":910,"x_min":76,"x_max":955,"o":"m 80 309 q 105 480 83 391 q 168 654 128 570 q 261 810 207 737 q 379 938 315 884 q 669 1055 517 1055 q 910 887 854 1055 q 928 742 930 828 q 902 566 926 655 q 837 393 878 476 q 741 236 795 309 q 621 110 686 163 q 346 -7 484 -7 q 150 74 222 -7 q 80 309 76 157 m 301 570 q 245 409 267 491 q 222 270 224 327 q 229 181 220 212 q 253 127 237 149 q 337 81 286 81 q 439 115 388 81 q 539 203 491 148 q 632 332 588 259 q 709 483 675 404 q 779 860 805 711 q 667 963 762 963 q 473 845 580 963 q 301 570 373 735 m 857 1156 q 839 1144 857 1156 q 784 1119 822 1133 q 721 1105 746 1105 q 690 1112 696 1104 q 692 1144 677 1130 l 724 1174 q 810 1295 787 1232 l 823 1333 q 874 1355 832 1360 q 932 1323 910 1351 q 949 1265 955 1296 q 917 1206 943 1234 q 857 1156 891 1178 z "},"":{"ha":910,"x_min":76,"x_max":968,"o":"m 80 309 q 105 480 83 391 q 168 654 128 570 q 261 810 207 737 q 379 938 315 884 q 669 1055 517 1055 q 910 887 854 1055 q 928 742 930 828 q 902 566 926 655 q 837 393 878 476 q 741 236 795 309 q 621 110 686 163 q 346 -7 484 -7 q 150 74 222 -7 q 80 309 76 157 m 301 570 q 245 409 267 491 q 222 270 224 327 q 229 181 220 212 q 253 127 237 149 q 337 81 286 81 q 439 115 388 81 q 539 203 491 148 q 632 332 588 259 q 709 483 675 404 q 779 860 805 711 q 667 963 762 963 q 473 845 580 963 q 301 570 373 735 m 768 1216 q 601 1113 680 1141 q 573 1107 589 1107 q 546 1112 557 1107 q 527 1122 535 1116 q 509 1152 509 1136 q 528 1174 509 1168 q 573 1192 546 1179 q 634 1226 600 1205 q 791 1351 711 1274 q 824 1347 800 1360 q 872 1305 869 1324 q 885 1264 876 1286 q 906 1221 894 1242 q 959 1144 928 1182 q 945 1118 968 1131 q 886 1107 922 1104 q 816 1137 850 1109 q 768 1216 782 1164 z "},"":{"ha":910,"x_min":76,"x_max":1022,"o":"m 80 309 q 105 480 83 391 q 168 654 128 570 q 261 810 207 737 q 379 938 315 884 q 669 1055 517 1055 q 910 887 854 1055 q 928 742 930 828 q 902 566 926 655 q 837 393 878 476 q 741 236 795 309 q 621 110 686 163 q 346 -7 484 -7 q 150 74 222 -7 q 80 309 76 157 m 301 570 q 245 409 267 491 q 222 270 224 327 q 229 181 220 212 q 253 127 237 149 q 337 81 286 81 q 439 115 388 81 q 539 203 491 148 q 632 332 588 259 q 709 483 675 404 q 779 860 805 711 q 667 963 762 963 q 473 845 580 963 q 301 570 373 735 m 523 1123 q 492 1159 490 1123 q 512 1226 494 1194 q 560 1283 531 1257 q 693 1343 625 1343 q 793 1291 750 1343 l 815 1267 q 860 1240 839 1240 q 896 1247 881 1240 q 924 1264 911 1254 q 962 1311 941 1278 q 987 1334 970 1334 q 1019 1292 1022 1334 q 948 1173 1015 1231 q 810 1114 880 1114 q 711 1165 753 1114 l 690 1190 q 646 1216 667 1216 q 611 1209 625 1216 q 587 1192 597 1202 q 554 1149 570 1176 q 523 1123 538 1123 z "},"":{"ha":910,"x_min":76,"x_max":1015,"o":"m 80 309 q 105 480 83 391 q 168 654 128 570 q 261 810 207 737 q 379 938 315 884 q 669 1055 517 1055 q 910 887 854 1055 q 928 742 930 828 q 902 566 926 655 q 837 393 878 476 q 741 236 795 309 q 621 110 686 163 q 346 -7 484 -7 q 150 74 222 -7 q 80 309 76 157 m 301 570 q 245 409 267 491 q 222 270 224 327 q 229 181 220 212 q 253 127 237 149 q 337 81 286 81 q 439 115 388 81 q 539 203 491 148 q 632 332 588 259 q 709 483 675 404 q 779 860 805 711 q 667 963 762 963 q 473 845 580 963 q 301 570 373 735 m 982 1164 q 975 1156 982 1164 q 948 1138 967 1148 q 908 1126 929 1128 q 868 1133 887 1124 q 836 1157 850 1141 q 807 1226 807 1192 q 818 1278 807 1261 q 846 1306 829 1295 q 908 1327 879 1327 q 952 1323 937 1327 q 983 1310 968 1319 q 1015 1255 1015 1287 q 1006 1201 1015 1223 q 982 1164 997 1180 m 670 1164 q 663 1156 670 1164 q 636 1138 655 1148 q 596 1126 617 1128 q 556 1133 575 1124 q 524 1157 538 1141 q 495 1226 495 1192 q 506 1278 495 1261 q 534 1306 517 1295 q 596 1327 567 1327 q 641 1323 625 1327 q 671 1310 656 1319 q 703 1255 703 1287 q 694 1201 703 1223 q 670 1164 685 1180 z "},"":{"ha":796,"x_min":137,"x_max":722,"o":"m 359 477 l 157 691 q 144 720 144 705 q 159 745 144 735 q 193 755 175 755 q 250 733 228 755 l 427 545 l 614 733 q 663 755 637 755 q 706 745 690 755 q 722 720 722 735 q 707 691 722 705 l 492 476 l 682 275 q 701 239 701 256 q 685 213 701 222 q 652 203 669 203 q 599 223 617 203 l 424 408 l 239 223 q 195 203 220 203 q 153 213 169 203 q 137 239 137 222 q 156 275 137 256 l 359 477 z "},"":{"ha":910,"x_min":34,"x_max":960,"o":"m 81 -83 q 153 70 84 -43 q 106 480 34 198 q 260 810 151 662 q 517 1023 372 962 q 669 1055 591 1055 q 737 1047 703 1055 l 768 1090 q 836 1157 807 1144 q 883 1170 865 1170 q 936 1161 912 1170 q 960 1136 960 1152 q 943 1103 960 1120 q 899 1057 926 1086 l 844 994 q 928 743 933 913 q 837 393 923 568 q 621 110 751 218 q 346 -7 484 -7 q 239 12 288 -7 l 198 -46 q 171 -90 179 -74 q 136 -115 157 -115 q 87 -94 107 -115 q 81 -83 81 -88 m 694 960 q 667 963 682 963 q 473 845 580 963 q 301 570 373 735 q 222 252 226 398 q 229 179 220 210 q 270 239 247 203 l 324 326 l 694 960 m 282 98 q 347 81 306 81 q 439 115 388 81 q 539 203 491 148 q 632 332 588 259 q 709 483 675 404 q 784 792 780 652 q 766 903 787 859 q 486 461 509 502 q 282 98 311 152 z "},"":{"ha":867,"x_min":28,"x_max":972,"o":"m 699 178 q 747 113 699 113 q 799 125 776 113 q 829 137 823 137 q 844 122 844 137 q 780 22 844 62 q 697 -7 736 -7 q 634 2 658 -7 q 592 31 610 12 q 555 153 555 72 q 578 300 555 216 q 613 420 602 385 l 543 313 q 173 -7 323 -7 q 38 79 71 -7 q 28 127 28 106 l 28 153 q 123 467 28 239 l 264 795 q 305 916 305 892 q 297 950 305 939 q 279 968 289 962 l 260 982 q 252 998 252 987 q 263 1020 252 1009 q 292 1039 274 1031 q 361 1055 327 1055 q 414 1047 395 1055 q 445 1029 433 1040 q 469 976 469 1007 q 457 901 469 944 q 426 808 445 859 q 381 701 406 758 l 278 475 q 180 189 180 258 l 180 178 q 229 114 180 114 q 461 338 318 114 q 547 479 504 405 l 629 631 q 834 1023 807 975 q 873 1047 848 1047 q 915 1040 898 1047 q 944 1021 932 1033 q 958 967 972 994 q 802 574 894 844 q 699 178 699 277 m 753 1133 q 724 1107 753 1107 q 583 1152 654 1107 q 504 1258 506 1199 q 524 1316 504 1295 q 602 1356 560 1356 q 635 1326 629 1356 q 730 1165 656 1227 q 753 1133 753 1145 z "},"":{"ha":867,"x_min":28,"x_max":972,"o":"m 699 178 q 747 113 699 113 q 799 125 776 113 q 829 137 823 137 q 844 122 844 137 q 780 22 844 62 q 697 -7 736 -7 q 634 2 658 -7 q 592 31 610 12 q 555 153 555 72 q 578 300 555 216 q 613 420 602 385 l 543 313 q 173 -7 323 -7 q 38 79 71 -7 q 28 127 28 106 l 28 153 q 123 467 28 239 l 264 795 q 305 916 305 892 q 297 950 305 939 q 279 968 289 962 l 260 982 q 252 998 252 987 q 263 1020 252 1009 q 292 1039 274 1031 q 361 1055 327 1055 q 414 1047 395 1055 q 445 1029 433 1040 q 469 976 469 1007 q 457 901 469 944 q 426 808 445 859 q 381 701 406 758 l 278 475 q 180 189 180 258 l 180 178 q 229 114 180 114 q 461 338 318 114 q 547 479 504 405 l 629 631 q 834 1023 807 975 q 873 1047 848 1047 q 915 1040 898 1047 q 944 1021 932 1033 q 958 967 972 994 q 802 574 894 844 q 699 178 699 277 m 782 1156 q 765 1144 782 1156 q 709 1119 747 1133 q 647 1105 671 1105 q 616 1112 622 1104 q 618 1144 603 1130 l 649 1174 q 736 1295 713 1232 l 749 1333 q 800 1355 758 1360 q 858 1323 836 1351 q 874 1265 880 1296 q 842 1206 868 1234 q 782 1156 817 1178 z "},"":{"ha":867,"x_min":28,"x_max":972,"o":"m 699 178 q 747 113 699 113 q 799 125 776 113 q 829 137 823 137 q 844 122 844 137 q 780 22 844 62 q 697 -7 736 -7 q 634 2 658 -7 q 592 31 610 12 q 555 153 555 72 q 578 300 555 216 q 613 420 602 385 l 543 313 q 173 -7 323 -7 q 38 79 71 -7 q 28 127 28 106 l 28 153 q 123 467 28 239 l 264 795 q 305 916 305 892 q 297 950 305 939 q 279 968 289 962 l 260 982 q 252 998 252 987 q 263 1020 252 1009 q 292 1039 274 1031 q 361 1055 327 1055 q 414 1047 395 1055 q 445 1029 433 1040 q 469 976 469 1007 q 457 901 469 944 q 426 808 445 859 q 381 701 406 758 l 278 475 q 180 189 180 258 l 180 178 q 229 114 180 114 q 461 338 318 114 q 547 479 504 405 l 629 631 q 834 1023 807 975 q 873 1047 848 1047 q 915 1040 898 1047 q 944 1021 932 1033 q 958 967 972 994 q 802 574 894 844 q 699 178 699 277 m 694 1216 q 526 1113 606 1141 q 498 1107 514 1107 q 472 1112 483 1107 q 452 1122 460 1116 q 435 1152 435 1136 q 453 1174 435 1168 q 498 1192 471 1179 q 559 1226 526 1205 q 717 1351 636 1274 q 749 1347 726 1360 q 798 1305 794 1324 q 810 1264 801 1286 q 831 1221 819 1242 q 884 1144 854 1182 q 870 1118 893 1131 q 811 1107 847 1104 q 741 1137 775 1109 q 694 1216 707 1164 z "},"":{"ha":867,"x_min":28,"x_max":972,"o":"m 699 178 q 747 113 699 113 q 799 125 776 113 q 829 137 823 137 q 844 122 844 137 q 780 22 844 62 q 697 -7 736 -7 q 634 2 658 -7 q 592 31 610 12 q 555 153 555 72 q 578 300 555 216 q 613 420 602 385 l 543 313 q 173 -7 323 -7 q 38 79 71 -7 q 28 127 28 106 l 28 153 q 123 467 28 239 l 264 795 q 305 916 305 892 q 297 950 305 939 q 279 968 289 962 l 260 982 q 252 998 252 987 q 263 1020 252 1009 q 292 1039 274 1031 q 361 1055 327 1055 q 414 1047 395 1055 q 445 1029 433 1040 q 469 976 469 1007 q 457 901 469 944 q 426 808 445 859 q 381 701 406 758 l 278 475 q 180 189 180 258 l 180 178 q 229 114 180 114 q 461 338 318 114 q 547 479 504 405 l 629 631 q 834 1023 807 975 q 873 1047 848 1047 q 915 1040 898 1047 q 944 1021 932 1033 q 958 967 972 994 q 802 574 894 844 q 699 178 699 277 m 907 1164 q 900 1156 907 1164 q 873 1138 892 1148 q 833 1126 854 1128 q 794 1133 812 1124 q 762 1157 775 1141 q 732 1226 732 1192 q 744 1278 732 1261 q 772 1306 755 1295 q 833 1327 804 1327 q 878 1323 862 1327 q 908 1310 894 1319 q 941 1255 941 1287 q 931 1201 941 1223 q 907 1164 922 1180 m 595 1164 q 588 1156 595 1164 q 562 1138 581 1148 q 522 1126 543 1128 q 482 1133 500 1124 q 450 1157 463 1141 q 420 1226 420 1192 q 432 1278 420 1261 q 460 1306 443 1295 q 521 1327 492 1327 q 566 1323 550 1327 q 596 1310 582 1319 q 629 1255 629 1287 q 620 1201 629 1223 q 595 1164 610 1180 z "},"":{"ha":806,"x_min":24,"x_max":968,"o":"m 176 178 q 224 114 176 114 q 457 338 314 114 q 543 479 500 405 l 625 631 q 830 1023 803 975 q 869 1047 844 1047 q 911 1040 894 1047 q 940 1021 928 1033 q 954 967 968 994 q 866 770 907 879 l 696 297 q 640 158 669 225 q 575 26 611 92 q 497 -100 538 -40 q 410 -211 456 -159 q 317 -300 365 -262 q 124 -380 216 -380 q 90 -372 106 -380 q 69 -349 73 -363 q 74 -328 66 -334 q 96 -317 82 -323 q 449 56 283 -248 q 539 242 498 145 q 600 406 587 368 l 532 302 q 169 -7 318 -7 q 34 81 68 -7 q 24 129 24 109 l 24 155 q 119 467 24 237 l 260 795 q 301 916 301 893 q 293 950 301 939 q 275 968 285 962 l 256 982 q 248 998 248 987 q 259 1020 248 1009 q 288 1039 270 1031 q 357 1055 323 1055 q 410 1047 391 1055 q 441 1029 429 1040 q 465 976 465 1007 q 453 901 465 944 q 421 808 441 859 q 377 701 402 758 l 274 475 q 176 189 176 258 l 176 178 m 772 1156 q 755 1144 772 1156 q 700 1119 738 1133 q 637 1105 662 1105 q 606 1112 612 1104 q 608 1144 593 1130 l 640 1174 q 726 1295 703 1232 l 739 1333 q 790 1355 748 1360 q 848 1323 826 1351 q 865 1265 871 1296 q 833 1206 859 1234 q 772 1156 807 1178 z "},"":{"ha":733,"x_min":-66,"x_max":748,"o":"m 609 328 q 577 308 609 328 q 463 268 545 288 q 320 248 380 248 q 229 250 260 248 q 138 102 177 149 q -13 -5 47 -5 q -62 25 -49 -5 q -66 44 -66 33 q -56 62 -66 55 q 180 506 61 149 q 277 882 250 714 q 284 954 284 928 q 233 939 256 952 l 182 909 q 125 928 161 898 q 167 1035 47 993 q 252 1055 224 1055 q 301 1054 281 1055 q 339 1048 322 1053 q 404 1018 370 1042 q 427 878 442 989 q 411 788 421 838 q 670 722 580 792 q 748 574 748 661 q 710 428 748 488 q 609 328 672 368 m 267 332 q 510 411 416 344 q 604 576 604 479 q 540 685 604 658 q 488 694 515 694 q 419 689 444 694 q 392 683 395 683 q 386 682 389 682 q 267 332 336 489 z "},"":{"ha":723,"x_min":-70,"x_max":747,"o":"m -10 -190 q -70 -149 -70 -190 q -50 -95 -70 -134 q -4 20 -30 -56 q 45 181 22 96 q 90 355 68 266 l 133 534 q 216 814 182 727 q 280 959 250 902 q 349 1057 311 1016 q 532 1144 428 1144 q 707 1073 652 1144 q 747 950 747 1021 q 730 834 747 880 q 686 753 712 788 q 629 690 660 718 q 572 635 598 663 q 528 578 546 608 q 511 516 511 549 q 523 457 511 483 q 552 406 534 431 q 591 353 570 380 q 629 299 612 327 q 671 187 671 235 q 650 105 671 140 q 593 46 628 71 q 429 -6 520 -6 q 292 37 341 -6 q 251 117 251 73 q 283 191 251 163 q 342 215 309 215 q 370 187 370 215 q 388 121 370 145 q 471 78 421 78 q 538 112 520 78 q 545 141 545 124 q 532 179 545 159 q 501 224 519 199 l 461 275 q 377 469 377 379 q 441 642 377 551 q 500 717 468 680 q 559 794 532 754 q 623 974 623 888 q 557 1059 623 1059 q 397 910 466 1059 q 286 557 341 789 l 241 372 q 85 -132 158 23 q 24 -184 67 -170 q -10 -190 8 -190 z "},"":{"ha":752,"x_min":37,"x_max":755,"o":"m 568 180 q 612 118 568 118 q 663 127 643 118 q 690 137 683 137 q 704 122 704 137 q 643 22 704 64 q 511 0 578 -22 q 446 67 467 16 q 436 115 436 94 q 443 190 436 151 q 286 12 380 61 q 207 -7 249 -7 q 134 11 165 -7 q 81 58 103 28 q 41 218 37 122 q 113 455 45 339 q 269 632 174 564 q 445 702 363 702 q 577 627 527 702 q 660 702 624 702 q 718 688 699 702 q 745 640 755 661 q 570 206 574 292 q 568 180 568 194 m 192 178 q 244 96 192 96 q 342 164 284 96 q 494 433 428 264 q 529 538 515 486 q 490 606 526 585 q 454 614 478 614 q 398 596 430 614 q 335 548 366 578 q 279 476 305 517 q 233 385 253 434 q 192 178 192 281 m 545 1060 q 538 932 538 947 q 558 831 538 878 q 581 784 581 795 q 573 767 581 773 q 547 760 564 760 q 500 781 529 760 q 447 834 471 801 q 387 992 388 913 q 406 1051 387 1030 q 492 1090 444 1090 q 540 1074 527 1090 q 545 1060 545 1068 z "},"":{"ha":752,"x_min":37,"x_max":755,"o":"m 568 180 q 612 118 568 118 q 663 127 643 118 q 690 137 683 137 q 704 122 704 137 q 643 22 704 64 q 511 0 578 -22 q 446 67 467 16 q 436 115 436 94 q 443 190 436 151 q 286 12 380 61 q 207 -7 249 -7 q 134 11 165 -7 q 81 58 103 28 q 41 218 37 122 q 113 455 45 339 q 269 632 174 564 q 445 702 363 702 q 577 627 527 702 q 660 702 624 702 q 718 688 699 702 q 745 640 755 661 q 570 206 574 292 q 568 180 568 194 m 192 178 q 244 96 192 96 q 342 164 284 96 q 494 433 428 264 q 529 538 515 486 q 490 606 526 585 q 454 614 478 614 q 398 596 430 614 q 335 548 366 578 q 279 476 305 517 q 233 385 253 434 q 192 178 192 281 m 449 772 q 404 761 422 762 q 378 768 385 760 q 380 800 364 786 l 411 830 q 550 1068 511 926 q 601 1090 557 1095 q 659 1054 637 1085 q 615 887 709 985 q 449 772 540 808 z "},"":{"ha":752,"x_min":37,"x_max":755,"o":"m 568 180 q 612 118 568 118 q 663 127 643 118 q 690 137 683 137 q 704 122 704 137 q 643 22 704 64 q 511 0 578 -22 q 446 67 467 16 q 436 115 436 94 q 443 190 436 151 q 286 12 380 61 q 207 -7 249 -7 q 134 11 165 -7 q 81 58 103 28 q 41 218 37 122 q 113 455 45 339 q 269 632 174 564 q 445 702 363 702 q 577 627 527 702 q 660 702 624 702 q 718 688 699 702 q 745 640 755 661 q 570 206 574 292 q 568 180 568 194 m 192 178 q 244 96 192 96 q 342 164 284 96 q 494 433 428 264 q 529 538 515 486 q 490 606 526 585 q 454 614 478 614 q 398 596 430 614 q 335 548 366 578 q 279 476 305 517 q 233 385 253 434 q 192 178 192 281 m 566 927 q 352 782 436 813 q 324 777 338 777 q 298 781 309 777 q 278 791 286 785 q 260 822 260 806 q 279 843 260 837 q 501 985 358 869 q 592 1068 549 1023 q 625 1064 601 1077 q 672 1025 669 1041 q 740 813 697 873 q 726 787 749 800 q 673 776 703 773 q 603 819 630 779 q 566 927 576 860 z "},"":{"ha":752,"x_min":37,"x_max":800,"o":"m 568 180 q 612 118 568 118 q 663 127 643 118 q 690 137 683 137 q 704 122 704 137 q 643 22 704 64 q 511 0 578 -22 q 446 67 467 16 q 436 115 436 94 q 443 190 436 151 q 286 12 380 61 q 207 -7 249 -7 q 134 11 165 -7 q 81 58 103 28 q 41 218 37 122 q 113 455 45 339 q 269 632 174 564 q 445 702 363 702 q 577 627 527 702 q 660 702 624 702 q 718 688 699 702 q 745 640 755 661 q 570 206 574 292 q 568 180 568 194 m 192 178 q 244 96 192 96 q 342 164 284 96 q 494 433 428 264 q 529 538 515 486 q 490 606 526 585 q 454 614 478 614 q 398 596 430 614 q 335 548 366 578 q 279 476 305 517 q 233 385 253 434 q 192 178 192 281 m 300 831 q 269 866 267 831 q 290 933 271 902 q 338 991 309 965 q 471 1050 403 1050 q 571 1000 528 1050 l 593 975 q 637 948 616 948 q 674 955 659 948 q 701 972 689 962 q 739 1019 718 986 q 764 1042 748 1042 q 797 1000 800 1042 q 726 880 793 939 q 588 821 658 821 q 488 872 530 821 l 467 897 q 423 924 444 924 q 389 917 402 924 q 364 900 375 910 q 331 857 347 884 q 300 831 315 831 z "},"":{"ha":752,"x_min":37,"x_max":791,"o":"m 568 180 q 612 118 568 118 q 663 127 643 118 q 690 137 683 137 q 704 122 704 137 q 643 22 704 64 q 511 0 578 -22 q 446 67 467 16 q 436 115 436 94 q 443 190 436 151 q 286 12 380 61 q 207 -7 249 -7 q 134 11 165 -7 q 81 58 103 28 q 41 218 37 122 q 113 455 45 339 q 269 632 174 564 q 445 702 363 702 q 577 627 527 702 q 660 702 624 702 q 718 688 699 702 q 745 640 755 661 q 570 206 574 292 q 568 180 568 194 m 192 178 q 244 96 192 96 q 342 164 284 96 q 494 433 428 264 q 529 538 515 486 q 490 606 526 585 q 454 614 478 614 q 398 596 430 614 q 335 548 366 578 q 279 476 305 517 q 233 385 253 434 q 192 178 192 281 m 758 859 q 751 851 758 859 q 724 833 743 843 q 684 821 705 823 q 645 827 663 819 q 612 852 626 836 q 583 921 583 886 q 594 973 583 956 q 623 1001 606 990 q 684 1022 655 1022 q 729 1018 713 1022 q 759 1004 745 1014 q 791 950 791 982 q 782 896 791 918 q 758 859 773 875 m 446 859 q 439 851 446 859 q 412 833 431 843 q 372 821 393 823 q 333 827 351 819 q 300 852 314 836 q 271 921 271 886 q 282 973 271 956 q 311 1001 294 990 q 372 1022 343 1022 q 417 1018 401 1022 q 447 1004 433 1014 q 479 950 479 982 q 470 896 479 918 q 446 859 461 875 z "},"":{"ha":752,"x_min":37,"x_max":755,"o":"m 568 180 q 612 118 568 118 q 663 127 643 118 q 690 137 683 137 q 704 122 704 137 q 643 22 704 64 q 511 0 578 -22 q 446 67 467 16 q 436 115 436 94 q 443 190 436 151 q 286 12 380 61 q 207 -7 249 -7 q 134 11 165 -7 q 81 58 103 28 q 41 218 37 122 q 113 455 45 339 q 269 632 174 564 q 445 702 363 702 q 577 627 527 702 q 660 702 624 702 q 718 688 699 702 q 745 640 755 661 q 570 206 574 292 q 568 180 568 194 m 192 178 q 244 96 192 96 q 342 164 284 96 q 494 433 428 264 q 529 538 515 486 q 490 606 526 585 q 454 614 478 614 q 398 596 430 614 q 335 548 366 578 q 279 476 305 517 q 233 385 253 434 q 192 178 192 281 m 661 843 q 647 829 661 843 q 593 797 633 814 q 511 780 553 780 q 440 788 469 780 q 389 812 410 795 q 345 913 345 846 q 406 1052 345 993 q 568 1116 472 1116 q 709 1041 675 1116 q 721 979 721 1015 q 705 907 721 943 q 661 843 690 871 m 488 846 q 513 841 497 841 q 547 854 530 841 q 577 887 564 867 q 603 983 603 930 q 555 1055 603 1055 q 492 1013 520 1055 q 461 909 461 970 q 488 846 461 865 z "},"":{"ha":1068,"x_min":37,"x_max":1044,"o":"m 741 667 q 876 702 808 702 q 1031 606 991 702 q 1043 529 1044 574 q 1026 447 1042 485 q 981 379 1010 410 q 912 323 952 348 q 826 282 873 299 q 620 247 730 248 q 616 218 617 237 q 621 176 616 199 q 636 134 625 153 q 707 94 661 94 q 861 140 786 94 q 904 172 887 155 q 932 189 920 189 q 954 174 945 189 q 963 141 963 159 q 943 79 963 105 q 688 -7 857 -7 q 507 78 569 -7 q 475 148 486 107 l 475 149 l 471 165 l 460 199 q 290 14 393 68 q 208 -7 251 -7 q 134 11 165 -7 q 81 58 103 28 q 41 218 37 122 q 113 455 45 339 q 269 632 174 564 q 445 702 363 702 q 577 627 527 702 q 660 702 624 702 q 707 692 684 702 q 741 667 730 682 m 192 212 q 244 96 192 96 q 342 164 284 96 q 494 433 428 264 q 529 538 515 486 q 490 606 526 585 q 454 614 478 614 q 398 596 430 614 q 335 549 366 579 q 279 480 305 519 q 233 395 253 440 q 192 212 192 299 m 840 612 q 704 514 769 612 q 614 315 648 430 q 810 404 727 326 q 887 545 887 477 q 840 612 887 612 z "},"":{"ha":646,"x_min":41,"x_max":634,"o":"m 289 -6 q 330 -117 330 -65 q 316 -204 330 -170 q 281 -262 302 -238 q 179 -312 237 -312 q 130 -294 147 -312 q 100 -232 100 -263 q 117 -206 100 -210 q 135 -202 125 -204 q 160 -192 146 -201 q 186 -168 174 -182 q 208 -137 199 -154 q 227 -75 227 -103 q 189 4 227 -18 q 79 83 117 25 q 43 217 41 141 q 62 352 45 293 q 108 463 79 410 q 177 559 137 515 q 263 635 216 603 q 469 702 361 702 q 620 613 580 702 q 633 541 634 581 q 620 467 632 500 q 589 407 608 433 q 506 347 548 347 q 437 373 459 347 q 425 425 417 395 q 437 441 427 434 q 463 464 447 448 q 509 572 507 510 q 457 614 510 614 q 338 550 400 614 q 210 312 247 457 q 222 127 177 186 q 294 94 248 94 q 441 148 370 94 q 477 182 463 165 q 502 200 490 200 q 521 189 513 200 q 529 160 529 178 q 493 81 529 120 q 289 -6 408 -1 z "},"":{"ha":655,"x_min":47,"x_max":631,"o":"m 52 237 q 71 350 54 296 q 117 455 88 404 q 183 550 145 505 q 267 629 222 595 q 463 702 363 702 q 617 606 578 702 q 630 529 631 574 q 613 447 629 485 q 568 379 597 410 q 499 323 539 348 q 413 282 460 299 q 207 247 317 248 q 203 218 204 237 q 208 176 203 199 q 224 134 212 153 q 294 94 248 94 q 448 140 373 94 q 491 172 474 155 q 519 189 507 189 q 541 174 532 189 q 550 141 550 159 q 530 79 550 105 q 275 -7 444 -7 q 115 53 176 -7 q 52 237 47 121 m 448 612 q 311 514 376 612 q 221 315 255 430 q 418 404 334 326 q 494 545 494 477 q 448 612 494 612 m 491 1060 q 485 932 485 947 q 505 831 485 878 q 528 784 528 795 q 519 767 528 773 q 493 760 511 760 q 447 781 475 760 q 393 834 418 801 q 333 992 334 913 q 353 1051 333 1030 q 438 1090 390 1090 q 486 1074 473 1090 q 491 1060 491 1068 z "},"":{"ha":655,"x_min":47,"x_max":655,"o":"m 52 237 q 71 350 54 296 q 117 455 88 404 q 183 550 145 505 q 267 629 222 595 q 463 702 363 702 q 617 606 578 702 q 630 529 631 574 q 613 447 629 485 q 568 379 597 410 q 499 323 539 348 q 413 282 460 299 q 207 247 317 248 q 203 218 204 237 q 208 176 203 199 q 224 134 212 153 q 294 94 248 94 q 448 140 373 94 q 491 172 474 155 q 519 189 507 189 q 541 174 532 189 q 550 141 550 159 q 530 79 550 105 q 275 -7 444 -7 q 115 53 176 -7 q 52 237 47 121 m 448 612 q 311 514 376 612 q 221 315 255 430 q 418 404 334 326 q 494 545 494 477 q 448 612 494 612 m 395 772 q 350 761 369 762 q 325 768 331 760 q 326 800 311 786 l 357 830 q 496 1068 458 926 q 547 1090 503 1095 q 606 1054 583 1085 q 562 887 655 985 q 395 772 486 808 z "},"":{"ha":655,"x_min":47,"x_max":695,"o":"m 52 237 q 71 350 54 296 q 117 455 88 404 q 183 550 145 505 q 267 629 222 595 q 463 702 363 702 q 617 606 578 702 q 630 529 631 574 q 613 447 629 485 q 568 379 597 410 q 499 323 539 348 q 413 282 460 299 q 207 247 317 248 q 203 218 204 237 q 208 176 203 199 q 224 134 212 153 q 294 94 248 94 q 448 140 373 94 q 491 172 474 155 q 519 189 507 189 q 541 174 532 189 q 550 141 550 159 q 530 79 550 105 q 275 -7 444 -7 q 115 53 176 -7 q 52 237 47 121 m 448 612 q 311 514 376 612 q 221 315 255 430 q 418 404 334 326 q 494 545 494 477 q 448 612 494 612 m 513 927 q 298 782 382 813 q 270 777 285 777 q 244 781 256 777 q 224 791 233 785 q 207 822 207 806 q 225 843 207 837 q 448 985 304 869 q 538 1068 495 1023 q 571 1064 547 1077 q 618 1025 616 1041 q 686 813 644 873 q 672 787 695 800 q 620 776 649 773 q 549 819 576 779 q 513 927 522 860 z "},"":{"ha":655,"x_min":47,"x_max":738,"o":"m 52 237 q 71 350 54 296 q 117 455 88 404 q 183 550 145 505 q 267 629 222 595 q 463 702 363 702 q 617 606 578 702 q 630 529 631 574 q 613 447 629 485 q 568 379 597 410 q 499 323 539 348 q 413 282 460 299 q 207 247 317 248 q 203 218 204 237 q 208 176 203 199 q 224 134 212 153 q 294 94 248 94 q 448 140 373 94 q 491 172 474 155 q 519 189 507 189 q 541 174 532 189 q 550 141 550 159 q 530 79 550 105 q 275 -7 444 -7 q 115 53 176 -7 q 52 237 47 121 m 448 612 q 311 514 376 612 q 221 315 255 430 q 418 404 334 326 q 494 545 494 477 q 448 612 494 612 m 705 859 q 697 851 705 859 q 671 833 690 843 q 631 821 652 823 q 591 827 610 819 q 559 852 572 836 q 530 921 530 886 q 541 973 530 956 q 569 1001 552 990 q 630 1022 602 1022 q 675 1018 659 1022 q 705 1004 691 1014 q 738 950 738 982 q 729 896 738 918 q 705 859 720 875 m 393 859 q 385 851 393 859 q 359 833 378 843 q 319 821 340 823 q 279 827 298 819 q 247 852 260 836 q 218 921 218 886 q 229 973 218 956 q 257 1001 240 990 q 318 1022 290 1022 q 363 1018 347 1022 q 393 1004 379 1014 q 426 950 426 982 q 417 896 426 918 q 393 859 408 875 z "},"":{"ha":397,"x_min":38,"x_max":389,"o":"m 276 127 q 294 104 294 127 q 266 41 294 73 q 157 -7 225 -7 q 49 57 78 -7 q 38 111 38 79 q 49 182 38 143 q 77 264 60 221 q 113 351 94 307 l 149 437 q 189 563 189 532 q 182 603 189 593 q 168 618 176 613 l 155 628 q 148 645 148 633 q 157 667 148 656 q 181 686 166 678 q 252 702 212 702 q 352 650 352 702 q 320 510 352 589 q 266 384 288 432 l 225 290 q 180 142 180 187 q 210 112 180 112 q 254 119 239 112 q 276 127 269 127 m 352 1060 q 346 932 346 947 q 366 831 346 878 q 389 784 389 795 q 380 767 389 773 q 354 760 372 760 q 308 781 336 760 q 254 834 279 801 q 194 992 195 913 q 214 1051 194 1030 q 299 1090 251 1090 q 347 1074 334 1090 q 352 1060 352 1068 z "},"":{"ha":397,"x_min":38,"x_max":516,"o":"m 276 127 q 294 104 294 127 q 266 41 294 73 q 157 -7 225 -7 q 49 57 78 -7 q 38 111 38 79 q 49 182 38 143 q 77 264 60 221 q 113 351 94 307 l 149 437 q 189 563 189 532 q 182 603 189 593 q 168 618 176 613 l 155 628 q 148 645 148 633 q 157 667 148 656 q 181 686 166 678 q 252 702 212 702 q 352 650 352 702 q 320 510 352 589 q 266 384 288 432 l 225 290 q 180 142 180 187 q 210 112 180 112 q 254 119 239 112 q 276 127 269 127 m 256 772 q 211 761 230 762 q 186 768 192 760 q 187 800 172 786 l 218 830 q 357 1068 319 926 q 408 1090 364 1095 q 467 1054 444 1085 q 422 887 516 985 q 256 772 347 808 z "},"":{"ha":397,"x_min":38,"x_max":556,"o":"m 276 127 q 294 104 294 127 q 266 41 294 73 q 157 -7 225 -7 q 49 57 78 -7 q 38 111 38 79 q 49 182 38 143 q 77 264 60 221 q 113 351 94 307 l 149 437 q 189 563 189 532 q 182 603 189 593 q 168 618 176 613 l 155 628 q 148 645 148 633 q 157 667 148 656 q 181 686 166 678 q 252 702 212 702 q 352 650 352 702 q 320 510 352 589 q 266 384 288 432 l 225 290 q 180 142 180 187 q 210 112 180 112 q 254 119 239 112 q 276 127 269 127 m 374 927 q 159 782 243 813 q 131 777 146 777 q 105 781 117 777 q 85 791 94 785 q 68 822 68 806 q 86 843 68 837 q 309 985 165 869 q 399 1068 356 1023 q 432 1064 408 1077 q 479 1025 477 1041 q 547 813 505 873 q 533 787 556 800 q 481 776 510 773 q 410 819 437 779 q 374 927 383 860 z "},"":{"ha":397,"x_min":38,"x_max":599,"o":"m 276 127 q 294 104 294 127 q 266 41 294 73 q 157 -7 225 -7 q 49 57 78 -7 q 38 111 38 79 q 49 182 38 143 q 77 264 60 221 q 113 351 94 307 l 149 437 q 189 563 189 532 q 182 603 189 593 q 168 618 176 613 l 155 628 q 148 645 148 633 q 157 667 148 656 q 181 686 166 678 q 252 702 212 702 q 352 650 352 702 q 320 510 352 589 q 266 384 288 432 l 225 290 q 180 142 180 187 q 210 112 180 112 q 254 119 239 112 q 276 127 269 127 m 566 859 q 558 851 566 859 q 532 833 551 843 q 492 821 513 823 q 452 827 471 819 q 420 852 433 836 q 391 921 391 886 q 402 973 391 956 q 430 1001 413 990 q 491 1022 463 1022 q 536 1018 520 1022 q 566 1004 552 1014 q 599 950 599 982 q 590 896 599 918 q 566 859 581 875 m 254 859 q 246 851 254 859 q 220 833 239 843 q 180 821 201 823 q 140 827 159 819 q 108 852 121 836 q 79 921 79 886 q 90 973 79 956 q 118 1001 101 990 q 179 1022 151 1022 q 224 1018 208 1022 q 254 1004 240 1014 q 287 950 287 982 q 278 896 287 918 q 254 859 269 875 z "},"":{"ha":729,"x_min":52,"x_max":869,"o":"m 721 893 q 735 766 735 827 q 726 640 735 704 q 700 510 718 575 q 657 381 683 444 q 599 260 632 317 q 526 154 566 203 q 439 69 486 105 q 228 -7 340 -7 q 104 47 152 -7 q 52 214 52 106 q 111 433 52 318 q 261 622 170 549 q 461 702 360 702 q 542 679 510 702 q 589 623 574 656 q 612 793 612 710 q 611 861 612 830 q 484 809 534 835 q 425 783 434 783 q 406 802 406 783 q 435 855 406 826 q 488 901 464 884 q 597 962 534 935 q 569 1039 584 1013 q 549 1073 555 1064 l 537 1089 q 524 1118 524 1107 q 568 1145 524 1145 q 661 1057 609 1145 q 690 995 676 1029 q 769 1010 741 1010 q 812 1004 797 1010 q 841 987 828 998 q 869 930 869 962 q 844 911 869 914 q 797 906 819 908 q 756 901 774 904 q 721 893 739 897 m 544 505 q 457 614 541 614 q 338 546 399 614 q 241 385 280 483 q 201 191 201 285 q 218 117 201 146 q 262 88 234 88 q 315 107 290 88 q 367 157 341 125 q 418 230 393 188 q 467 317 444 271 q 544 505 511 408 z "},"":{"ha":779,"x_min":1,"x_max":804,"o":"m 538 574 q 478 533 517 574 q 411 460 439 493 l 353 391 l 242 249 q 180 125 203 174 l 144 46 q 119 5 130 17 q 91 -7 109 -7 q 56 0 73 -7 q 27 16 39 6 q 1 64 1 38 q 16 104 1 74 l 42 159 q 71 221 54 183 l 109 314 q 189 572 189 514 q 168 618 189 604 l 155 628 q 148 645 148 633 q 157 667 148 656 q 181 686 166 678 q 242 702 212 702 q 290 695 273 702 q 319 677 307 688 q 344 627 344 653 q 337 575 344 602 q 321 523 331 549 q 300 470 311 496 q 281 425 290 444 l 267 396 q 264 389 262 385 q 363 524 340 494 l 411 581 q 493 661 463 642 q 588 702 553 702 q 646 693 623 702 q 688 668 670 684 q 725 580 725 633 q 701 468 725 526 q 658 373 676 410 q 624 300 640 337 q 573 135 573 186 q 610 112 573 112 q 662 124 638 112 q 692 136 685 136 q 706 122 706 136 q 644 21 706 62 q 568 -7 603 -7 q 511 1 534 -7 q 471 24 488 8 q 431 125 431 60 q 480 321 431 203 q 531 432 516 402 l 554 480 q 575 549 575 524 q 538 574 575 574 m 305 831 q 274 866 272 831 q 295 933 276 902 q 342 991 313 965 q 475 1050 408 1050 q 576 1000 532 1050 l 597 975 q 642 948 621 948 q 679 955 663 948 q 706 972 694 962 q 744 1019 723 986 q 769 1042 753 1042 q 802 1000 804 1042 q 730 880 798 939 q 593 821 663 821 q 493 872 535 821 l 472 897 q 428 924 449 924 q 393 917 407 924 q 369 900 380 910 q 336 857 352 884 q 305 831 320 831 z "},"":{"ha":714,"x_min":49,"x_max":682,"o":"m 111 46 q 97 60 111 46 q 66 115 83 73 q 50 214 50 157 q 63 329 49 271 q 105 441 78 387 q 169 543 132 496 q 252 626 207 591 q 458 702 351 702 q 647 579 597 702 q 651 364 682 490 q 547 151 623 248 q 369 14 471 54 q 268 -7 317 -7 q 179 6 218 -7 q 111 46 140 19 m 241 375 q 231 350 241 375 q 209 272 220 325 q 197 172 197 219 q 212 98 198 125 q 257 71 226 71 q 318 93 288 71 q 377 149 349 114 q 431 231 406 184 q 475 327 456 277 q 515 521 516 436 q 484 616 515 595 q 450 624 472 624 q 399 604 428 624 q 342 550 371 584 q 288 471 314 516 q 241 375 261 425 m 560 1060 q 554 932 554 947 q 574 831 554 878 q 597 784 597 795 q 588 767 597 773 q 562 760 580 760 q 516 781 545 760 q 463 834 487 801 q 402 992 404 913 q 422 1051 402 1030 q 507 1090 459 1090 q 555 1074 543 1090 q 560 1060 560 1068 z "},"":{"ha":714,"x_min":49,"x_max":724,"o":"m 111 46 q 97 60 111 46 q 66 115 83 73 q 50 214 50 157 q 63 329 49 271 q 105 441 78 387 q 169 543 132 496 q 252 626 207 591 q 458 702 351 702 q 647 579 597 702 q 651 364 682 490 q 547 151 623 248 q 369 14 471 54 q 268 -7 317 -7 q 179 6 218 -7 q 111 46 140 19 m 241 375 q 231 350 241 375 q 209 272 220 325 q 197 172 197 219 q 212 98 198 125 q 257 71 226 71 q 318 93 288 71 q 377 149 349 114 q 431 231 406 184 q 475 327 456 277 q 515 521 516 436 q 484 616 515 595 q 450 624 472 624 q 399 604 428 624 q 342 550 371 584 q 288 471 314 516 q 241 375 261 425 m 465 772 q 419 761 438 762 q 394 768 400 760 q 395 800 380 786 l 427 830 q 566 1068 527 926 q 616 1090 572 1095 q 675 1054 652 1085 q 631 887 724 985 q 465 772 555 808 z "},"":{"ha":714,"x_min":49,"x_max":764,"o":"m 111 46 q 97 60 111 46 q 66 115 83 73 q 50 214 50 157 q 63 329 49 271 q 105 441 78 387 q 169 543 132 496 q 252 626 207 591 q 458 702 351 702 q 647 579 597 702 q 651 364 682 490 q 547 151 623 248 q 369 14 471 54 q 268 -7 317 -7 q 179 6 218 -7 q 111 46 140 19 m 241 375 q 231 350 241 375 q 209 272 220 325 q 197 172 197 219 q 212 98 198 125 q 257 71 226 71 q 318 93 288 71 q 377 149 349 114 q 431 231 406 184 q 475 327 456 277 q 515 521 516 436 q 484 616 515 595 q 450 624 472 624 q 399 604 428 624 q 342 550 371 584 q 288 471 314 516 q 241 375 261 425 m 582 927 q 368 782 452 813 q 339 777 354 777 q 313 781 325 777 q 294 791 302 785 q 276 822 276 806 q 294 843 276 837 q 517 985 374 869 q 608 1068 564 1023 q 640 1064 616 1077 q 688 1025 685 1041 q 755 813 713 873 q 741 787 764 800 q 689 776 718 773 q 618 819 646 779 q 582 927 591 860 z "},"":{"ha":714,"x_min":49,"x_max":815,"o":"m 111 46 q 97 60 111 46 q 66 115 83 73 q 50 214 50 157 q 63 329 49 271 q 105 441 78 387 q 169 543 132 496 q 252 626 207 591 q 458 702 351 702 q 647 579 597 702 q 651 364 682 490 q 547 151 623 248 q 369 14 471 54 q 268 -7 317 -7 q 179 6 218 -7 q 111 46 140 19 m 241 375 q 231 350 241 375 q 209 272 220 325 q 197 172 197 219 q 212 98 198 125 q 257 71 226 71 q 318 93 288 71 q 377 149 349 114 q 431 231 406 184 q 475 327 456 277 q 515 521 516 436 q 484 616 515 595 q 450 624 472 624 q 399 604 428 624 q 342 550 371 584 q 288 471 314 516 q 241 375 261 425 m 316 831 q 285 866 283 831 q 306 933 287 902 q 353 991 324 965 q 486 1050 418 1050 q 587 1000 543 1050 l 608 975 q 653 948 632 948 q 689 955 674 948 q 717 972 705 962 q 755 1019 734 986 q 780 1042 764 1042 q 812 1000 815 1042 q 741 880 808 939 q 604 821 673 821 q 504 872 546 821 l 483 897 q 439 924 460 924 q 404 917 418 924 q 380 900 391 910 q 347 857 363 884 q 316 831 331 831 z "},"":{"ha":714,"x_min":49,"x_max":807,"o":"m 111 46 q 97 60 111 46 q 66 115 83 73 q 50 214 50 157 q 63 329 49 271 q 105 441 78 387 q 169 543 132 496 q 252 626 207 591 q 458 702 351 702 q 647 579 597 702 q 651 364 682 490 q 547 151 623 248 q 369 14 471 54 q 268 -7 317 -7 q 179 6 218 -7 q 111 46 140 19 m 241 375 q 231 350 241 375 q 209 272 220 325 q 197 172 197 219 q 212 98 198 125 q 257 71 226 71 q 318 93 288 71 q 377 149 349 114 q 431 231 406 184 q 475 327 456 277 q 515 521 516 436 q 484 616 515 595 q 450 624 472 624 q 399 604 428 624 q 342 550 371 584 q 288 471 314 516 q 241 375 261 425 m 774 859 q 766 851 774 859 q 740 833 759 843 q 700 821 721 823 q 660 827 679 819 q 628 852 642 836 q 599 921 599 886 q 610 973 599 956 q 638 1001 621 990 q 700 1022 671 1022 q 744 1018 728 1022 q 774 1004 760 1014 q 807 950 807 982 q 798 896 807 918 q 774 859 789 875 m 462 859 q 454 851 462 859 q 428 833 447 843 q 388 821 409 823 q 348 827 367 819 q 316 852 330 836 q 287 921 287 886 q 298 973 287 956 q 326 1001 309 990 q 388 1022 359 1022 q 432 1018 416 1022 q 463 1004 448 1014 q 495 950 495 982 q 486 896 495 918 q 462 859 477 875 z "},"":{"ha":858,"x_min":109,"x_max":796,"o":"m 526 700 q 519 693 526 700 q 496 677 513 686 q 460 666 479 668 q 423 671 441 664 q 392 691 405 678 q 364 750 364 719 q 373 798 364 781 q 393 825 381 815 q 441 844 416 844 q 485 840 467 844 q 518 829 503 837 q 554 781 554 809 q 546 733 554 753 q 526 700 538 714 m 758 562 q 796 530 796 562 q 781 491 796 507 q 722 464 753 464 l 155 464 q 109 497 109 464 q 123 536 109 520 q 178 562 152 564 l 758 562 m 375 191 q 369 197 375 191 q 355 220 362 203 q 347 258 347 237 q 356 297 347 280 q 377 325 364 315 q 425 343 399 343 q 468 340 450 343 q 500 328 486 336 q 537 281 537 310 q 529 233 537 252 q 509 199 522 214 q 453 166 481 170 q 407 171 425 163 q 375 191 389 178 z "},"":{"ha":714,"x_min":48,"x_max":730,"o":"m 68 -90 q 117 41 71 -39 q 50 214 51 98 q 104 441 48 327 q 252 626 161 555 q 458 702 351 702 q 516 694 486 702 q 611 793 572 776 q 652 804 634 804 q 706 795 682 804 q 730 770 730 786 q 712 737 730 753 q 670 692 695 721 l 616 631 q 665 478 662 574 q 610 252 666 366 q 369 14 523 75 q 277 -7 317 -7 q 214 -3 237 -7 q 180 -54 194 -31 l 154 -103 q 122 -122 144 -122 q 73 -100 94 -122 q 68 -90 68 -95 m 195 132 l 484 618 q 449 624 471 624 q 398 604 427 624 q 339 550 369 584 q 283 471 310 516 q 235 375 256 425 q 191 170 189 264 q 195 132 191 149 m 238 74 q 268 71 247 71 q 320 93 289 71 q 380 149 351 114 q 435 231 409 184 q 480 327 461 277 q 522 521 523 437 q 519 554 522 538 q 410 381 431 417 q 238 74 260 121 z "},"":{"ha":768,"x_min":33,"x_max":768,"o":"m 682 134 q 697 118 697 134 q 639 19 697 59 q 547 -7 600 -7 q 480 14 503 -7 q 439 103 439 50 q 495 309 439 170 q 349 121 391 168 q 275 49 307 75 q 153 -7 208 -7 q 41 66 68 -7 q 33 117 33 88 q 42 181 33 146 q 68 256 52 217 q 102 335 83 294 l 138 416 q 191 602 209 573 q 160 628 182 615 q 152 645 152 633 q 162 667 152 656 q 187 686 172 678 q 254 702 220 702 q 304 695 287 702 q 332 677 321 688 q 355 627 355 654 q 346 567 355 600 q 323 494 337 533 q 292 412 309 454 q 229 267 245 302 l 203 215 q 182 149 182 168 q 189 122 182 130 q 211 115 195 115 q 248 130 227 115 q 294 170 269 144 q 346 228 319 195 q 399 296 373 260 q 473 407 450 365 q 627 673 617 661 q 671 702 648 702 q 711 697 694 702 q 740 682 728 692 q 758 640 768 661 q 580 206 593 295 q 576 164 576 176 q 608 113 576 113 q 656 123 637 113 q 682 134 675 134 m 591 1060 q 585 932 585 947 q 604 831 585 878 q 627 784 627 795 q 619 767 627 773 q 593 760 610 760 q 546 781 575 760 q 493 834 517 801 q 433 992 434 913 q 452 1051 433 1030 q 538 1090 490 1090 q 586 1074 573 1090 q 591 1060 591 1068 z "},"":{"ha":768,"x_min":33,"x_max":768,"o":"m 682 134 q 697 118 697 134 q 639 19 697 59 q 547 -7 600 -7 q 480 14 503 -7 q 439 103 439 50 q 495 309 439 170 q 349 121 391 168 q 275 49 307 75 q 153 -7 208 -7 q 41 66 68 -7 q 33 117 33 88 q 42 181 33 146 q 68 256 52 217 q 102 335 83 294 l 138 416 q 191 602 209 573 q 160 628 182 615 q 152 645 152 633 q 162 667 152 656 q 187 686 172 678 q 254 702 220 702 q 304 695 287 702 q 332 677 321 688 q 355 627 355 654 q 346 567 355 600 q 323 494 337 533 q 292 412 309 454 q 229 267 245 302 l 203 215 q 182 149 182 168 q 189 122 182 130 q 211 115 195 115 q 248 130 227 115 q 294 170 269 144 q 346 228 319 195 q 399 296 373 260 q 473 407 450 365 q 627 673 617 661 q 671 702 648 702 q 711 697 694 702 q 740 682 728 692 q 758 640 768 661 q 580 206 593 295 q 576 164 576 176 q 608 113 576 113 q 656 123 637 113 q 682 134 675 134 m 495 772 q 450 761 469 762 q 425 768 431 760 q 426 800 410 786 l 457 830 q 596 1068 557 926 q 647 1090 603 1095 q 705 1054 683 1085 q 661 887 755 985 q 495 772 586 808 z "},"":{"ha":768,"x_min":33,"x_max":795,"o":"m 682 134 q 697 118 697 134 q 639 19 697 59 q 547 -7 600 -7 q 480 14 503 -7 q 439 103 439 50 q 495 309 439 170 q 349 121 391 168 q 275 49 307 75 q 153 -7 208 -7 q 41 66 68 -7 q 33 117 33 88 q 42 181 33 146 q 68 256 52 217 q 102 335 83 294 l 138 416 q 191 602 209 573 q 160 628 182 615 q 152 645 152 633 q 162 667 152 656 q 187 686 172 678 q 254 702 220 702 q 304 695 287 702 q 332 677 321 688 q 355 627 355 654 q 346 567 355 600 q 323 494 337 533 q 292 412 309 454 q 229 267 245 302 l 203 215 q 182 149 182 168 q 189 122 182 130 q 211 115 195 115 q 248 130 227 115 q 294 170 269 144 q 346 228 319 195 q 399 296 373 260 q 473 407 450 365 q 627 673 617 661 q 671 702 648 702 q 711 697 694 702 q 740 682 728 692 q 758 640 768 661 q 580 206 593 295 q 576 164 576 176 q 608 113 576 113 q 656 123 637 113 q 682 134 675 134 m 612 927 q 398 782 482 813 q 370 777 385 777 q 344 781 355 777 q 324 791 332 785 q 307 822 307 806 q 325 843 307 837 q 547 985 404 869 q 638 1068 595 1023 q 671 1064 647 1077 q 718 1025 715 1041 q 786 813 743 873 q 772 787 795 800 q 720 776 749 773 q 649 819 676 779 q 612 927 622 860 z "},"":{"ha":768,"x_min":33,"x_max":838,"o":"m 682 134 q 697 118 697 134 q 639 19 697 59 q 547 -7 600 -7 q 480 14 503 -7 q 439 103 439 50 q 495 309 439 170 q 349 121 391 168 q 275 49 307 75 q 153 -7 208 -7 q 41 66 68 -7 q 33 117 33 88 q 42 181 33 146 q 68 256 52 217 q 102 335 83 294 l 138 416 q 191 602 209 573 q 160 628 182 615 q 152 645 152 633 q 162 667 152 656 q 187 686 172 678 q 254 702 220 702 q 304 695 287 702 q 332 677 321 688 q 355 627 355 654 q 346 567 355 600 q 323 494 337 533 q 292 412 309 454 q 229 267 245 302 l 203 215 q 182 149 182 168 q 189 122 182 130 q 211 115 195 115 q 248 130 227 115 q 294 170 269 144 q 346 228 319 195 q 399 296 373 260 q 473 407 450 365 q 627 673 617 661 q 671 702 648 702 q 711 697 694 702 q 740 682 728 692 q 758 640 768 661 q 580 206 593 295 q 576 164 576 176 q 608 113 576 113 q 656 123 637 113 q 682 134 675 134 m 804 859 q 797 851 804 859 q 770 833 789 843 q 730 821 751 823 q 691 827 709 819 q 659 852 672 836 q 629 921 629 886 q 641 973 629 956 q 669 1001 652 990 q 730 1022 701 1022 q 775 1018 759 1022 q 805 1004 791 1014 q 838 950 838 982 q 828 896 838 918 q 804 859 819 875 m 492 859 q 485 851 492 859 q 458 833 477 843 q 418 821 439 823 q 379 827 397 819 q 347 852 360 836 q 317 921 317 886 q 329 973 317 956 q 357 1001 340 990 q 418 1022 389 1022 q 463 1018 447 1022 q 493 1004 479 1014 q 526 950 526 982 q 516 896 526 918 q 492 859 507 875 z "},"":{"ha":764,"x_min":39,"x_max":774,"o":"m 47 66 q 39 117 39 88 q 49 181 39 146 q 75 256 59 217 q 109 335 90 294 l 145 416 q 197 602 216 573 q 167 628 189 615 q 159 645 159 633 q 169 667 159 656 q 194 686 178 678 q 260 702 227 702 q 311 695 294 702 q 339 677 328 688 q 361 627 361 654 q 353 567 361 600 q 330 494 344 533 q 298 412 315 454 q 235 267 252 302 l 210 215 q 189 149 189 168 q 195 122 189 130 q 217 115 201 115 q 253 127 233 115 q 294 159 272 139 q 341 207 317 180 q 388 262 365 233 q 477 391 448 337 q 633 673 624 661 q 678 702 655 702 q 718 697 701 702 q 747 682 734 692 q 763 638 774 663 q 738 571 753 614 q 571 105 609 197 q 504 -43 532 13 q 437 -156 475 -99 q 355 -260 399 -213 q 170 -373 256 -366 q 117 -363 136 -376 q 83 -325 83 -343 q 114 -299 83 -307 q 177 -271 144 -292 q 241 -221 210 -250 q 380 -35 330 -136 q 448 132 422 53 l 500 293 q 457 237 481 269 l 408 172 q 302 58 345 92 q 159 -7 222 -7 q 47 66 75 -7 m 460 772 q 414 761 433 762 q 389 768 395 760 q 391 800 375 786 l 422 830 q 561 1068 522 926 q 612 1090 568 1095 q 670 1054 648 1085 q 626 887 720 985 q 460 772 551 808 z "},"":{"ha":767,"x_min":-119,"x_max":715,"o":"m 172 65 q 126 -68 172 65 q 1 -355 40 -315 q -29 -377 -17 -374 q -53 -380 -41 -380 q -113 -345 -94 -380 q -119 -320 -119 -334 q -111 -291 -119 -307 q 19 27 -35 -136 q 102 289 73 191 l 161 482 q 304 939 282 852 q 333 1071 326 1025 q 353 1130 339 1117 q 385 1143 366 1143 q 417 1138 404 1143 q 442 1123 431 1133 q 467 1067 468 1100 q 458 997 465 1035 q 438 914 450 959 q 410 821 426 869 q 346 633 368 692 l 309 534 q 401 644 364 615 q 548 702 474 702 q 703 578 665 702 q 715 475 715 535 q 696 355 715 415 q 647 241 678 295 q 573 142 615 188 q 486 64 532 97 q 302 -7 387 -7 q 172 65 218 -7 m 276 352 q 264 328 276 352 q 236 257 252 304 q 221 180 221 210 q 225 135 221 151 q 237 107 229 119 q 288 81 256 81 q 354 99 321 81 q 417 148 387 117 q 475 219 448 178 q 522 307 502 260 q 564 497 564 407 q 551 573 564 546 q 512 600 538 600 q 456 579 485 600 q 395 524 427 558 q 332 444 363 489 q 276 352 301 399 z "},"":{"ha":764,"x_min":39,"x_max":802,"o":"m 47 66 q 39 117 39 88 q 49 181 39 146 q 75 256 59 217 q 109 335 90 294 l 145 416 q 197 602 216 573 q 167 628 189 615 q 159 645 159 633 q 169 667 159 656 q 194 686 178 678 q 260 702 227 702 q 311 695 294 702 q 339 677 328 688 q 361 627 361 654 q 353 567 361 600 q 330 494 344 533 q 298 412 315 454 q 235 267 252 302 l 210 215 q 189 149 189 168 q 195 122 189 130 q 217 115 201 115 q 253 127 233 115 q 294 159 272 139 q 341 207 317 180 q 388 262 365 233 q 477 391 448 337 q 633 673 624 661 q 678 702 655 702 q 718 697 701 702 q 747 682 734 692 q 763 638 774 663 q 738 571 753 614 q 571 105 609 197 q 504 -43 532 13 q 437 -156 475 -99 q 355 -260 399 -213 q 170 -373 256 -366 q 117 -363 136 -376 q 83 -325 83 -343 q 114 -299 83 -307 q 177 -271 144 -292 q 241 -221 210 -250 q 380 -35 330 -136 q 448 132 422 53 l 500 293 q 457 237 481 269 l 408 172 q 302 58 345 92 q 159 -7 222 -7 q 47 66 75 -7 m 769 859 q 762 851 769 859 q 735 833 754 843 q 695 821 716 823 q 655 827 674 819 q 623 852 637 836 q 594 921 594 886 q 605 973 594 956 q 633 1001 616 990 q 695 1022 666 1022 q 740 1018 724 1022 q 770 1004 755 1014 q 802 950 802 982 q 793 896 802 918 q 769 859 784 875 m 457 859 q 450 851 457 859 q 423 833 442 843 q 383 821 404 823 q 343 827 362 819 q 311 852 325 836 q 282 921 282 886 q 293 973 282 956 q 321 1001 304 990 q 383 1022 354 1022 q 428 1018 412 1022 q 458 1004 444 1014 q 490 950 490 982 q 481 896 490 918 q 457 859 472 875 z "},"":{"ha":855,"x_min":-118,"x_max":1021,"o":"m 505 154 q 557 435 505 245 q 307 425 393 431 q 258 334 280 377 l 216 250 q 66 34 133 86 q -41 -7 16 -7 q -107 22 -85 -7 q -117 44 -115 33 q -112 58 -118 54 q 15 146 -34 87 q 100 277 58 200 l 177 414 l 134 408 q 94 421 94 401 q 118 460 94 441 q 201 502 161 492 l 231 509 q 400 766 342 692 q 508 888 459 839 q 610 974 556 937 q 841 1055 727 1055 q 888 1040 876 1055 q 901 992 908 1018 q 876 920 893 967 q 744 553 768 624 q 764 554 755 554 l 779 554 q 860 539 854 554 q 861 522 861 534 q 853 493 861 509 q 828 465 846 477 q 707 437 792 441 q 655 216 661 277 q 659 134 648 155 q 689 113 669 113 q 720 116 708 113 q 742 125 732 120 l 760 133 q 773 137 766 137 q 785 128 781 137 q 790 104 790 119 q 778 68 790 89 q 745 31 765 47 q 637 -7 697 -7 q 515 75 546 -7 q 505 125 505 103 l 505 154 m 369 532 q 593 551 490 548 q 633 666 612 609 l 675 774 q 718 872 697 826 l 758 956 q 479 712 616 919 q 422 623 450 669 l 369 532 m 534 1180 q 553 1228 534 1206 q 626 1268 591 1268 l 983 1275 q 1021 1247 1021 1276 q 998 1195 1021 1220 q 933 1149 957 1149 q 880 1150 909 1149 q 818 1151 852 1150 q 747 1152 784 1151 l 673 1154 q 562 1159 591 1156 q 534 1180 534 1161 z "},"":{"ha":755,"x_min":39,"x_max":759,"o":"m 570 180 q 614 118 570 118 q 664 127 644 118 q 691 137 684 137 q 705 122 705 137 q 644 22 705 64 q 513 0 580 -22 q 448 67 469 16 q 437 115 437 94 q 444 190 437 151 q 288 12 381 61 q 208 -7 250 -7 q 135 11 166 -7 q 83 58 104 28 q 43 218 39 122 q 114 455 47 339 q 270 632 176 564 q 446 702 364 702 q 578 627 528 702 q 661 702 625 702 q 720 688 700 702 q 746 640 757 661 q 571 206 576 292 q 570 180 570 194 m 193 178 q 245 96 193 96 q 344 164 286 96 q 495 433 429 264 q 530 538 516 486 q 492 606 528 585 q 455 614 479 614 q 399 596 431 614 q 337 548 367 578 q 280 476 307 517 q 235 385 254 434 q 193 178 193 281 m 272 833 q 292 881 272 859 q 364 921 329 921 l 721 928 q 759 900 759 929 q 736 848 759 873 q 671 802 695 802 q 618 803 647 802 q 556 803 590 803 q 485 804 522 804 l 412 807 q 300 811 329 809 q 272 833 272 814 z "},"":{"ha":855,"x_min":-118,"x_max":1048,"o":"m 505 154 q 557 435 505 245 q 307 425 393 431 q 258 334 280 377 l 216 250 q 66 34 133 86 q -41 -7 16 -7 q -107 22 -85 -7 q -117 44 -115 33 q -112 58 -118 54 q 15 146 -34 87 q 100 277 58 200 l 177 414 l 134 408 q 94 421 94 401 q 118 460 94 441 q 201 502 161 492 l 231 509 q 400 766 342 692 q 508 888 459 839 q 610 974 556 937 q 841 1055 727 1055 q 888 1040 876 1055 q 901 992 908 1018 q 876 920 893 967 q 744 553 768 624 q 764 554 755 554 l 779 554 q 860 539 854 554 q 861 522 861 534 q 853 493 861 509 q 828 465 846 477 q 707 437 792 441 q 655 216 661 277 q 659 134 648 155 q 689 113 669 113 q 720 116 708 113 q 742 125 732 120 l 760 133 q 773 137 766 137 q 785 128 781 137 q 790 104 790 119 q 778 68 790 89 q 745 31 765 47 q 637 -7 697 -7 q 515 75 546 -7 q 505 125 505 103 l 505 154 m 369 532 q 593 551 490 548 q 633 666 612 609 l 675 774 q 718 872 697 826 l 758 956 q 479 712 616 919 q 422 623 450 669 l 369 532 m 837 1124 q 768 1115 803 1115 q 703 1125 732 1115 q 652 1153 674 1135 q 604 1258 604 1194 q 639 1334 604 1305 q 685 1356 667 1356 q 711 1353 703 1356 q 722 1334 720 1351 q 728 1297 723 1317 q 743 1263 732 1278 q 802 1228 766 1228 q 866 1241 838 1228 q 916 1271 894 1253 q 977 1339 960 1306 q 995 1354 983 1354 q 1011 1351 1006 1354 q 1021 1341 1017 1348 q 989 1225 1048 1299 q 837 1124 929 1150 z "},"":{"ha":755,"x_min":39,"x_max":787,"o":"m 570 180 q 614 118 570 118 q 664 127 644 118 q 691 137 684 137 q 705 122 705 137 q 644 22 705 64 q 513 0 580 -22 q 448 67 469 16 q 437 115 437 94 q 444 190 437 151 q 288 12 381 61 q 208 -7 250 -7 q 135 11 166 -7 q 83 58 104 28 q 43 218 39 122 q 114 455 47 339 q 270 632 176 564 q 446 702 364 702 q 578 627 528 702 q 661 702 625 702 q 720 688 700 702 q 746 640 757 661 q 571 206 576 292 q 570 180 570 194 m 193 178 q 245 96 193 96 q 344 164 286 96 q 495 433 429 264 q 530 538 516 486 q 492 606 528 585 q 455 614 479 614 q 399 596 431 614 q 337 548 367 578 q 280 476 307 517 q 235 385 254 434 q 193 178 193 281 m 576 797 q 507 787 542 787 q 442 797 471 787 q 391 826 413 807 q 342 930 342 867 q 378 1006 342 978 q 424 1028 406 1028 q 450 1026 441 1028 q 460 1006 459 1023 q 467 970 462 989 q 481 935 471 950 q 541 901 505 901 q 605 913 577 901 q 655 944 633 926 q 715 1012 699 979 q 733 1027 722 1027 q 750 1023 745 1027 q 760 1013 755 1020 q 728 898 787 972 q 576 797 668 823 z "},"":{"ha":855,"x_min":-118,"x_max":908,"o":"m 505 153 q 557 435 505 245 q 307 425 393 431 q 258 334 280 377 l 216 250 q 66 34 133 86 q -41 -7 16 -7 q -107 22 -85 -7 q -117 44 -115 33 q -112 58 -118 54 q 15 146 -34 87 q 100 277 58 200 l 177 414 l 134 408 q 94 421 94 401 q 118 460 94 441 q 201 502 161 492 l 231 509 q 400 766 342 692 q 508 888 459 839 q 610 974 556 937 q 841 1055 727 1055 q 888 1040 876 1055 q 901 992 908 1018 q 876 920 893 967 q 744 553 768 624 q 764 554 755 554 l 779 554 q 860 539 854 554 q 861 522 861 534 q 853 493 861 509 q 828 465 846 477 q 707 437 792 441 q 655 216 661 277 q 659 134 648 155 q 689 113 669 113 q 720 116 708 113 q 742 125 732 120 l 760 133 q 773 137 766 137 q 785 128 781 137 q 790 105 790 119 q 782 75 790 92 q 758 43 773 58 q 678 -1 725 11 q 651 -25 666 -12 q 618 -60 636 -39 q 586 -101 600 -80 q 557 -188 557 -147 q 589 -229 557 -229 q 607 -224 597 -229 l 626 -214 q 668 -221 666 -193 q 650 -271 669 -246 q 612 -311 631 -296 q 507 -342 567 -342 q 420 -286 442 -342 q 414 -242 414 -269 q 429 -180 414 -215 q 467 -113 443 -145 q 583 3 513 -48 q 505 142 505 33 l 505 153 m 369 532 q 593 551 490 548 q 633 666 612 609 l 675 774 q 718 872 697 826 l 758 956 q 479 712 616 919 q 422 623 450 669 l 369 532 z "},"":{"ha":752,"x_min":37,"x_max":755,"o":"m 494 -186 q 525 -229 494 -229 q 543 -224 534 -229 l 562 -214 q 604 -221 602 -193 q 587 -271 606 -246 q 548 -311 568 -296 q 443 -342 503 -342 q 357 -286 378 -342 q 351 -242 351 -269 q 365 -181 351 -216 q 401 -115 378 -147 q 515 -1 446 -52 q 442 80 461 15 q 436 120 436 102 q 443 190 436 151 q 286 12 380 61 q 207 -7 249 -7 q 134 11 165 -7 q 81 58 103 28 q 41 218 37 122 q 113 455 45 339 q 269 632 174 564 q 445 702 363 702 q 577 627 527 702 q 660 702 624 702 q 718 688 699 702 q 745 640 755 661 q 570 206 574 292 q 568 180 568 194 q 612 118 568 118 q 663 127 643 118 q 690 137 683 137 q 704 111 704 137 q 678 54 704 85 q 656 31 678 48 l 620 1 q 494 -186 494 -98 m 192 178 q 244 96 192 96 q 342 164 284 96 q 494 433 428 264 q 529 538 515 486 q 490 606 526 585 q 454 614 478 614 q 398 596 430 614 q 335 548 366 578 q 279 476 305 517 q 233 385 253 434 q 192 178 192 281 z "},"":{"ha":741,"x_min":66,"x_max":943,"o":"m 66 285 l 67 304 q 170 688 75 507 q 390 954 257 852 q 646 1055 522 1055 q 796 989 741 1055 q 843 849 843 932 q 770 654 843 750 q 681 574 728 598 q 639 562 659 562 q 604 570 620 562 q 575 590 587 578 q 550 637 550 616 q 561 667 550 659 q 712 831 672 747 q 728 895 728 864 q 665 961 728 961 q 464 854 568 961 q 301 608 367 756 q 229 328 233 455 l 228 302 q 292 102 228 149 q 348 85 315 85 q 408 93 380 85 q 465 115 437 101 q 583 197 511 139 q 619 193 605 214 q 631 152 631 175 q 621 99 631 113 q 585 66 610 85 q 523 31 559 47 q 355 -7 437 -7 q 223 13 273 -7 q 138 71 173 33 q 66 285 66 149 m 844 1156 q 827 1144 844 1156 q 772 1119 810 1133 q 709 1105 734 1105 q 678 1112 684 1104 q 680 1144 665 1130 l 711 1174 q 798 1295 775 1232 l 811 1333 q 862 1355 820 1360 q 920 1323 898 1351 q 937 1265 943 1296 q 905 1206 930 1234 q 844 1156 879 1178 z "},"":{"ha":650,"x_min":43,"x_max":778,"o":"m 45 234 q 64 352 47 293 q 110 463 81 410 q 179 559 139 515 q 265 635 218 603 q 471 702 363 702 q 622 613 582 702 q 635 541 636 581 q 622 467 634 500 q 591 407 610 433 q 508 347 550 347 q 439 373 461 347 q 427 425 419 395 q 439 441 429 434 q 465 464 449 448 q 511 572 509 510 q 459 614 512 614 q 340 550 402 614 q 212 312 249 457 q 224 127 179 186 q 296 94 250 94 q 444 148 372 94 q 479 182 465 165 q 504 200 492 200 q 523 189 515 200 q 531 160 531 178 q 495 81 531 120 q 273 -7 403 -7 q 102 56 163 -7 q 45 234 43 119 m 518 772 q 473 761 492 762 q 448 768 454 760 q 449 800 433 786 l 480 830 q 619 1068 581 926 q 670 1090 626 1095 q 728 1054 706 1085 q 684 887 778 985 q 518 772 609 808 z "},"":{"ha":741,"x_min":66,"x_max":956,"o":"m 66 285 l 67 304 q 170 688 75 507 q 390 954 257 852 q 646 1055 522 1055 q 796 989 741 1055 q 843 849 843 932 q 770 654 843 750 q 681 574 728 598 q 639 562 659 562 q 604 570 620 562 q 575 590 587 578 q 550 637 550 616 q 561 667 550 659 q 712 831 672 747 q 728 895 728 864 q 665 961 728 961 q 464 854 568 961 q 301 608 367 756 q 229 328 233 455 l 228 302 q 292 102 228 149 q 348 85 315 85 q 408 93 380 85 q 465 115 437 101 q 583 197 511 139 q 619 193 605 214 q 631 152 631 175 q 621 99 631 113 q 585 66 610 85 q 523 31 559 47 q 355 -7 437 -7 q 223 13 273 -7 q 138 71 173 33 q 66 285 66 149 m 756 1216 q 589 1113 668 1141 q 561 1107 576 1107 q 534 1112 545 1107 q 515 1122 523 1116 q 497 1152 497 1136 q 515 1174 497 1168 q 561 1192 534 1179 q 622 1226 588 1205 q 779 1351 699 1274 q 812 1347 788 1360 q 860 1305 857 1324 q 872 1264 863 1286 q 894 1221 882 1242 q 947 1144 916 1182 q 932 1118 956 1131 q 873 1107 909 1104 q 804 1137 838 1109 q 756 1216 770 1164 z "},"":{"ha":650,"x_min":43,"x_max":750,"o":"m 45 234 q 64 352 47 293 q 110 463 81 410 q 179 559 139 515 q 265 635 218 603 q 471 702 363 702 q 622 613 582 702 q 635 541 636 581 q 622 467 634 500 q 591 407 610 433 q 508 347 550 347 q 439 373 461 347 q 427 425 419 395 q 439 441 429 434 q 465 464 449 448 q 511 572 509 510 q 459 614 512 614 q 340 550 402 614 q 212 312 249 457 q 224 127 179 186 q 296 94 250 94 q 444 148 372 94 q 479 182 465 165 q 504 200 492 200 q 523 189 515 200 q 531 160 531 178 q 495 81 531 120 q 273 -7 403 -7 q 102 56 163 -7 q 45 234 43 119 m 568 927 q 353 782 437 813 q 325 777 340 777 q 299 781 311 777 q 279 791 288 785 q 262 822 262 806 q 280 843 262 837 q 503 985 359 869 q 593 1068 550 1023 q 626 1064 602 1077 q 673 1025 671 1041 q 741 813 699 873 q 727 787 750 800 q 675 776 704 773 q 604 819 631 779 q 568 927 577 860 z "},"":{"ha":741,"x_min":66,"x_max":843,"o":"m 66 285 l 67 304 q 170 688 75 507 q 390 954 257 852 q 646 1055 522 1055 q 796 989 741 1055 q 843 849 843 932 q 770 654 843 750 q 681 574 728 598 q 639 562 659 562 q 604 570 620 562 q 575 590 587 578 q 550 637 550 616 q 561 667 550 659 q 712 831 672 747 q 728 895 728 864 q 665 961 728 961 q 464 854 568 961 q 301 608 367 756 q 229 328 233 455 l 228 302 q 292 102 228 149 q 348 85 315 85 q 408 93 380 85 q 465 115 437 101 q 583 197 511 139 q 619 193 605 214 q 631 152 631 175 q 621 99 631 113 q 585 66 610 85 q 523 31 559 47 q 355 -7 437 -7 q 223 13 273 -7 q 138 71 173 33 q 66 285 66 149 m 763 1170 q 755 1162 763 1170 q 729 1144 748 1154 q 689 1132 710 1135 q 649 1139 668 1130 q 617 1164 631 1147 q 588 1232 588 1198 q 599 1284 588 1267 q 627 1312 610 1301 q 689 1333 660 1333 q 733 1329 718 1333 q 764 1316 749 1325 q 796 1261 796 1293 q 787 1207 796 1229 q 763 1170 778 1186 z "},"":{"ha":650,"x_min":43,"x_max":639,"o":"m 45 234 q 64 352 47 293 q 110 463 81 410 q 179 559 139 515 q 265 635 218 603 q 471 702 363 702 q 622 613 582 702 q 635 541 636 581 q 622 467 634 500 q 591 407 610 433 q 508 347 550 347 q 439 373 461 347 q 427 425 419 395 q 439 441 429 434 q 465 464 449 448 q 511 572 509 510 q 459 614 512 614 q 340 550 402 614 q 212 312 249 457 q 224 127 179 186 q 296 94 250 94 q 444 148 372 94 q 479 182 465 165 q 504 200 492 200 q 523 189 515 200 q 531 160 531 178 q 495 81 531 120 q 273 -7 403 -7 q 102 56 163 -7 q 45 234 43 119 m 606 859 q 598 851 606 859 q 572 833 591 843 q 532 821 553 823 q 492 827 511 819 q 460 852 473 836 q 431 921 431 886 q 442 973 431 956 q 470 1001 453 990 q 531 1022 503 1022 q 576 1018 560 1022 q 606 1004 592 1014 q 639 950 639 982 q 630 896 639 918 q 606 859 621 875 z "},"":{"ha":741,"x_min":66,"x_max":992,"o":"m 66 285 l 67 304 q 170 688 75 507 q 390 954 257 852 q 646 1055 522 1055 q 796 989 741 1055 q 843 849 843 932 q 770 654 843 750 q 681 574 728 598 q 639 562 659 562 q 604 570 620 562 q 575 590 587 578 q 550 637 550 616 q 561 667 550 659 q 712 831 672 747 q 728 895 728 864 q 665 961 728 961 q 464 854 568 961 q 301 608 367 756 q 229 328 233 455 l 228 302 q 292 102 228 149 q 348 85 315 85 q 408 93 380 85 q 465 115 437 101 q 583 197 511 139 q 619 193 605 214 q 631 152 631 175 q 621 99 631 113 q 585 66 610 85 q 523 31 559 47 q 355 -7 437 -7 q 223 13 273 -7 q 138 71 173 33 q 66 285 66 149 m 686 1111 q 656 1118 675 1107 q 620 1154 623 1138 q 595 1208 611 1183 l 574 1243 q 551 1267 564 1257 q 525 1293 528 1285 q 527 1309 521 1301 q 545 1322 532 1316 q 600 1336 569 1333 q 652 1330 630 1339 q 691 1305 673 1321 q 747 1215 724 1274 q 933 1330 900 1291 q 951 1341 942 1341 q 968 1336 961 1341 q 980 1324 975 1332 q 992 1291 992 1308 q 975 1241 992 1259 q 930 1208 958 1222 q 865 1181 903 1195 l 783 1150 q 686 1111 737 1133 z "},"":{"ha":650,"x_min":43,"x_max":831,"o":"m 45 234 q 64 352 47 293 q 110 463 81 410 q 179 559 139 515 q 265 635 218 603 q 471 702 363 702 q 622 613 582 702 q 635 541 636 581 q 622 467 634 500 q 591 407 610 433 q 508 347 550 347 q 439 373 461 347 q 427 425 419 395 q 439 441 429 434 q 465 464 449 448 q 511 572 509 510 q 459 614 512 614 q 340 550 402 614 q 212 312 249 457 q 224 127 179 186 q 296 94 250 94 q 444 148 372 94 q 479 182 465 165 q 504 200 492 200 q 523 189 515 200 q 531 160 531 178 q 495 81 531 120 q 273 -7 403 -7 q 102 56 163 -7 q 45 234 43 119 m 512 779 q 472 770 481 766 q 456 780 464 773 q 433 815 436 796 q 423 859 429 833 q 408 909 417 884 q 374 986 388 968 q 365 1010 360 1004 q 379 1021 369 1017 q 428 1034 400 1031 q 476 1025 456 1037 q 509 991 495 1013 q 542 871 538 945 q 742 1005 656 935 q 773 1035 764 1023 q 795 1046 783 1046 q 820 1029 808 1046 q 831 996 831 1013 q 813 943 831 965 q 512 779 747 876 z "},"":{"ha":876,"x_min":46,"x_max":913,"o":"m 56 160 q 82 282 62 204 q 134 448 102 359 q 302 808 205 650 q 337 833 316 829 q 390 837 367 837 q 430 832 412 837 q 458 819 448 827 q 465 783 479 802 q 251 331 342 597 q 210 190 216 229 q 200 135 203 150 q 197 110 197 121 q 225 87 197 87 q 289 101 254 87 q 365 138 324 114 q 449 197 406 162 q 535 274 493 231 q 614 368 577 317 q 680 473 652 418 q 741 714 741 595 q 609 930 741 877 q 513 949 563 949 q 429 942 463 949 q 362 924 394 936 q 254 863 298 901 q 226 856 242 856 q 191 865 210 856 q 157 889 172 875 q 130 953 123 922 q 260 1028 138 996 q 468 1055 363 1055 q 656 1026 572 1055 q 792 949 740 998 q 890 706 890 859 q 750 316 890 504 q 445 52 622 142 q 234 -7 330 -7 q 104 37 159 -7 q 56 160 46 84 m 608 1111 q 578 1118 596 1107 q 541 1154 544 1138 q 517 1208 532 1183 l 495 1243 q 473 1267 486 1257 q 446 1293 450 1285 q 448 1309 442 1301 q 466 1322 454 1316 q 521 1336 490 1333 q 573 1330 551 1339 q 612 1305 595 1321 q 668 1215 646 1274 q 854 1330 821 1291 q 873 1341 863 1341 q 889 1336 882 1341 q 901 1324 896 1332 q 913 1291 913 1308 q 896 1241 913 1259 q 851 1208 879 1222 q 787 1181 824 1195 l 704 1150 q 608 1111 659 1133 z "},"":{"ha":774,"x_min":57,"x_max":1136,"o":"m 726 137 q 741 122 741 137 q 680 22 741 64 q 605 -7 640 -7 q 548 1 569 -7 q 510 27 527 9 q 472 139 472 68 q 477 184 472 153 q 383 65 422 100 q 228 -7 304 -7 q 71 102 108 -7 q 57 202 57 142 q 75 324 57 262 q 125 441 94 386 q 198 545 157 497 q 286 628 240 593 q 465 702 385 702 q 593 637 545 702 q 771 1114 711 1041 q 824 1143 796 1143 q 894 1117 870 1143 q 901 1099 901 1108 q 890 1067 901 1090 q 859 990 880 1043 q 774 757 798 831 q 690 496 711 568 l 652 371 q 604 158 604 203 q 637 113 604 113 q 686 121 668 113 l 712 133 q 726 137 720 137 m 260 95 q 420 231 330 95 q 552 538 515 372 q 513 606 549 585 q 476 614 501 614 q 419 596 452 614 q 355 547 386 578 q 297 476 324 517 q 251 389 271 435 q 208 192 208 288 q 260 95 208 95 m 923 789 q 906 808 906 792 q 927 842 906 820 q 996 971 987 905 q 990 1034 1000 1010 q 976 1067 980 1057 q 980 1096 972 1078 q 1011 1129 987 1115 q 1060 1143 1036 1143 q 1098 1139 1084 1143 q 1120 1123 1112 1134 q 1136 1061 1136 1103 q 1125 988 1136 1020 q 1097 926 1114 956 q 1056 869 1079 896 q 1010 824 1034 843 q 923 789 958 782 z "},"":{"ha":876,"x_min":38,"x_max":890,"o":"m 77 525 q 38 551 38 525 q 58 596 38 575 q 113 633 93 635 l 534 633 q 564 606 564 633 q 545 554 564 578 q 485 511 510 511 l 77 525 m 56 160 q 82 282 62 204 q 134 448 102 359 q 302 808 205 650 q 337 833 316 829 q 390 837 367 837 q 430 832 412 837 q 458 819 448 827 q 465 783 479 802 q 251 331 342 597 q 210 190 216 229 q 200 135 203 150 q 197 110 197 121 q 225 87 197 87 q 289 101 254 87 q 365 138 324 114 q 449 197 406 162 q 535 274 493 231 q 614 368 577 317 q 680 473 652 418 q 741 714 741 595 q 609 930 741 877 q 513 949 563 949 q 429 942 463 949 q 362 924 394 936 q 254 863 298 901 q 226 856 242 856 q 191 865 210 856 q 157 889 172 875 q 130 953 123 922 q 260 1028 138 996 q 468 1055 363 1055 q 656 1026 572 1055 q 792 949 740 998 q 890 706 890 859 q 750 316 890 504 q 445 52 622 142 q 234 -7 330 -7 q 104 37 159 -7 q 56 160 46 84 z "},"":{"ha":774,"x_min":57,"x_max":935,"o":"m 726 137 q 741 122 741 137 q 680 22 741 64 q 605 -7 640 -7 q 548 1 569 -7 q 510 27 527 9 q 472 139 472 68 q 477 184 472 153 q 383 65 422 100 q 228 -7 304 -7 q 71 102 108 -7 q 57 202 57 142 q 75 324 57 262 q 125 441 94 386 q 198 545 157 497 q 286 628 240 593 q 465 702 385 702 q 593 637 545 702 q 669 879 636 783 q 612 880 641 880 l 557 883 q 453 891 458 886 q 448 905 448 897 q 455 926 448 913 q 475 949 463 938 q 541 975 506 975 l 706 978 q 765 1105 747 1082 q 824 1143 795 1143 q 894 1117 870 1143 q 901 1099 901 1108 q 895 1076 901 1090 l 855 981 l 897 982 q 935 959 935 983 q 913 915 935 936 q 841 877 871 877 l 816 877 q 733 634 760 717 q 604 154 604 224 q 637 113 604 113 q 686 121 668 113 l 712 133 q 726 137 720 137 m 260 95 q 420 231 330 95 q 552 538 515 372 q 513 606 549 585 q 476 614 501 614 q 419 596 452 614 q 355 547 386 578 q 297 476 324 517 q 251 389 271 435 q 208 192 208 288 q 260 95 208 95 z "},"":{"ha":708,"x_min":56,"x_max":862,"o":"m 707 904 q 640 961 707 961 q 404 841 510 961 q 317 688 342 770 q 304 618 304 648 q 312 569 304 587 q 330 540 319 551 q 383 521 353 515 q 442 534 416 534 q 483 528 467 534 q 507 512 498 522 q 527 475 527 493 q 504 439 527 441 q 430 420 469 436 q 352 377 391 404 q 282 319 313 351 q 212 169 212 244 q 229 115 212 133 q 297 83 258 83 q 374 98 336 83 q 442 135 412 113 q 532 220 488 168 q 570 245 553 245 q 594 226 586 245 q 603 185 603 207 q 586 119 603 140 q 544 76 569 98 q 483 37 518 55 q 301 -7 398 -7 q 77 100 138 -7 q 56 182 56 140 q 68 260 56 224 q 100 327 81 296 q 144 383 120 358 q 193 426 169 408 q 270 467 239 463 q 167 586 193 498 q 159 655 159 614 q 174 745 159 696 q 218 839 190 794 q 286 924 247 884 q 373 992 326 963 q 589 1055 475 1055 q 766 996 707 1055 q 812 874 812 948 q 742 704 812 790 q 665 634 699 652 q 611 614 631 616 q 575 619 592 612 q 547 636 559 625 q 519 682 519 661 q 536 720 519 707 l 597 764 q 707 904 707 844 m 375 1180 q 395 1228 375 1206 q 467 1268 432 1268 l 824 1275 q 862 1247 862 1276 q 839 1195 862 1220 q 774 1149 798 1149 q 722 1150 750 1149 q 659 1151 693 1150 q 588 1152 625 1151 l 515 1154 q 404 1159 432 1156 q 375 1180 375 1161 z "},"":{"ha":655,"x_min":47,"x_max":704,"o":"m 52 237 q 71 350 54 296 q 117 455 88 404 q 183 550 145 505 q 267 629 222 595 q 463 702 363 702 q 617 606 578 702 q 630 529 631 574 q 613 447 629 485 q 568 379 597 410 q 499 323 539 348 q 413 282 460 299 q 207 247 317 248 q 203 218 204 237 q 208 176 203 199 q 224 134 212 153 q 294 94 248 94 q 448 140 373 94 q 491 172 474 155 q 519 189 507 189 q 541 174 532 189 q 550 141 550 159 q 530 79 550 105 q 275 -7 444 -7 q 115 53 176 -7 q 52 237 47 121 m 448 612 q 311 514 376 612 q 221 315 255 430 q 418 404 334 326 q 494 545 494 477 q 448 612 494 612 m 217 833 q 237 881 217 859 q 309 921 274 921 l 666 928 q 704 900 704 929 q 681 848 704 873 q 616 802 640 802 q 564 803 592 802 q 501 803 535 803 q 430 804 467 804 l 357 807 q 245 811 274 809 q 217 833 217 814 z "},"":{"ha":708,"x_min":56,"x_max":889,"o":"m 707 904 q 640 961 707 961 q 404 841 510 961 q 317 688 342 770 q 304 618 304 648 q 312 569 304 587 q 330 540 319 551 q 383 521 353 515 q 442 534 416 534 q 483 528 467 534 q 507 512 498 522 q 527 475 527 493 q 504 439 527 441 q 430 420 469 436 q 352 377 391 404 q 282 319 313 351 q 212 169 212 244 q 229 115 212 133 q 297 83 258 83 q 374 98 336 83 q 442 135 412 113 q 532 220 488 168 q 570 245 553 245 q 594 226 586 245 q 603 185 603 207 q 586 119 603 140 q 544 76 569 98 q 483 37 518 55 q 301 -7 398 -7 q 77 100 138 -7 q 56 182 56 140 q 68 260 56 224 q 100 327 81 296 q 144 383 120 358 q 193 426 169 408 q 270 467 239 463 q 167 586 193 498 q 159 655 159 614 q 174 745 159 696 q 218 839 190 794 q 286 924 247 884 q 373 992 326 963 q 589 1055 475 1055 q 766 996 707 1055 q 812 874 812 948 q 742 704 812 790 q 665 634 699 652 q 611 614 631 616 q 575 619 592 612 q 547 636 559 625 q 519 682 519 661 q 536 720 519 707 l 597 764 q 707 904 707 844 m 678 1124 q 609 1115 644 1115 q 545 1125 574 1115 q 494 1153 515 1135 q 445 1258 445 1194 q 480 1334 445 1305 q 526 1356 508 1356 q 553 1353 544 1356 q 563 1334 562 1351 q 569 1297 564 1317 q 584 1263 574 1278 q 643 1228 607 1228 q 707 1241 680 1228 q 758 1271 735 1253 q 818 1339 802 1306 q 836 1354 825 1354 q 852 1351 847 1354 q 863 1341 858 1348 q 830 1225 889 1299 q 678 1124 770 1150 z "},"":{"ha":655,"x_min":47,"x_max":732,"o":"m 52 237 q 71 350 54 296 q 117 455 88 404 q 183 550 145 505 q 267 629 222 595 q 463 702 363 702 q 617 606 578 702 q 630 529 631 574 q 613 447 629 485 q 568 379 597 410 q 499 323 539 348 q 413 282 460 299 q 207 247 317 248 q 203 218 204 237 q 208 176 203 199 q 224 134 212 153 q 294 94 248 94 q 448 140 373 94 q 491 172 474 155 q 519 189 507 189 q 541 174 532 189 q 550 141 550 159 q 530 79 550 105 q 275 -7 444 -7 q 115 53 176 -7 q 52 237 47 121 m 448 612 q 311 514 376 612 q 221 315 255 430 q 418 404 334 326 q 494 545 494 477 q 448 612 494 612 m 521 797 q 452 787 487 787 q 387 797 416 787 q 336 826 358 807 q 288 930 288 867 q 323 1006 288 978 q 369 1028 351 1028 q 395 1026 387 1028 q 406 1006 404 1023 q 412 970 407 989 q 427 935 416 950 q 486 901 450 901 q 550 913 522 901 q 600 944 578 926 q 661 1012 644 979 q 679 1027 667 1027 q 695 1023 690 1027 q 705 1013 701 1020 q 673 898 732 972 q 521 797 613 823 z "},"":{"ha":708,"x_min":56,"x_max":812,"o":"m 707 904 q 640 961 707 961 q 404 841 510 961 q 317 688 342 770 q 304 618 304 648 q 312 569 304 587 q 330 540 319 551 q 383 521 353 515 q 442 534 416 534 q 483 528 467 534 q 507 512 498 522 q 527 475 527 493 q 504 439 527 441 q 430 420 469 436 q 352 377 391 404 q 282 319 313 351 q 212 169 212 244 q 229 115 212 133 q 297 83 258 83 q 374 98 336 83 q 442 135 412 113 q 532 220 488 168 q 570 245 553 245 q 594 226 586 245 q 603 185 603 207 q 586 119 603 140 q 544 76 569 98 q 483 37 518 55 q 301 -7 398 -7 q 77 100 138 -7 q 56 182 56 140 q 68 260 56 224 q 100 327 81 296 q 144 383 120 358 q 193 426 169 408 q 270 467 239 463 q 167 586 193 498 q 159 655 159 614 q 174 745 159 696 q 218 839 190 794 q 286 924 247 884 q 373 992 326 963 q 589 1055 475 1055 q 766 996 707 1055 q 812 874 812 948 q 742 704 812 790 q 665 634 699 652 q 611 614 631 616 q 575 619 592 612 q 547 636 559 625 q 519 682 519 661 q 536 720 519 707 l 597 764 q 707 904 707 844 m 654 1170 q 646 1162 654 1170 q 620 1144 639 1154 q 580 1132 601 1135 q 540 1139 559 1130 q 508 1164 522 1147 q 479 1232 479 1198 q 490 1284 479 1267 q 518 1312 501 1301 q 579 1333 551 1333 q 624 1329 608 1333 q 654 1316 640 1325 q 687 1261 687 1293 q 678 1207 687 1229 q 654 1170 669 1186 z "},"":{"ha":655,"x_min":47,"x_max":631,"o":"m 52 237 q 71 350 54 296 q 117 455 88 404 q 183 550 145 505 q 267 629 222 595 q 463 702 363 702 q 617 606 578 702 q 630 529 631 574 q 613 447 629 485 q 568 379 597 410 q 499 323 539 348 q 413 282 460 299 q 207 247 317 248 q 203 218 204 237 q 208 176 203 199 q 224 134 212 153 q 294 94 248 94 q 448 140 373 94 q 491 172 474 155 q 519 189 507 189 q 541 174 532 189 q 550 141 550 159 q 530 79 550 105 q 275 -7 444 -7 q 115 53 176 -7 q 52 237 47 121 m 448 612 q 311 514 376 612 q 221 315 255 430 q 418 404 334 326 q 494 545 494 477 q 448 612 494 612 m 551 859 q 543 851 551 859 q 517 833 536 843 q 477 821 498 823 q 437 827 456 819 q 405 852 418 836 q 376 921 376 886 q 387 973 376 956 q 415 1001 398 990 q 476 1022 448 1022 q 521 1018 505 1022 q 551 1004 537 1014 q 584 950 584 982 q 575 896 584 918 q 551 859 566 875 z "},"":{"ha":708,"x_min":56,"x_max":812,"o":"m 288 -186 q 319 -229 288 -229 q 337 -224 328 -229 l 356 -214 q 398 -221 396 -193 q 380 -271 399 -246 q 342 -311 361 -296 q 237 -342 297 -342 q 151 -286 172 -342 q 144 -242 144 -269 q 157 -183 144 -216 q 192 -119 170 -151 q 300 -7 233 -59 q 108 60 175 -7 q 56 184 56 113 q 193 426 56 320 q 270 467 239 463 q 167 586 193 498 q 159 655 159 614 q 174 745 159 696 q 218 839 190 794 q 286 924 247 884 q 373 992 326 963 q 589 1055 475 1055 q 766 996 707 1055 q 812 874 812 948 q 742 704 812 790 q 665 634 699 652 q 611 614 631 616 q 575 619 592 612 q 547 636 559 625 q 519 682 519 661 q 536 720 519 707 l 597 764 q 707 904 707 844 q 640 961 707 961 q 404 841 510 961 q 317 688 342 770 q 304 618 304 648 q 312 569 304 587 q 330 540 319 551 q 383 521 353 515 q 442 534 416 534 q 483 528 467 534 q 507 512 498 522 q 527 475 527 493 q 504 439 527 441 q 430 420 469 436 q 352 377 391 404 q 282 319 313 351 q 212 169 212 244 q 229 115 212 133 q 297 83 258 83 q 374 98 336 83 q 442 135 412 113 q 532 220 488 168 q 570 245 553 245 q 594 226 586 245 q 603 185 603 207 q 588 122 603 140 q 559 90 574 103 q 525 62 545 76 q 430 14 482 31 q 288 -186 288 -98 z "},"":{"ha":655,"x_min":47,"x_max":631,"o":"m 313 -5 q 262 -7 294 -7 q 188 8 230 -7 q 115 53 146 22 q 52 245 47 121 q 117 454 56 348 q 361 682 212 623 q 454 702 411 702 q 528 692 497 702 q 582 661 559 682 q 630 528 631 614 q 499 323 628 403 q 207 247 378 249 q 203 218 204 237 q 208 176 203 199 q 224 134 212 153 q 294 94 248 94 q 448 140 373 94 q 491 172 474 155 q 519 189 507 189 q 541 174 532 189 q 550 141 550 159 q 530 79 550 105 q 468 35 503 52 l 431 6 q 299 -186 299 -96 q 330 -229 299 -229 q 349 -224 339 -229 l 368 -214 q 410 -221 408 -193 q 392 -271 411 -246 q 354 -311 373 -296 q 248 -342 309 -342 q 163 -286 184 -342 q 156 -242 156 -269 q 169 -183 156 -216 q 203 -118 182 -150 q 313 -5 246 -58 m 448 612 q 311 514 376 612 q 221 315 255 430 q 418 404 334 326 q 494 545 494 477 q 448 612 494 612 z "},"":{"ha":708,"x_min":56,"x_max":883,"o":"m 707 904 q 640 961 707 961 q 404 841 510 961 q 317 688 342 770 q 304 618 304 648 q 312 569 304 587 q 330 540 319 551 q 383 521 353 515 q 442 534 416 534 q 483 528 467 534 q 507 512 498 522 q 527 475 527 493 q 504 439 527 441 q 430 420 469 436 q 352 377 391 404 q 282 319 313 351 q 212 169 212 244 q 229 115 212 133 q 297 83 258 83 q 374 98 336 83 q 442 135 412 113 q 532 220 488 168 q 570 245 553 245 q 594 226 586 245 q 603 185 603 207 q 586 119 603 140 q 544 76 569 98 q 483 37 518 55 q 301 -7 398 -7 q 77 100 138 -7 q 56 182 56 140 q 68 260 56 224 q 100 327 81 296 q 144 383 120 358 q 193 426 169 408 q 270 467 239 463 q 167 586 193 498 q 159 655 159 614 q 174 745 159 696 q 218 839 190 794 q 286 924 247 884 q 373 992 326 963 q 589 1055 475 1055 q 766 996 707 1055 q 812 874 812 948 q 742 704 812 790 q 665 634 699 652 q 611 614 631 616 q 575 619 592 612 q 547 636 559 625 q 519 682 519 661 q 536 720 519 707 l 597 764 q 707 904 707 844 m 577 1111 q 547 1118 566 1107 q 511 1154 513 1138 q 486 1208 502 1183 l 465 1243 q 442 1267 455 1257 q 415 1293 419 1285 q 417 1309 412 1301 q 435 1322 423 1316 q 490 1336 460 1333 q 543 1330 521 1339 q 582 1305 564 1321 q 637 1215 615 1274 q 824 1330 791 1291 q 842 1341 833 1341 q 859 1336 852 1341 q 871 1324 865 1332 q 883 1291 883 1308 q 866 1241 883 1259 q 821 1208 848 1222 q 756 1181 793 1195 l 673 1150 q 577 1111 628 1133 z "},"":{"ha":655,"x_min":47,"x_max":777,"o":"m 52 237 q 71 350 54 296 q 117 455 88 404 q 183 550 145 505 q 267 629 222 595 q 463 702 363 702 q 617 606 578 702 q 630 529 631 574 q 613 447 629 485 q 568 379 597 410 q 499 323 539 348 q 413 282 460 299 q 207 247 317 248 q 203 218 204 237 q 208 176 203 199 q 224 134 212 153 q 294 94 248 94 q 448 140 373 94 q 491 172 474 155 q 519 189 507 189 q 541 174 532 189 q 550 141 550 159 q 530 79 550 105 q 275 -7 444 -7 q 115 53 176 -7 q 52 237 47 121 m 448 612 q 311 514 376 612 q 221 315 255 430 q 418 404 334 326 q 494 545 494 477 q 448 612 494 612 m 457 779 q 417 770 426 766 q 401 780 409 773 q 378 815 381 796 q 368 859 374 833 q 353 909 362 884 q 319 986 333 968 q 310 1010 305 1004 q 324 1021 314 1017 q 373 1034 345 1031 q 421 1025 401 1037 q 454 991 440 1013 q 487 871 483 945 q 687 1005 601 935 q 719 1035 709 1023 q 741 1046 728 1046 q 765 1029 753 1046 q 777 996 777 1013 q 758 943 777 965 q 457 779 692 876 z "},"":{"ha":831,"x_min":70,"x_max":952,"o":"m 70 284 l 71 304 q 174 688 78 507 q 395 954 259 851 q 651 1055 526 1055 q 800 989 746 1055 q 848 849 848 932 q 775 654 848 750 q 686 574 733 598 q 644 562 663 562 q 608 570 625 562 q 581 590 592 578 q 555 637 555 616 q 566 667 555 659 q 718 831 677 747 q 732 895 732 864 q 670 961 732 961 q 465 849 571 961 q 298 589 367 745 q 225 294 229 428 q 293 102 218 151 q 357 85 319 85 q 429 103 395 85 q 488 149 463 121 q 543 276 541 210 q 507 345 544 326 q 475 356 492 352 q 447 366 458 360 q 441 388 435 372 q 461 420 446 404 q 547 464 500 464 q 594 457 563 464 q 673 444 652 444 q 705 445 693 444 q 729 449 717 446 q 781 464 757 455 q 821 446 821 477 q 808 387 821 414 q 773 339 795 359 q 654 297 725 296 q 623 183 661 253 q 426 10 554 58 q 324 -7 380 -7 q 220 13 267 -7 q 138 71 172 33 q 70 284 70 148 m 753 1216 q 585 1113 665 1141 q 557 1107 573 1107 q 531 1112 542 1107 q 511 1122 519 1116 q 494 1152 494 1136 q 512 1174 494 1168 q 557 1192 530 1179 q 618 1226 585 1205 q 776 1351 695 1274 q 808 1347 785 1360 q 857 1305 853 1324 q 869 1264 860 1286 q 890 1221 878 1242 q 943 1144 913 1182 q 929 1118 952 1131 q 870 1107 906 1104 q 800 1137 834 1109 q 753 1216 766 1164 z "},"":{"ha":732,"x_min":52,"x_max":762,"o":"m 446 148 q 218 -7 343 -7 q 65 114 104 -7 q 52 216 52 155 q 69 337 52 276 q 116 452 86 397 q 186 552 146 506 q 273 631 227 597 q 464 702 369 702 q 600 613 559 702 q 614 631 608 622 q 629 648 621 640 q 660 666 647 666 q 688 661 673 666 q 716 648 703 656 q 741 612 749 629 q 679 453 704 531 l 578 133 q 277 -338 460 -231 q 194 -371 229 -366 q 143 -371 159 -375 q 115 -359 127 -367 q 89 -329 89 -342 q 120 -300 89 -305 q 186 -274 152 -294 q 252 -226 221 -254 q 446 148 380 -107 m 243 383 q 234 359 243 383 q 215 283 225 334 q 205 199 205 232 q 207 150 205 167 q 215 120 209 133 q 255 92 229 92 q 307 110 281 92 q 361 161 333 129 q 418 238 390 194 q 473 333 447 282 q 553 548 530 446 q 530 587 549 567 q 460 624 491 624 q 397 605 429 624 q 338 552 366 585 q 286 476 310 519 q 243 383 261 432 m 580 927 q 366 782 450 813 q 337 777 352 777 q 311 781 323 777 q 292 791 300 785 q 274 822 274 806 q 292 843 274 837 q 515 985 372 869 q 606 1068 562 1023 q 638 1064 614 1077 q 686 1025 683 1041 q 753 813 711 873 q 739 787 762 800 q 687 776 716 773 q 616 819 644 779 q 580 927 589 860 z "},"":{"ha":831,"x_min":70,"x_max":995,"o":"m 70 284 l 71 304 q 174 688 78 507 q 395 954 259 851 q 651 1055 526 1055 q 800 989 746 1055 q 848 849 848 932 q 775 654 848 750 q 686 574 733 598 q 644 562 663 562 q 608 570 625 562 q 581 590 592 578 q 555 637 555 616 q 566 667 555 659 q 718 831 677 747 q 732 895 732 864 q 670 961 732 961 q 465 849 571 961 q 298 589 367 745 q 225 294 229 428 q 293 102 218 151 q 357 85 319 85 q 429 103 395 85 q 488 149 463 121 q 543 276 541 210 q 507 345 544 326 q 475 356 492 352 q 447 366 458 360 q 441 388 435 372 q 461 420 446 404 q 547 464 500 464 q 594 457 563 464 q 673 444 652 444 q 705 445 693 444 q 729 449 717 446 q 781 464 757 455 q 821 446 821 477 q 808 387 821 414 q 773 339 795 359 q 654 297 725 296 q 623 183 661 253 q 426 10 554 58 q 324 -7 380 -7 q 220 13 267 -7 q 138 71 172 33 q 70 284 70 148 m 784 1124 q 715 1115 750 1115 q 650 1125 680 1115 q 600 1153 621 1135 q 551 1258 551 1194 q 586 1334 551 1305 q 632 1356 614 1356 q 659 1353 650 1356 q 669 1334 667 1351 q 675 1297 670 1317 q 690 1263 680 1278 q 749 1228 713 1228 q 813 1241 785 1228 q 863 1271 841 1253 q 924 1339 907 1306 q 942 1354 930 1354 q 958 1351 953 1354 q 968 1341 964 1348 q 936 1225 995 1299 q 784 1124 876 1150 z "},"":{"ha":732,"x_min":52,"x_max":799,"o":"m 446 148 q 218 -7 343 -7 q 65 114 104 -7 q 52 216 52 155 q 69 337 52 276 q 116 452 86 397 q 186 552 146 506 q 273 631 227 597 q 464 702 369 702 q 600 613 559 702 q 614 631 608 622 q 629 648 621 640 q 660 666 647 666 q 688 661 673 666 q 716 648 703 656 q 741 612 749 629 q 679 453 704 531 l 578 133 q 277 -338 460 -231 q 194 -371 229 -366 q 143 -371 159 -375 q 115 -359 127 -367 q 89 -329 89 -342 q 120 -300 89 -305 q 186 -274 152 -294 q 252 -226 221 -254 q 446 148 380 -107 m 243 383 q 234 359 243 383 q 215 283 225 334 q 205 199 205 232 q 207 150 205 167 q 215 120 209 133 q 255 92 229 92 q 307 110 281 92 q 361 161 333 129 q 418 238 390 194 q 473 333 447 282 q 553 548 530 446 q 530 587 549 567 q 460 624 491 624 q 397 605 429 624 q 338 552 366 585 q 286 476 310 519 q 243 383 261 432 m 588 797 q 519 787 554 787 q 454 797 484 787 q 404 826 425 807 q 355 930 355 867 q 390 1006 355 978 q 436 1028 418 1028 q 463 1026 454 1028 q 473 1006 471 1023 q 479 970 474 989 q 494 935 484 950 q 553 901 517 901 q 617 913 589 901 q 667 944 645 926 q 728 1012 711 979 q 746 1027 734 1027 q 762 1023 757 1027 q 772 1013 768 1020 q 740 898 799 972 q 588 797 680 823 z "},"":{"ha":831,"x_min":70,"x_max":848,"o":"m 70 284 l 71 304 q 174 688 78 507 q 395 954 259 851 q 651 1055 526 1055 q 800 989 746 1055 q 848 849 848 932 q 775 654 848 750 q 686 574 733 598 q 644 562 663 562 q 608 570 625 562 q 581 590 592 578 q 555 637 555 616 q 566 667 555 659 q 718 831 677 747 q 732 895 732 864 q 670 961 732 961 q 465 849 571 961 q 298 589 367 745 q 225 294 229 428 q 293 102 218 151 q 357 85 319 85 q 429 103 395 85 q 488 149 463 121 q 543 276 541 210 q 507 345 544 326 q 475 356 492 352 q 447 366 458 360 q 441 388 435 372 q 461 420 446 404 q 547 464 500 464 q 594 457 563 464 q 673 444 652 444 q 705 445 693 444 q 729 449 717 446 q 781 464 757 455 q 821 446 821 477 q 808 387 821 414 q 773 339 795 359 q 654 297 725 296 q 623 183 661 253 q 426 10 554 58 q 324 -7 380 -7 q 220 13 267 -7 q 138 71 172 33 q 70 284 70 148 m 760 1170 q 752 1162 760 1170 q 726 1144 745 1154 q 686 1132 707 1135 q 646 1139 665 1130 q 614 1164 627 1147 q 585 1232 585 1198 q 596 1284 585 1267 q 624 1312 607 1301 q 685 1333 656 1333 q 730 1329 714 1333 q 760 1316 746 1325 q 793 1261 793 1293 q 784 1207 793 1229 q 760 1170 774 1186 z "},"":{"ha":732,"x_min":52,"x_max":749,"o":"m 446 148 q 218 -7 343 -7 q 65 114 104 -7 q 52 216 52 155 q 69 337 52 276 q 116 452 86 397 q 186 552 146 506 q 273 631 227 597 q 464 702 369 702 q 600 613 559 702 q 614 631 608 622 q 629 648 621 640 q 660 666 647 666 q 688 661 673 666 q 716 648 703 656 q 741 612 749 629 q 679 453 704 531 l 578 133 q 277 -338 460 -231 q 194 -371 229 -366 q 143 -371 159 -375 q 115 -359 127 -367 q 89 -329 89 -342 q 120 -300 89 -305 q 186 -274 152 -294 q 252 -226 221 -254 q 446 148 380 -107 m 243 383 q 234 359 243 383 q 215 283 225 334 q 205 199 205 232 q 207 150 205 167 q 215 120 209 133 q 255 92 229 92 q 307 110 281 92 q 361 161 333 129 q 418 238 390 194 q 473 333 447 282 q 553 548 530 446 q 530 587 549 567 q 460 624 491 624 q 397 605 429 624 q 338 552 366 585 q 286 476 310 519 q 243 383 261 432 m 618 859 q 610 851 618 859 q 584 833 603 843 q 544 821 565 823 q 504 827 523 819 q 472 852 486 836 q 443 921 443 886 q 454 973 443 956 q 482 1001 465 990 q 544 1022 515 1022 q 588 1018 572 1022 q 618 1004 604 1014 q 651 950 651 982 q 642 896 651 918 q 618 859 633 875 z "},"":{"ha":831,"x_min":70,"x_max":848,"o":"m 70 284 l 71 304 q 174 688 78 507 q 395 954 259 851 q 651 1055 526 1055 q 800 989 746 1055 q 848 849 848 932 q 775 654 848 750 q 686 574 733 598 q 644 562 663 562 q 608 570 625 562 q 581 590 592 578 q 555 637 555 616 q 566 667 555 659 q 718 831 677 747 q 732 895 732 864 q 670 961 732 961 q 465 849 571 961 q 298 589 367 745 q 225 294 229 428 q 293 102 218 151 q 357 85 319 85 q 429 103 395 85 q 488 149 463 121 q 543 276 541 210 q 507 345 544 326 q 475 356 492 352 q 447 366 458 360 q 441 388 435 372 q 461 420 446 404 q 547 464 500 464 q 594 457 563 464 q 673 444 652 444 q 705 445 693 444 q 729 449 717 446 q 781 464 757 455 q 821 446 821 477 q 808 387 821 414 q 773 339 795 359 q 654 297 725 296 q 623 183 661 253 q 426 10 554 58 q 324 -7 380 -7 q 220 13 267 -7 q 138 71 172 33 q 70 284 70 148 m 208 -327 q 197 -334 208 -327 q 164 -350 186 -342 q 123 -359 142 -359 q 104 -341 104 -359 q 118 -315 104 -326 l 141 -290 q 187 -200 187 -240 q 173 -162 187 -177 q 153 -141 158 -148 q 150 -122 147 -134 q 163 -100 153 -111 q 186 -81 173 -90 q 249 -64 215 -64 q 305 -86 282 -64 q 328 -139 328 -108 q 317 -196 328 -170 q 290 -247 307 -222 q 252 -291 273 -271 q 208 -327 231 -311 z "},"":{"ha":732,"x_min":52,"x_max":749,"o":"m 446 148 q 218 -7 343 -7 q 65 114 104 -7 q 52 216 52 155 q 69 337 52 276 q 116 452 86 397 q 186 552 146 506 q 273 631 227 597 q 464 702 369 702 q 600 613 559 702 q 614 631 608 622 q 629 648 621 640 q 660 666 647 666 q 688 661 673 666 q 716 648 703 656 q 741 612 749 629 q 679 453 704 531 l 578 133 q 277 -338 460 -231 q 194 -371 229 -366 q 143 -371 159 -375 q 115 -359 127 -367 q 89 -329 89 -342 q 120 -300 89 -305 q 186 -274 152 -294 q 252 -226 221 -254 q 446 148 380 -107 m 243 383 q 234 359 243 383 q 215 283 225 334 q 205 199 205 232 q 207 150 205 167 q 215 120 209 133 q 255 92 229 92 q 307 110 281 92 q 361 161 333 129 q 418 238 390 194 q 473 333 447 282 q 553 548 530 446 q 530 587 549 567 q 460 624 491 624 q 397 605 429 624 q 338 552 366 585 q 286 476 310 519 q 243 383 261 432 m 575 1081 q 586 1089 575 1081 q 619 1105 597 1097 q 660 1114 641 1114 q 679 1096 679 1114 q 665 1069 679 1080 l 642 1045 q 596 955 596 995 q 611 917 596 932 q 631 896 625 903 q 633 877 636 888 q 620 855 630 866 q 597 836 610 844 q 535 819 568 819 q 478 841 501 819 q 456 893 456 863 q 466 951 456 924 q 493 1001 476 977 q 531 1046 510 1025 q 575 1081 553 1066 z "},"":{"ha":929,"x_min":-50,"x_max":979,"o":"m 682 498 q 518 506 598 506 q 353 496 439 506 q 122 65 245 195 q 28 0 77 17 q 3 -5 16 -5 q -19 0 -9 -5 q -35 11 -29 4 q -50 40 -50 24 q -39 62 -50 55 q 189 465 68 140 q 179 462 184 463 q 168 458 174 460 q 151 463 161 456 q 134 479 142 469 q 130 515 117 503 q 220 555 153 536 q 315 954 311 836 q 263 939 287 952 l 212 909 q 156 928 191 898 q 126 982 122 956 q 235 1046 131 1021 q 292 1055 271 1055 q 334 1054 313 1055 q 372 1048 355 1053 q 455 990 439 1032 q 462 944 462 971 q 456 881 462 918 q 441 799 451 845 q 383 585 419 699 q 689 602 531 602 l 718 602 l 755 713 q 832 998 818 901 q 889 1055 841 1055 q 941 1039 920 1055 q 977 979 979 1011 q 966 907 976 947 q 939 817 956 867 q 902 711 923 768 l 859 596 l 876 595 q 895 592 886 593 q 911 589 904 591 q 925 570 925 583 q 917 542 925 557 q 895 515 909 528 q 815 482 861 484 q 719 215 732 264 q 705 149 705 166 q 734 112 705 112 q 779 121 762 112 l 803 133 q 817 136 810 136 q 831 122 831 136 q 762 21 831 62 q 666 -6 715 -6 q 570 56 597 -6 q 560 96 560 77 q 574 185 560 140 q 604 277 587 230 l 682 498 m 680 1216 q 512 1113 591 1141 q 484 1107 500 1107 q 457 1112 469 1107 q 438 1122 446 1116 q 420 1152 420 1136 q 439 1174 420 1168 q 484 1192 457 1179 q 545 1226 511 1205 q 703 1351 622 1274 q 735 1347 711 1360 q 783 1305 780 1324 q 796 1264 787 1286 q 817 1221 805 1242 q 870 1144 840 1182 q 856 1118 879 1131 q 797 1107 833 1104 q 727 1137 761 1109 q 680 1216 693 1164 z "},"":{"ha":771,"x_min":-1,"x_max":715,"o":"m 528 574 q 407 460 504 574 q 239 249 277 299 q 178 125 200 174 l 141 46 q 116 5 127 17 q 88 -7 106 -7 q 53 0 70 -7 q 24 16 37 6 q -1 64 -1 38 q 14 104 -1 74 l 39 159 q 64 212 52 183 q 302 975 258 663 q 357 1032 309 1032 q 409 1017 388 1032 q 447 950 448 988 q 433 861 446 912 q 403 752 421 809 q 363 637 385 695 q 290 451 309 497 l 262 389 q 288 422 272 401 q 441 616 412 585 q 490 665 470 648 q 599 702 533 702 q 685 666 652 702 q 715 590 715 631 q 706 516 715 549 q 683 450 697 484 q 651 380 669 416 l 618 309 q 570 149 570 201 q 600 112 570 112 q 652 124 629 112 q 682 136 675 136 q 696 122 696 136 q 635 21 696 62 q 559 -7 593 -7 q 502 0 524 -7 q 461 24 479 7 q 421 132 421 60 q 471 324 421 208 l 545 480 q 566 549 566 524 q 528 574 566 574 m 444 1201 q 229 1056 313 1087 q 201 1050 216 1050 q 175 1055 186 1050 q 155 1065 163 1059 q 138 1096 138 1080 q 156 1117 138 1111 q 378 1259 235 1143 q 469 1342 426 1297 q 502 1338 478 1351 q 549 1299 547 1315 q 617 1087 574 1147 q 603 1061 626 1074 q 551 1050 580 1047 q 480 1093 507 1053 q 444 1201 453 1134 z "},"":{"ha":929,"x_min":-50,"x_max":1073,"o":"m 682 498 q 518 506 598 506 q 353 496 439 506 q 122 65 245 195 q 28 0 77 17 q 3 -5 16 -5 q -19 0 -9 -5 q -35 11 -29 4 q -50 40 -50 24 q -39 62 -50 55 q 189 465 68 140 q 179 462 184 463 q 168 458 174 460 q 151 463 161 456 q 134 479 142 469 q 130 515 117 503 q 220 555 153 536 q 244 631 220 555 q 265 704 256 668 l 205 697 q 157 691 176 694 q 124 695 138 688 q 102 714 111 703 q 93 751 77 742 q 289 799 138 779 q 315 954 313 910 q 263 939 287 952 l 212 909 q 156 928 191 898 q 126 982 122 956 q 235 1046 131 1021 q 292 1055 271 1055 q 334 1054 313 1055 q 372 1048 355 1053 q 455 990 439 1032 q 462 933 462 971 q 444 814 462 896 q 791 826 606 826 q 829 978 821 928 q 851 1041 837 1028 q 883 1055 865 1055 q 918 1049 902 1055 q 947 1034 934 1044 q 977 979 979 1011 q 941 823 975 926 q 984 821 964 822 q 1024 818 1004 820 q 1058 812 1043 817 q 1073 793 1073 808 q 1065 763 1073 779 q 1043 735 1057 748 q 962 705 1010 705 q 943 707 954 705 l 902 711 q 859 596 873 631 l 876 595 q 895 592 886 593 q 911 589 904 591 q 925 570 925 583 q 917 542 925 557 q 895 515 909 528 q 815 482 861 484 q 719 215 732 264 q 705 149 705 166 q 734 112 705 112 q 779 121 762 112 l 803 133 q 817 136 810 136 q 831 122 831 136 q 762 21 831 62 q 666 -6 715 -6 q 570 56 597 -6 q 560 96 560 77 q 574 185 560 140 q 604 277 587 230 l 682 498 m 383 585 q 689 602 531 602 l 718 602 l 758 720 q 636 722 694 722 q 421 716 504 722 q 383 585 404 652 z "},"":{"ha":771,"x_min":-1,"x_max":716,"o":"m 538 574 q 405 460 501 574 l 349 391 l 240 249 q 178 125 201 174 l 142 46 q 117 5 127 17 q 89 -7 106 -7 q 54 0 71 -7 q 25 16 37 6 q -1 64 -1 38 q 14 104 -1 74 l 41 159 q 243 718 143 370 q 286 882 267 803 q 162 891 168 886 q 157 905 157 897 q 164 926 157 913 q 184 949 172 938 q 250 975 215 975 l 307 976 l 317 1034 q 326 1089 322 1061 q 381 1143 333 1143 q 433 1128 412 1143 q 471 1064 472 1099 q 459 979 469 1029 l 606 982 q 644 959 644 983 q 621 915 644 936 q 544 877 581 877 q 433 878 507 877 q 404 779 420 830 q 339 586 358 640 q 262 389 279 425 q 289 422 273 401 q 441 616 412 585 q 491 665 471 648 q 600 702 534 702 q 686 666 653 702 q 716 590 716 631 q 707 516 716 549 q 684 450 698 484 q 652 380 669 416 l 618 309 q 571 149 571 201 q 601 112 571 112 q 653 124 629 112 q 683 136 676 136 q 697 122 697 136 q 636 21 697 62 q 559 -7 594 -7 q 502 0 525 -7 q 462 24 479 7 q 422 132 422 60 q 472 324 422 208 l 545 480 q 566 549 566 524 q 538 574 566 574 z "},"":{"ha":455,"x_min":-16,"x_max":713,"o":"m -5 62 q 231 506 112 149 q 328 882 300 714 q 335 954 335 928 q 283 939 307 952 l 233 909 q 177 928 212 898 q 145 978 142 958 q 168 1012 148 999 q 214 1035 188 1025 q 308 1055 270 1055 q 374 1049 345 1055 q 427 1029 403 1043 q 482 940 481 998 q 414 597 485 839 q 149 58 301 214 q 63 0 108 16 q 38 -5 51 -5 q 16 0 26 -5 q -1 11 5 4 q -16 39 -16 24 q -5 62 -16 55 m 214 1123 q 182 1159 180 1123 q 203 1226 184 1194 q 251 1283 222 1257 q 384 1343 316 1343 q 484 1291 441 1343 l 506 1267 q 551 1240 530 1240 q 587 1247 572 1240 q 614 1264 602 1254 q 652 1311 631 1278 q 677 1334 661 1334 q 710 1292 713 1334 q 639 1173 706 1231 q 501 1114 571 1114 q 401 1165 444 1114 l 380 1190 q 336 1216 357 1216 q 302 1209 315 1216 q 277 1192 288 1202 q 244 1149 260 1176 q 214 1123 229 1123 z "},"":{"ha":397,"x_min":38,"x_max":608,"o":"m 276 127 q 294 104 294 127 q 266 41 294 73 q 157 -7 225 -7 q 49 57 78 -7 q 38 111 38 79 q 49 182 38 143 q 77 264 60 221 q 113 351 94 307 l 149 437 q 189 563 189 532 q 182 603 189 593 q 168 618 176 613 l 155 628 q 148 645 148 633 q 157 667 148 656 q 181 686 166 678 q 252 702 212 702 q 352 650 352 702 q 320 510 352 589 q 266 384 288 432 l 225 290 q 180 142 180 187 q 210 112 180 112 q 254 119 239 112 q 276 127 269 127 m 109 831 q 77 866 75 831 q 98 933 79 902 q 146 991 117 965 q 279 1050 211 1050 q 379 1000 336 1050 l 401 975 q 446 948 425 948 q 482 955 467 948 q 509 972 497 962 q 547 1019 526 986 q 572 1042 556 1042 q 605 1000 608 1042 q 534 880 601 939 q 396 821 466 821 q 296 872 338 821 l 275 897 q 231 924 252 924 q 197 917 210 924 q 172 900 183 910 q 139 857 155 884 q 109 831 123 831 z "}}}
